<?xml version="1.0" encoding="utf-8" standalone="no"?>
<!DOCTYPE svg PUBLIC "-//W3C//DTD SVG 1.1//EN"
  "http://www.w3.org/Graphics/SVG/1.1/DTD/svg11.dtd">
<!-- Created with matplotlib (https://matplotlib.org/) -->
<svg height="504pt" version="1.1" viewBox="0 0 648 504" width="648pt" xmlns="http://www.w3.org/2000/svg" xmlns:xlink="http://www.w3.org/1999/xlink">
 <defs>
  <style type="text/css">
*{stroke-linecap:butt;stroke-linejoin:round;}
  </style>
 </defs>
 <g id="figure_1">
  <g id="patch_1">
   <path d="M 0 504 
L 648 504 
L 648 0 
L 0 0 
z
" style="fill:#ffffff;"/>
  </g>
  <g id="axes_1">
   <g id="patch_2">
    <path d="M 81 448.56 
L 583.2 448.56 
L 583.2 60.48 
L 81 60.48 
z
" style="fill:#ffffff;"/>
   </g>
   <g id="matplotlib.axis_1">
    <g id="xtick_1">
     <g id="line2d_1">
      <defs>
       <path d="M 0 0 
L 0 3.5 
" id="m8abe1593df" style="stroke:#000000;stroke-width:0.8;"/>
      </defs>
      <g>
       <use style="stroke:#000000;stroke-width:0.8;" x="169.048052" xlink:href="#m8abe1593df" y="448.56"/>
      </g>
     </g>
     <g id="text_1">
      <!-- $\mathdefault{10^{1}}$ -->
      <defs>
       <path d="M 35.5 -0.296875 
Q 30.296875 0 23.796875 0 
Q 17.296875 0 12.09375 -0.296875 
L 12.09375 1.296875 
L 17.296875 2.203125 
Q 20.796875 2.90625 20.796875 6.09375 
L 20.796875 55.5 
L 8.90625 47.796875 
L 7.5 49.703125 
Q 14.40625 54.203125 24.09375 63.5 
L 27.40625 63.5 
L 27.40625 6.09375 
Q 27.40625 2.703125 30.90625 2.09375 
L 35.5 1.296875 
z
" id="STKaiti-49"/>
       <path d="M 23.703125 63.5 
Q 32 63.5 38.046875 54.140625 
Q 44.09375 44.796875 44.09375 30.90625 
Q 44.09375 17.09375 38.046875 7.75 
Q 32 -1.59375 23.703125 -1.59375 
Q 15.703125 -1.59375 9.5 7.65625 
Q 3.296875 16.90625 3.296875 30.90625 
Q 3.296875 44.796875 9.34375 54.140625 
Q 15.40625 63.5 23.703125 63.5 
z
M 23.703125 0.703125 
Q 31.09375 0.703125 33.9375 8.046875 
Q 36.796875 15.40625 36.796875 30.90625 
Q 36.796875 46.40625 33.9375 53.796875 
Q 31.09375 61.203125 23.703125 61.203125 
Q 16.296875 61.203125 13.4375 53.796875 
Q 10.59375 46.40625 10.59375 30.90625 
Q 10.59375 0.703125 23.703125 0.703125 
z
" id="STKaiti-48"/>
      </defs>
      <g transform="translate(156.048052 468.76)scale(0.2 -0.2)">
       <use transform="translate(0 0.665625)" xlink:href="#STKaiti-49"/>
       <use transform="translate(46.899994 0.665625)" xlink:href="#STKaiti-48"/>
       <use transform="translate(94.472097 27.55)scale(0.7)" xlink:href="#STKaiti-49"/>
      </g>
     </g>
    </g>
    <g id="xtick_2">
     <g id="line2d_2">
      <g>
       <use style="stroke:#000000;stroke-width:0.8;" x="299.48961" xlink:href="#m8abe1593df" y="448.56"/>
      </g>
     </g>
     <g id="text_2">
      <!-- $\mathdefault{10^{3}}$ -->
      <defs>
       <path d="M 9.40625 48.90625 
L 7.59375 49.90625 
Q 10.5 56.796875 14.59375 60.140625 
Q 18.703125 63.5 24.90625 63.5 
Q 30.5 63.5 34.296875 60.296875 
Q 38.09375 57.09375 38.09375 53.203125 
Q 38.09375 49.296875 35.4375 45.796875 
Q 32.796875 42.296875 27.203125 38.09375 
Q 34.5 38.59375 38.890625 33.796875 
Q 43.296875 29 43.296875 21.5 
Q 43.296875 11.796875 36.390625 5.09375 
Q 29.5 -1.59375 18.796875 -1.59375 
Q 11.90625 -1.59375 8.296875 0.046875 
Q 4.703125 1.703125 4.703125 3.90625 
Q 4.703125 4.90625 5.640625 5.75 
Q 6.59375 6.59375 7.703125 6.59375 
Q 9.40625 6.59375 11.59375 4.796875 
Q 17.203125 0.59375 21.09375 0.59375 
Q 27.203125 0.59375 31.84375 5.890625 
Q 36.5 11.203125 36.5 18.796875 
Q 36.5 25.203125 33.34375 29.34375 
Q 30.203125 33.5 25.40625 33.5 
Q 21.703125 33.5 17.796875 30.09375 
L 16.703125 32 
Q 18.703125 33.796875 21.09375 35.59375 
Q 32.09375 43.703125 32.09375 49.296875 
Q 32.09375 53.40625 29.34375 55.90625 
Q 26.59375 58.40625 22.5 58.40625 
Q 18.5 58.40625 14.953125 55.953125 
Q 11.40625 53.5 9.40625 48.90625 
z
" id="STKaiti-51"/>
      </defs>
      <g transform="translate(286.48961 468.76)scale(0.2 -0.2)">
       <use transform="translate(0 0.665625)" xlink:href="#STKaiti-49"/>
       <use transform="translate(46.899994 0.665625)" xlink:href="#STKaiti-48"/>
       <use transform="translate(94.472097 27.55)scale(0.7)" xlink:href="#STKaiti-51"/>
      </g>
     </g>
    </g>
    <g id="xtick_3">
     <g id="line2d_3">
      <g>
       <use style="stroke:#000000;stroke-width:0.8;" x="429.931169" xlink:href="#m8abe1593df" y="448.56"/>
      </g>
     </g>
     <g id="text_3">
      <!-- $\mathdefault{10^{5}}$ -->
      <defs>
       <path d="M 38 56.59375 
L 24 56.59375 
Q 16.203125 56.59375 15.40625 56.296875 
L 14.09375 38 
Q 18.5 40.09375 23.09375 40.09375 
Q 31.296875 40.09375 37 34.5 
Q 42.703125 28.90625 42.703125 19.90625 
Q 42.703125 9.90625 35.640625 4.15625 
Q 28.59375 -1.59375 19.59375 -1.59375 
Q 14.59375 -1.59375 10.390625 0.15625 
Q 6.203125 1.90625 6.203125 4 
Q 6.203125 5 7.09375 6.046875 
Q 8 7.09375 9.59375 7.09375 
Q 10.703125 7.09375 11.40625 6.59375 
Q 18.40625 1.296875 22.703125 1.296875 
Q 28.296875 1.296875 32.59375 6.140625 
Q 36.90625 11 36.90625 17.59375 
Q 36.90625 24.59375 32.546875 29.25 
Q 28.203125 33.90625 21.796875 33.90625 
Q 19 33.90625 16.546875 33 
Q 14.09375 32.09375 13 30.5 
L 11.296875 30.5 
L 13.203125 62.5 
L 24.09375 62.5 
Q 31.59375 62.5 34 62.703125 
Q 36.40625 62.90625 37.40625 64.203125 
L 38.90625 64.203125 
z
" id="STKaiti-53"/>
      </defs>
      <g transform="translate(416.931169 468.76)scale(0.2 -0.2)">
       <use transform="translate(0 0.173438)" xlink:href="#STKaiti-49"/>
       <use transform="translate(46.899994 0.173438)" xlink:href="#STKaiti-48"/>
       <use transform="translate(94.472097 27.057813)scale(0.7)" xlink:href="#STKaiti-53"/>
      </g>
     </g>
    </g>
    <g id="xtick_4">
     <g id="line2d_4">
      <g>
       <use style="stroke:#000000;stroke-width:0.8;" x="560.372727" xlink:href="#m8abe1593df" y="448.56"/>
      </g>
     </g>
     <g id="text_4">
      <!-- $\mathdefault{10^{7}}$ -->
      <defs>
       <path d="M 4.59375 62.5 
L 43.09375 62.5 
L 43.09375 60.796875 
Q 39.703125 54.796875 30.953125 30.140625 
Q 22.203125 5.5 21.296875 0 
L 18 0 
Q 22.796875 20.703125 37.296875 56.40625 
L 10.296875 56.40625 
Q 7.796875 56.40625 7.59375 55.09375 
L 6.796875 50.90625 
L 4.59375 50.90625 
z
" id="STKaiti-55"/>
      </defs>
      <g transform="translate(547.372727 468.76)scale(0.2 -0.2)">
       <use transform="translate(0 0.365625)" xlink:href="#STKaiti-49"/>
       <use transform="translate(46.899994 0.365625)" xlink:href="#STKaiti-48"/>
       <use transform="translate(94.472097 27.25)scale(0.7)" xlink:href="#STKaiti-55"/>
      </g>
     </g>
    </g>
    <g id="text_5">
     <!-- 矩阵大小n:(1xn)@(nx1) -->
     <defs>
      <path d="M 37.40625 30.5 
Q 41.40625 31.40625 44.296875 32.40625 
Q 47.203125 33.40625 49.203125 33.40625 
Q 51.203125 33.40625 52.75 32.296875 
Q 54.296875 31.203125 54.296875 30.546875 
Q 54.296875 29.90625 49.796875 29.203125 
Q 42.40625 28.09375 36.90625 26.90625 
Q 35.203125 15.5 30.953125 8.296875 
Q 26.703125 1.09375 20.890625 -2.65625 
Q 15.09375 -6.40625 13.09375 -6.40625 
Q 12.296875 -6.40625 12.296875 -5.796875 
Q 12.296875 -5.203125 13.5 -4.203125 
Q 22.59375 3.296875 26.4375 10.140625 
Q 30.296875 17 31.703125 25.703125 
Q 20.5 22.5 18.296875 21.75 
Q 16.09375 21 14.59375 21 
Q 13.09375 21 10.390625 22.84375 
Q 7.703125 24.703125 7.703125 25.453125 
Q 7.703125 26.203125 9 26.203125 
L 10.203125 26.203125 
Q 16.796875 26.203125 32.203125 29.40625 
Q 32.5 31.796875 32.5 33.796875 
Q 32.5 38.796875 30.203125 42.09375 
Q 28.296875 42.296875 26.796875 42.703125 
Q 22.90625 38.09375 19.90625 35.9375 
Q 16.90625 33.796875 15.796875 33.796875 
Q 15.5 33.796875 15.5 34.09375 
Q 15.5 34.59375 16.90625 36.296875 
Q 23.796875 44.5 27.5 53.25 
Q 31.203125 62 30.59375 64.296875 
Q 30.40625 65.203125 30.40625 65.796875 
Q 30.40625 67.09375 31.59375 67.09375 
Q 32.796875 67.09375 35.890625 65.4375 
Q 39 63.796875 39 62.203125 
Q 39 61.296875 37.5 59.390625 
Q 36 57.5 33.890625 53.453125 
Q 31.796875 49.40625 29 45.59375 
Q 30.59375 45.203125 36.640625 47.703125 
Q 42.703125 50.203125 44.890625 50.203125 
Q 47.09375 50.203125 48.6875 49.5 
Q 50.296875 48.796875 50.296875 47.9375 
Q 50.296875 47.09375 46.84375 45.890625 
Q 43.40625 44.703125 32.796875 42.40625 
Q 36.09375 41.296875 37.640625 40.390625 
Q 39.203125 39.5 39.203125 38.34375 
Q 39.203125 37.203125 38.59375 35.75 
Q 38 34.296875 37.40625 30.5 
z
M 61.09375 2.59375 
L 77.296875 5.203125 
Q 84.703125 6.296875 85.84375 6.4375 
Q 87 6.59375 88.09375 6.59375 
Q 91.796875 6.59375 93.75 4.84375 
Q 95.703125 3.09375 95.703125 1.90625 
Q 95.703125 0.296875 92.59375 0.296875 
L 81.703125 0.59375 
Q 77.09375 0.59375 70.9375 0.046875 
Q 64.796875 -0.5 62.796875 -1.09375 
Q 60.796875 -1.703125 58.9375 -3.140625 
Q 57.09375 -4.59375 56 -4.59375 
Q 54.90625 -4.59375 53.796875 -3.046875 
Q 52.703125 -1.5 52.703125 -0.390625 
Q 52.703125 0.703125 54.046875 2.140625 
Q 55.40625 3.59375 56 7.34375 
Q 56.59375 11.09375 56.9375 19.796875 
Q 57.296875 28.5 57.296875 38.140625 
Q 57.296875 47.796875 56.84375 51 
Q 56.40625 54.203125 55.5 55.640625 
Q 54.59375 57.09375 54.59375 57.890625 
Q 54.59375 58.703125 55.5 58.703125 
Q 57.40625 58.703125 61.703125 55.703125 
Q 65.796875 56.09375 78.59375 60.203125 
Q 82.296875 61.40625 84 61.40625 
Q 85.703125 61.40625 87.203125 60.703125 
Q 88.703125 60 88.703125 59.09375 
Q 88.703125 58.203125 87.453125 57.453125 
Q 86.203125 56.703125 81.453125 55.453125 
Q 76.703125 54.203125 71.59375 53.5 
Q 66.5 52.796875 62.296875 53 
Q 62.296875 47.703125 62.09375 37.59375 
Q 66.59375 38 71 39.140625 
Q 75.40625 40.296875 77 41.1875 
Q 78.59375 42.09375 80.34375 42.09375 
Q 82.09375 42.09375 85.640625 40.390625 
Q 89.203125 38.703125 89.203125 37.5 
Q 89.203125 36.796875 87.5 35.25 
Q 85.796875 33.703125 84.390625 31.390625 
Q 83 29.09375 83 27.796875 
Q 83 26.5 83.5 26 
Q 85.09375 24.40625 85.09375 23.40625 
Q 85.09375 22.40625 82.40625 22.203125 
Q 75.203125 21.5 71.546875 20.84375 
Q 67.90625 20.203125 65.59375 20.203125 
Q 63.296875 20.203125 61.703125 20.40625 
z
M 61.796875 22.90625 
Q 65.59375 22.90625 70.25 23.796875 
Q 74.90625 24.703125 76 25.5 
Q 77.09375 26.296875 77.75 29.25 
Q 78.40625 32.203125 78.40625 34.703125 
Q 78.40625 37.203125 77.09375 37.203125 
Q 75.796875 37.203125 74.09375 36.90625 
Q 66.203125 35.203125 62.09375 35.296875 
Q 61.796875 29.203125 61.796875 22.90625 
z
M 48.90625 8 
Q 48.90625 6.296875 48.25 4.546875 
Q 47.59375 2.796875 46.6875 2.796875 
Q 45.796875 2.796875 45.046875 3.4375 
Q 44.296875 4.09375 41.6875 8.09375 
Q 39.09375 12.09375 37.9375 14.75 
Q 36.796875 17.40625 36.796875 18.046875 
Q 36.796875 18.703125 37.296875 18.703125 
Q 38.90625 18.703125 43.90625 15.25 
Q 48.90625 11.796875 48.90625 8 
z
" id="STKaiti-30697"/>
      <path d="M 64.90625 19.203125 
Q 76.796875 20.703125 79.75 21.25 
Q 82.703125 21.796875 86.203125 21.796875 
Q 89.703125 21.796875 92.640625 20.296875 
Q 95.59375 18.796875 95.59375 17.203125 
Q 95.59375 15.09375 91.203125 15.09375 
Q 89.90625 15.09375 87.203125 15.4375 
Q 84.5 15.796875 78.453125 15.796875 
Q 72.40625 15.796875 64.90625 15.09375 
L 64.90625 5.5 
Q 64.90625 -2.59375 63.796875 -9.5 
Q 62.703125 -16.40625 61.203125 -16.40625 
Q 60.296875 -16.40625 59.75 -13.296875 
Q 59.203125 -10.203125 59.203125 -0.640625 
Q 59.203125 8.90625 59.296875 14.59375 
Q 47.59375 13.296875 43.09375 12.09375 
Q 38.59375 10.90625 35.796875 10.90625 
Q 33 10.90625 31.203125 12.40625 
Q 29.40625 13.90625 29.40625 14.59375 
Q 29.40625 15.296875 30 15.546875 
Q 30.59375 15.796875 32.90625 15.796875 
Q 37.40625 15.796875 59.40625 18.5 
L 59.796875 30.796875 
Q 55 30.203125 51.390625 29.203125 
Q 47.796875 28.203125 46.5 27.09375 
Q 44 24.90625 42.890625 24.90625 
Q 41.796875 24.90625 40.75 26.703125 
Q 39.703125 28.5 39.703125 29.40625 
Q 39.703125 31.203125 43.203125 33.296875 
Q 45.796875 35 52.09375 50.796875 
Q 48.203125 50.296875 46.390625 50.296875 
Q 44.59375 50.296875 42.75 51.09375 
Q 40.90625 51.90625 40.90625 52.703125 
Q 40.90625 53.796875 43.5 53.796875 
Q 45.203125 53.796875 54 55.5 
Q 57.90625 64.59375 57.90625 66.90625 
Q 57.90625 67.40625 57.59375 68.453125 
Q 57.296875 69.5 57.296875 70.75 
Q 57.296875 72 58.640625 72 
Q 60 72 63.09375 70.703125 
Q 66.203125 69.40625 66.203125 67.90625 
Q 66.203125 66.40625 64.59375 64.203125 
Q 63 62 60.40625 56.90625 
Q 68 58.40625 70.75 59.25 
Q 73.5 60.09375 76 60.09375 
Q 78.5 60.09375 80.09375 59.140625 
Q 81.703125 58.203125 81.703125 57.203125 
Q 81.703125 56.203125 79.84375 55.34375 
Q 78 54.5 57.796875 51.5 
Q 52.796875 42.203125 48 32 
Q 53.203125 32.90625 59.796875 34.203125 
Q 59.90625 40.5 59.09375 43.203125 
Q 58.796875 44.40625 58.796875 45.203125 
Q 58.796875 46.703125 60.046875 46.703125 
Q 61.296875 46.703125 63.75 45.546875 
Q 66.203125 44.40625 66.203125 42.796875 
Q 66.203125 41.203125 65.84375 39.75 
Q 65.5 38.296875 65.296875 35.296875 
Q 74.59375 37.203125 76.84375 37.203125 
Q 79.09375 37.203125 80.796875 36.203125 
Q 82.5 35.203125 82.5 34.140625 
Q 82.5 33.09375 81.5 32.546875 
Q 80.5 32 78.90625 32 
L 76 32.09375 
Q 72.59375 32.09375 65.203125 31.40625 
z
M 18.796875 61.296875 
Q 21.796875 61.203125 24.59375 61.953125 
Q 27.40625 62.703125 28.796875 64 
Q 31 66.203125 32.296875 66.203125 
Q 33.59375 66.203125 36.6875 64.953125 
Q 39.796875 63.703125 39.796875 62.59375 
Q 39.796875 61.5 37.5 58.703125 
Q 32 52.09375 32 47.90625 
Q 32 45.703125 33.203125 43.40625 
Q 37.5 35.40625 37.5 32.09375 
Q 37.5 28.59375 35.703125 28.59375 
Q 34.703125 28.59375 32.640625 30.25 
Q 30.59375 31.90625 24.59375 35.59375 
Q 23.296875 36.40625 23.296875 36.953125 
Q 23.296875 37.5 24.34375 37.5 
Q 25.40625 37.5 26.546875 37.296875 
Q 27.703125 37.09375 28.5 37.09375 
Q 30.90625 37.09375 30.90625 38.890625 
Q 30.90625 40.703125 29.203125 44.40625 
Q 28.40625 46.203125 28.40625 48.546875 
Q 28.40625 50.90625 30.203125 56.90625 
Q 30.59375 58.203125 30.59375 58.953125 
Q 30.59375 59.703125 29.890625 59.703125 
Q 29.203125 59.703125 27.296875 58.84375 
Q 25.40625 58 21.5 58.203125 
Q 21.796875 48.203125 21.796875 40.203125 
L 21.796875 17 
Q 21.90625 3 20.84375 -1.25 
Q 19.796875 -5.5 18.34375 -5.5 
Q 16.90625 -5.5 15.59375 -2.59375 
Q 14.296875 0.296875 14.296875 2.59375 
Q 14.296875 4.90625 15.1875 7.59375 
Q 16.09375 10.296875 16.6875 17.390625 
Q 17.296875 24.5 17.296875 35.09375 
Q 17.296875 45.703125 16.6875 50.59375 
Q 16.09375 55.5 14.40625 58.5 
Q 13.59375 59.90625 13.59375 60.953125 
Q 13.59375 62 15.09375 62 
Q 16.59375 62 18.796875 61.296875 
z
" id="STKaiti-38453"/>
      <path d="M 50.90625 30.296875 
Q 55.90625 21.796875 62.34375 14.796875 
Q 68.796875 7.796875 76.046875 3.84375 
Q 83.296875 -0.09375 96.40625 -3.40625 
Q 99.296875 -4.09375 99.296875 -5.09375 
Q 99.296875 -5.59375 98.296875 -5.890625 
Q 97.296875 -6.203125 90.890625 -6.703125 
Q 84.5 -7.203125 79.84375 -7.203125 
Q 75.203125 -7.203125 73.296875 -5.84375 
Q 71.40625 -4.5 64.25 4.140625 
Q 57.09375 12.796875 50.09375 25.703125 
Q 47.296875 13.296875 41.09375 6.4375 
Q 34.90625 -0.40625 27.296875 -3.09375 
Q 19.703125 -5.796875 17 -5.796875 
Q 16.09375 -5.796875 16.09375 -5.296875 
Q 16.09375 -4.796875 18.296875 -3.796875 
Q 32.59375 2.5 39 12.09375 
Q 45.40625 21.703125 46.09375 35.203125 
Q 42.40625 34.59375 36.90625 33.1875 
Q 31.40625 31.796875 29.296875 31.796875 
Q 27.203125 31.796875 24.640625 33 
Q 22.09375 34.203125 22.09375 34.84375 
Q 22.09375 35.5 25.203125 35.90625 
Q 31.90625 36.703125 46.296875 39.296875 
Q 46.5 44.796875 46.5 50.296875 
Q 46.5 55.796875 45.953125 59.75 
Q 45.40625 63.703125 43.90625 65.84375 
Q 42.40625 68 42.40625 69.140625 
Q 42.40625 70.296875 44.046875 70.296875 
Q 45.703125 70.296875 50.09375 68.796875 
Q 54.5 67.296875 54.5 65.09375 
Q 54.5 64.296875 54.09375 63.1875 
Q 53.703125 62.09375 53.453125 60.390625 
Q 53.203125 58.703125 52.796875 53 
L 51.90625 40.40625 
Q 62.703125 42.5 65.90625 43.59375 
Q 71.203125 45.5 74.703125 45.5 
Q 78.203125 45.5 80.796875 43.703125 
Q 83.40625 41.90625 83.40625 40.703125 
Q 83.40625 38.90625 77.90625 38.796875 
Q 66.90625 38.703125 51.59375 36.296875 
Q 51.296875 32.59375 50.90625 30.296875 
z
" id="STKaiti-22823"/>
      <path d="M 56.296875 60.09375 
Q 56.296875 59.40625 55.90625 58.796875 
Q 54.703125 56.703125 54.140625 52.5 
Q 53.59375 48.296875 53.59375 39.5 
Q 53.59375 30.703125 53.796875 21.40625 
L 54.203125 5.59375 
Q 54.203125 -1.796875 51.84375 -6.5 
Q 49.5 -11.203125 47.890625 -11.203125 
Q 46.296875 -11.203125 44.703125 -8.59375 
Q 41.796875 -3.703125 35.40625 2.59375 
Q 34.296875 3.703125 34.296875 4.140625 
Q 34.296875 4.59375 34.796875 4.59375 
Q 35.296875 4.59375 36.296875 4.203125 
Q 42.5 1.90625 44.390625 1.90625 
Q 46.296875 1.90625 46.84375 3.046875 
Q 47.40625 4.203125 47.90625 13.09375 
Q 48.40625 22 48.40625 35.203125 
Q 48.40625 48.40625 47.65625 54.65625 
Q 46.90625 60.90625 44.59375 63.90625 
Q 43.90625 65 43.90625 66 
Q 43.90625 67 45.796875 67 
Q 47.703125 67 52 64.703125 
Q 56.296875 62.40625 56.296875 60.09375 
z
M 69.09375 39.5 
Q 70.40625 39.5 74.75 37.34375 
Q 79.09375 35.203125 82.25 32.546875 
Q 85.40625 29.90625 86.84375 27.203125 
Q 88.296875 24.5 88.296875 21 
Q 88.296875 15.5 85.640625 15.5 
Q 83 15.5 79.59375 21.5 
Q 74.703125 30.203125 69.203125 37.09375 
Q 68.296875 38.203125 68.296875 38.84375 
Q 68.296875 39.5 69.09375 39.5 
z
M 25.296875 38 
Q 26 38 27.09375 36.453125 
Q 28.203125 34.90625 28.203125 31.90625 
Q 28.203125 28.90625 25.84375 22.84375 
Q 23.5 16.796875 21 13.59375 
Q 18.5 10.40625 17.203125 10.40625 
Q 15.90625 10.40625 15.25 11.90625 
Q 14.59375 13.40625 14.59375 15.546875 
Q 14.59375 17.703125 15.34375 19.34375 
Q 16.09375 21 17.75 23.140625 
Q 19.40625 25.296875 21.34375 29.25 
Q 23.296875 33.203125 23.9375 35.59375 
Q 24.59375 38 25.296875 38 
z
" id="STKaiti-23567"/>
      <path d="M 50 -0.296875 
Q 44.796875 0 39.59375 0 
Q 34.40625 0 29.203125 -0.296875 
L 29.203125 1.296875 
L 34.703125 2.09375 
Q 36.90625 2.40625 36.90625 6 
L 36.90625 25.703125 
Q 36.90625 30.09375 34.40625 32.6875 
Q 31.90625 35.296875 27.59375 35.296875 
Q 21.203125 35.296875 15.09375 29.203125 
L 15.09375 4.90625 
Q 15.09375 3.296875 17.5 2.703125 
L 23.40625 1.296875 
L 23.40625 -0.296875 
Q 19.703125 0 12.59375 0 
Q 5.5 0 1.796875 -0.296875 
L 1.796875 1.296875 
L 7.09375 2.296875 
Q 9.09375 2.59375 9.09375 5.296875 
L 9.09375 25.09375 
Q 9.09375 28.203125 7.84375 29.296875 
Q 6.59375 30.40625 3.40625 30.90625 
L 3.40625 32.703125 
Q 9.796875 34.203125 13.5 41.703125 
L 15.09375 41.703125 
L 15.09375 32.703125 
Q 18.90625 36 23.5 37.953125 
Q 28.09375 39.90625 31.59375 39.90625 
Q 43.09375 39.90625 43.09375 26.203125 
L 43.09375 6.296875 
Q 43.09375 4.40625 43.59375 3.40625 
Q 44.09375 2.40625 45.59375 2.09375 
L 50 1.296875 
z
" id="STKaiti-110"/>
      <path d="M 5.5 34.5 
Q 5.5 36.703125 7.09375 38.296875 
Q 8.703125 39.90625 10.90625 39.90625 
Q 13.09375 39.90625 14.6875 38.296875 
Q 16.296875 36.703125 16.296875 34.5 
Q 16.296875 32.296875 14.6875 30.6875 
Q 13.09375 29.09375 10.90625 29.09375 
Q 8.703125 29.09375 7.09375 30.6875 
Q 5.5 32.296875 5.5 34.5 
z
M 5.5 3.796875 
Q 5.5 6 7.09375 7.59375 
Q 8.703125 9.203125 10.90625 9.203125 
Q 13.09375 9.203125 14.6875 7.59375 
Q 16.296875 6 16.296875 3.796875 
Q 16.296875 1.59375 14.6875 0 
Q 13.09375 -1.59375 10.90625 -1.59375 
Q 8.703125 -1.59375 7.09375 0 
Q 5.5 1.59375 5.5 3.796875 
z
" id="STKaiti-58"/>
      <path d="M 29.703125 65.59375 
L 31 63 
Q 21.09375 53.90625 16.6875 43.703125 
Q 12.296875 33.5 12.296875 20.09375 
Q 12.296875 9.09375 17.046875 -1.75 
Q 21.796875 -12.59375 30.703125 -20.5 
L 29.5 -22.796875 
Q 19.40625 -15.5 13.546875 -3.25 
Q 7.703125 9 7.703125 21.703125 
Q 7.703125 34.5 13.5 46.640625 
Q 19.296875 58.796875 29.703125 65.59375 
z
" id="STKaiti-40"/>
      <path d="M 44.5 -0.40625 
Q 40.703125 0 35 0 
Q 29 0 25.40625 -0.40625 
L 25.40625 1.203125 
L 28.796875 2.09375 
Q 31.296875 2.796875 31.296875 4 
Q 31.296875 4.90625 29.796875 6.796875 
L 21.796875 16.90625 
L 14.40625 6.796875 
Q 13.296875 5.40625 13.296875 4.40625 
Q 13.296875 2.59375 17.203125 1.796875 
L 20.203125 1.203125 
L 20.203125 -0.40625 
Q 16.203125 0 12.90625 0 
Q 6.59375 0 1.703125 -0.40625 
L 1.703125 1.203125 
L 4.5 1.90625 
Q 7.203125 2.40625 9.046875 4 
Q 10.90625 5.59375 13.09375 8.59375 
L 20.40625 18.5 
L 10.5 30.5 
Q 6.09375 35.796875 4.59375 36.09375 
L 1.40625 36.796875 
L 1.40625 38.40625 
Q 3.5 38.09375 11.203125 38.09375 
Q 18.59375 38.09375 21.09375 38.40625 
L 21.09375 36.59375 
L 17.5 36.09375 
Q 15.90625 35.796875 15.90625 34.796875 
Q 15.90625 33.40625 18.203125 30.5 
L 24 23.40625 
L 29.59375 30.703125 
Q 30.90625 32.5 30.90625 33.796875 
Q 30.90625 35.796875 28.09375 36.296875 
L 25.09375 36.796875 
L 25.09375 38.40625 
Q 28 38 32.09375 38.046875 
Q 36.203125 38.09375 37.59375 38.09375 
Q 41.703125 38.09375 43 38.40625 
L 43 36.796875 
L 39.703125 36.203125 
Q 37.40625 35.703125 35.59375 34.453125 
Q 33.796875 33.203125 31.59375 30.203125 
L 25.296875 21.703125 
L 37.296875 6.203125 
Q 40.09375 2.796875 41.703125 2.203125 
L 44.5 1.203125 
z
" id="STKaiti-120"/>
      <path d="M -0.59375 65.59375 
Q 9.796875 58.796875 15.59375 46.640625 
Q 21.40625 34.5 21.40625 21.703125 
Q 21.40625 9 15.546875 -3.25 
Q 9.703125 -15.5 -0.40625 -22.796875 
L -1.59375 -20.5 
Q 7.296875 -12.59375 12.046875 -1.75 
Q 16.796875 9.09375 16.796875 20.09375 
Q 16.796875 33.5 12.390625 43.703125 
Q 8 53.90625 -1.90625 63 
z
" id="STKaiti-41"/>
      <path d="M 74.40625 43.09375 
L 68.59375 23.59375 
Q 65.40625 12.296875 64.796875 9.59375 
Q 64.203125 6.90625 64.203125 5.40625 
Q 64.203125 1.296875 67.703125 1.296875 
Q 72 1.296875 76.953125 5.390625 
Q 81.90625 9.5 85.203125 17.09375 
Q 88.5 24.703125 88.5 32.59375 
Q 88.5 46 79.59375 54.75 
Q 70.703125 63.5 56.796875 63.5 
Q 45.5 63.5 35.75 57.25 
Q 26 51 20.453125 39.796875 
Q 14.90625 28.59375 14.90625 16.796875 
Q 14.90625 5.90625 19.59375 -3.140625 
Q 24.296875 -12.203125 33.296875 -17.25 
Q 42.296875 -22.296875 53.203125 -22.296875 
Q 66.09375 -22.296875 76.390625 -15.34375 
Q 86.703125 -8.40625 92.40625 4.703125 
L 95.203125 4.703125 
Q 90.5 -9.203125 78.84375 -17.25 
Q 67.203125 -25.296875 52.90625 -25.296875 
Q 41 -25.296875 30.953125 -19.5 
Q 20.90625 -13.703125 15.59375 -3.59375 
Q 10.296875 6.5 10.296875 18.09375 
Q 10.296875 30.40625 16.25 41.75 
Q 22.203125 53.09375 33.203125 59.546875 
Q 44.203125 66 56.5 66 
Q 67 66 75 61.640625 
Q 83 57.296875 87.203125 49.1875 
Q 91.40625 41.09375 91.40625 32.09375 
Q 91.40625 23.40625 87.453125 14.75 
Q 83.5 6.09375 77.546875 1.9375 
Q 71.59375 -2.203125 64.40625 -2.203125 
Q 60.90625 -2.203125 58.953125 -0.453125 
Q 57 1.296875 57 4.5 
Q 57 6.90625 57.796875 11.703125 
Q 46.5 -2.296875 38.703125 -2.296875 
Q 35.09375 -2.296875 32.4375 0.953125 
Q 29.796875 4.203125 29.796875 9.203125 
Q 29.796875 15.796875 33.9375 24.046875 
Q 38.09375 32.296875 44.75 37.84375 
Q 51.40625 43.40625 56.703125 43.40625 
Q 63.59375 43.40625 65.09375 36.59375 
L 66.703125 42 
z
M 63.296875 34.09375 
Q 63.296875 37.09375 61.546875 39.09375 
Q 59.796875 41.09375 57.296875 41.09375 
Q 53.5 41.09375 49.140625 36.546875 
Q 44.796875 32 41.140625 23.703125 
Q 37.5 15.40625 37.5 10.703125 
Q 37.5 7.5 39.203125 5.59375 
Q 40.90625 3.703125 43.296875 3.703125 
Q 47.59375 3.703125 52.890625 9.140625 
Q 58.203125 14.59375 60.75 21.84375 
Q 63.296875 29.09375 63.296875 34.09375 
z
" id="STKaiti-64"/>
     </defs>
     <g transform="translate(235.217188 492.219375)scale(0.2 -0.2)">
      <use xlink:href="#STKaiti-30697"/>
      <use x="99.999985" xlink:href="#STKaiti-38453"/>
      <use x="199.999969" xlink:href="#STKaiti-22823"/>
      <use x="299.999954" xlink:href="#STKaiti-23567"/>
      <use x="399.999939" xlink:href="#STKaiti-110"/>
      <use x="450.999924" xlink:href="#STKaiti-58"/>
      <use x="472.899918" xlink:href="#STKaiti-40"/>
      <use x="502.099915" xlink:href="#STKaiti-49"/>
      <use x="548.999908" xlink:href="#STKaiti-120"/>
      <use x="594.799896" xlink:href="#STKaiti-110"/>
      <use x="645.799881" xlink:href="#STKaiti-41"/>
      <use x="674.999878" xlink:href="#STKaiti-64"/>
      <use x="766.69986" xlink:href="#STKaiti-40"/>
      <use x="795.899857" xlink:href="#STKaiti-110"/>
      <use x="846.899841" xlink:href="#STKaiti-120"/>
      <use x="892.699829" xlink:href="#STKaiti-49"/>
      <use x="939.599823" xlink:href="#STKaiti-41"/>
     </g>
    </g>
   </g>
   <g id="matplotlib.axis_2">
    <g id="ytick_1">
     <g id="line2d_5">
      <defs>
       <path d="M 0 0 
L -3.5 0 
" id="m2d3c49acd3" style="stroke:#000000;stroke-width:0.8;"/>
      </defs>
      <g>
       <use style="stroke:#000000;stroke-width:0.8;" x="81" xlink:href="#m2d3c49acd3" y="394.732148"/>
      </g>
     </g>
     <g id="text_6">
      <!-- $\mathdefault{10^{-1}}$ -->
      <defs>
       <path d="M 7.09375 33.296875 
L 59.59375 33.296875 
L 59.59375 29 
L 7.09375 29 
z
" id="STKaiti-8722"/>
      </defs>
      <g transform="translate(38.8 401.332148)scale(0.2 -0.2)">
       <use transform="translate(0 0.665625)" xlink:href="#STKaiti-49"/>
       <use transform="translate(46.899994 0.665625)" xlink:href="#STKaiti-48"/>
       <use transform="translate(94.472097 27.55)scale(0.7)" xlink:href="#STKaiti-8722"/>
       <use transform="translate(141.162095 27.55)scale(0.7)" xlink:href="#STKaiti-49"/>
      </g>
     </g>
    </g>
    <g id="ytick_2">
     <g id="line2d_6">
      <g>
       <use style="stroke:#000000;stroke-width:0.8;" x="81" xlink:href="#m2d3c49acd3" y="283.314766"/>
      </g>
     </g>
     <g id="text_7">
      <!-- $\mathdefault{10^{0}}$ -->
      <g transform="translate(48 289.914766)scale(0.2 -0.2)">
       <use transform="translate(0 0.665625)" xlink:href="#STKaiti-49"/>
       <use transform="translate(46.899994 0.665625)" xlink:href="#STKaiti-48"/>
       <use transform="translate(94.472097 27.55)scale(0.7)" xlink:href="#STKaiti-48"/>
      </g>
     </g>
    </g>
    <g id="ytick_3">
     <g id="line2d_7">
      <g>
       <use style="stroke:#000000;stroke-width:0.8;" x="81" xlink:href="#m2d3c49acd3" y="171.897383"/>
      </g>
     </g>
     <g id="text_8">
      <!-- $\mathdefault{10^{1}}$ -->
      <g transform="translate(48 178.497383)scale(0.2 -0.2)">
       <use transform="translate(0 0.665625)" xlink:href="#STKaiti-49"/>
       <use transform="translate(46.899994 0.665625)" xlink:href="#STKaiti-48"/>
       <use transform="translate(94.472097 27.55)scale(0.7)" xlink:href="#STKaiti-49"/>
      </g>
     </g>
    </g>
    <g id="ytick_4">
     <g id="line2d_8">
      <g>
       <use style="stroke:#000000;stroke-width:0.8;" x="81" xlink:href="#m2d3c49acd3" y="60.48"/>
      </g>
     </g>
     <g id="text_9">
      <!-- $\mathdefault{10^{2}}$ -->
      <defs>
       <path d="M 42.59375 -0.296875 
Q 35.40625 0 22.203125 0 
Q 9.296875 0 2.203125 -0.296875 
Q 4.09375 3.59375 7 7.09375 
Q 9.90625 10.59375 16.296875 17 
Q 25.59375 26.296875 29.890625 32.84375 
Q 34.203125 39.40625 34.203125 46.09375 
Q 34.203125 51.59375 30.75 55 
Q 27.296875 58.40625 22.203125 58.40625 
Q 17.203125 58.40625 13.09375 54.953125 
Q 9 51.5 7.40625 45.203125 
L 5.09375 45.59375 
Q 6.703125 54.09375 11.796875 58.796875 
Q 16.90625 63.5 24.203125 63.5 
Q 31.5 63.5 36.59375 58.640625 
Q 41.703125 53.796875 41.703125 47 
Q 41.703125 40.203125 36.953125 34.25 
Q 32.203125 28.296875 22.59375 19.40625 
Q 17.5 14.703125 9.90625 5.296875 
L 33.40625 5.296875 
Q 37.203125 5.296875 38.75 6.640625 
Q 40.296875 8 42 12.5 
L 44.09375 12.5 
z
" id="STKaiti-50"/>
      </defs>
      <g transform="translate(48 67.08)scale(0.2 -0.2)">
       <use transform="translate(0 0.665625)" xlink:href="#STKaiti-49"/>
       <use transform="translate(46.899994 0.665625)" xlink:href="#STKaiti-48"/>
       <use transform="translate(94.472097 27.55)scale(0.7)" xlink:href="#STKaiti-50"/>
      </g>
     </g>
    </g>
    <g id="ytick_5">
     <g id="line2d_9">
      <defs>
       <path d="M 0 0 
L -2 0 
" id="mee14a99662" style="stroke:#000000;stroke-width:0.6;"/>
      </defs>
      <g>
       <use style="stroke:#000000;stroke-width:0.6;" x="81" xlink:href="#mee14a99662" y="439.069583"/>
      </g>
     </g>
    </g>
    <g id="ytick_6">
     <g id="line2d_10">
      <g>
       <use style="stroke:#000000;stroke-width:0.6;" x="81" xlink:href="#mee14a99662" y="428.272123"/>
      </g>
     </g>
    </g>
    <g id="ytick_7">
     <g id="line2d_11">
      <g>
       <use style="stroke:#000000;stroke-width:0.6;" x="81" xlink:href="#mee14a99662" y="419.449956"/>
      </g>
     </g>
    </g>
    <g id="ytick_8">
     <g id="line2d_12">
      <g>
       <use style="stroke:#000000;stroke-width:0.6;" x="81" xlink:href="#mee14a99662" y="411.990919"/>
      </g>
     </g>
    </g>
    <g id="ytick_9">
     <g id="line2d_13">
      <g>
       <use style="stroke:#000000;stroke-width:0.6;" x="81" xlink:href="#mee14a99662" y="405.529609"/>
      </g>
     </g>
    </g>
    <g id="ytick_10">
     <g id="line2d_14">
      <g>
       <use style="stroke:#000000;stroke-width:0.6;" x="81" xlink:href="#mee14a99662" y="399.830328"/>
      </g>
     </g>
    </g>
    <g id="ytick_11">
     <g id="line2d_15">
      <g>
       <use style="stroke:#000000;stroke-width:0.6;" x="81" xlink:href="#mee14a99662" y="361.192174"/>
      </g>
     </g>
    </g>
    <g id="ytick_12">
     <g id="line2d_16">
      <g>
       <use style="stroke:#000000;stroke-width:0.6;" x="81" xlink:href="#mee14a99662" y="341.572547"/>
      </g>
     </g>
    </g>
    <g id="ytick_13">
     <g id="line2d_17">
      <g>
       <use style="stroke:#000000;stroke-width:0.6;" x="81" xlink:href="#mee14a99662" y="327.6522"/>
      </g>
     </g>
    </g>
    <g id="ytick_14">
     <g id="line2d_18">
      <g>
       <use style="stroke:#000000;stroke-width:0.6;" x="81" xlink:href="#mee14a99662" y="316.85474"/>
      </g>
     </g>
    </g>
    <g id="ytick_15">
     <g id="line2d_19">
      <g>
       <use style="stroke:#000000;stroke-width:0.6;" x="81" xlink:href="#mee14a99662" y="308.032573"/>
      </g>
     </g>
    </g>
    <g id="ytick_16">
     <g id="line2d_20">
      <g>
       <use style="stroke:#000000;stroke-width:0.6;" x="81" xlink:href="#mee14a99662" y="300.573537"/>
      </g>
     </g>
    </g>
    <g id="ytick_17">
     <g id="line2d_21">
      <g>
       <use style="stroke:#000000;stroke-width:0.6;" x="81" xlink:href="#mee14a99662" y="294.112226"/>
      </g>
     </g>
    </g>
    <g id="ytick_18">
     <g id="line2d_22">
      <g>
       <use style="stroke:#000000;stroke-width:0.6;" x="81" xlink:href="#mee14a99662" y="288.412946"/>
      </g>
     </g>
    </g>
    <g id="ytick_19">
     <g id="line2d_23">
      <g>
       <use style="stroke:#000000;stroke-width:0.6;" x="81" xlink:href="#mee14a99662" y="249.774791"/>
      </g>
     </g>
    </g>
    <g id="ytick_20">
     <g id="line2d_24">
      <g>
       <use style="stroke:#000000;stroke-width:0.6;" x="81" xlink:href="#mee14a99662" y="230.155164"/>
      </g>
     </g>
    </g>
    <g id="ytick_21">
     <g id="line2d_25">
      <g>
       <use style="stroke:#000000;stroke-width:0.6;" x="81" xlink:href="#mee14a99662" y="216.234817"/>
      </g>
     </g>
    </g>
    <g id="ytick_22">
     <g id="line2d_26">
      <g>
       <use style="stroke:#000000;stroke-width:0.6;" x="81" xlink:href="#mee14a99662" y="205.437357"/>
      </g>
     </g>
    </g>
    <g id="ytick_23">
     <g id="line2d_27">
      <g>
       <use style="stroke:#000000;stroke-width:0.6;" x="81" xlink:href="#mee14a99662" y="196.61519"/>
      </g>
     </g>
    </g>
    <g id="ytick_24">
     <g id="line2d_28">
      <g>
       <use style="stroke:#000000;stroke-width:0.6;" x="81" xlink:href="#mee14a99662" y="189.156154"/>
      </g>
     </g>
    </g>
    <g id="ytick_25">
     <g id="line2d_29">
      <g>
       <use style="stroke:#000000;stroke-width:0.6;" x="81" xlink:href="#mee14a99662" y="182.694843"/>
      </g>
     </g>
    </g>
    <g id="ytick_26">
     <g id="line2d_30">
      <g>
       <use style="stroke:#000000;stroke-width:0.6;" x="81" xlink:href="#mee14a99662" y="176.995563"/>
      </g>
     </g>
    </g>
    <g id="ytick_27">
     <g id="line2d_31">
      <g>
       <use style="stroke:#000000;stroke-width:0.6;" x="81" xlink:href="#mee14a99662" y="138.357409"/>
      </g>
     </g>
    </g>
    <g id="ytick_28">
     <g id="line2d_32">
      <g>
       <use style="stroke:#000000;stroke-width:0.6;" x="81" xlink:href="#mee14a99662" y="118.737781"/>
      </g>
     </g>
    </g>
    <g id="ytick_29">
     <g id="line2d_33">
      <g>
       <use style="stroke:#000000;stroke-width:0.6;" x="81" xlink:href="#mee14a99662" y="104.817434"/>
      </g>
     </g>
    </g>
    <g id="ytick_30">
     <g id="line2d_34">
      <g>
       <use style="stroke:#000000;stroke-width:0.6;" x="81" xlink:href="#mee14a99662" y="94.019974"/>
      </g>
     </g>
    </g>
    <g id="ytick_31">
     <g id="line2d_35">
      <g>
       <use style="stroke:#000000;stroke-width:0.6;" x="81" xlink:href="#mee14a99662" y="85.197807"/>
      </g>
     </g>
    </g>
    <g id="ytick_32">
     <g id="line2d_36">
      <g>
       <use style="stroke:#000000;stroke-width:0.6;" x="81" xlink:href="#mee14a99662" y="77.738771"/>
      </g>
     </g>
    </g>
    <g id="ytick_33">
     <g id="line2d_37">
      <g>
       <use style="stroke:#000000;stroke-width:0.6;" x="81" xlink:href="#mee14a99662" y="71.27746"/>
      </g>
     </g>
    </g>
    <g id="ytick_34">
     <g id="line2d_38">
      <g>
       <use style="stroke:#000000;stroke-width:0.6;" x="81" xlink:href="#mee14a99662" y="65.57818"/>
      </g>
     </g>
    </g>
    <g id="text_10">
     <!-- 运算时间(ms) -->
     <defs>
      <path d="M 75.203125 62.40625 
Q 75.203125 61.703125 73.796875 60.796875 
Q 72.40625 59.90625 65.09375 58.046875 
Q 57.796875 56.203125 54.6875 56.203125 
Q 51.59375 56.203125 49.546875 57.140625 
Q 47.5 58.09375 47.5 58.890625 
Q 47.5 59.703125 49.5 59.953125 
Q 51.5 60.203125 54.84375 61.140625 
Q 58.203125 62.09375 60.296875 63 
Q 66.296875 65.703125 69.140625 65.703125 
Q 72 65.703125 73.59375 64.5 
Q 75.203125 63.296875 75.203125 62.40625 
z
M 21.40625 64.203125 
Q 26.203125 64.203125 29.796875 61.953125 
Q 33.40625 59.703125 33.40625 55.296875 
Q 33.40625 54 32.59375 53.046875 
Q 31.796875 52.09375 30.59375 52.09375 
Q 28.296875 52.09375 24.046875 57.25 
Q 19.796875 62.40625 19.796875 63.296875 
Q 19.796875 64.203125 21.40625 64.203125 
z
M 54.296875 40.90625 
Q 50.5 40.203125 47.5 39.5 
Q 44.5 38.796875 42.59375 38.796875 
Q 40.703125 38.796875 38.453125 39.640625 
Q 36.203125 40.5 36.203125 41.390625 
Q 36.203125 42.296875 37.90625 42.296875 
Q 41.59375 42.296875 54.140625 44.75 
Q 66.703125 47.203125 73.296875 49.203125 
Q 76.5 50.203125 79.34375 50.203125 
Q 82.203125 50.203125 84.890625 48.796875 
Q 87.59375 47.40625 87.59375 45.796875 
Q 87.59375 44.203125 84.40625 44 
Q 67.90625 43.09375 56.59375 41.296875 
Q 59.203125 39.796875 60.453125 38.84375 
Q 61.703125 37.90625 61.703125 37.046875 
Q 61.703125 36.203125 60.40625 34.59375 
L 56.203125 29.296875 
Q 53.296875 25.59375 48.5 20.296875 
L 71.40625 24.796875 
Q 67.40625 32.796875 67.40625 33.546875 
Q 67.40625 34.296875 68 34.296875 
Q 69.09375 34.296875 73.390625 31.09375 
Q 77.703125 27.90625 79.640625 24.84375 
Q 81.59375 21.796875 81.59375 18.09375 
Q 81.59375 13.203125 79.09375 13.203125 
Q 77.296875 13.203125 76.09375 15.59375 
L 72.59375 22.5 
Q 52 17.203125 47.703125 14 
Q 45.90625 12.796875 44.65625 12.796875 
Q 43.40625 12.796875 41.65625 15.25 
Q 39.90625 17.703125 39.90625 18.75 
Q 39.90625 19.796875 41.90625 20.703125 
Q 46.09375 22.59375 48.25 24.6875 
Q 50.40625 26.796875 52.453125 31.75 
Q 54.5 36.703125 54.5 38.34375 
Q 54.5 40 54.296875 40.90625 
z
M 28.09375 10.40625 
Q 29.5 10.296875 40.75 7.390625 
Q 52 4.5 60 3.25 
Q 68 2 74.703125 2 
Q 81.40625 2 87.296875 2.59375 
L 97.40625 3.703125 
Q 99.09375 3.703125 99.09375 3 
Q 99.09375 1.5 87.6875 -2.890625 
Q 76.296875 -7.296875 72.296875 -7.296875 
Q 70.59375 -7.296875 67 -5.90625 
Q 34.203125 6.703125 26.59375 6.703125 
Q 24.5 6.703125 22.140625 5.953125 
Q 19.796875 5.203125 15.5 3.09375 
Q 14.296875 2.5 13.1875 2.5 
Q 12.09375 2.5 10.25 4.09375 
Q 8.40625 5.703125 8.40625 6.75 
Q 8.40625 7.796875 10.203125 7.90625 
Q 15.203125 8.203125 21.796875 10.09375 
Q 23.59375 10.59375 25 10.59375 
Q 25 13.203125 24.390625 15.203125 
Q 23.796875 17.203125 21.90625 20.59375 
Q 21.09375 22.203125 21.09375 25 
Q 21.09375 27.796875 21.890625 30.640625 
Q 22.703125 33.5 22.703125 34.046875 
Q 22.703125 34.59375 21.953125 34.59375 
Q 21.203125 34.59375 18.953125 34 
Q 16.703125 33.40625 14.890625 33.40625 
Q 13.09375 33.40625 11.84375 34.203125 
Q 10.59375 35 10.59375 35.796875 
Q 10.59375 36.59375 11.703125 36.796875 
Q 15.296875 37.5 17.34375 38.34375 
Q 19.40625 39.203125 21.5 40.796875 
Q 22.40625 41.5 23.59375 41.5 
Q 24.796875 41.5 28.09375 40.140625 
Q 31.40625 38.796875 31.40625 37.296875 
Q 31.40625 36.59375 30.59375 35.90625 
Q 28.09375 33.59375 26.6875 30.640625 
Q 25.296875 27.703125 25.296875 25.546875 
Q 25.296875 23.40625 25.90625 22.40625 
Q 28.5 18.203125 28.5 14.40625 
Q 28.5 12.796875 28.09375 10.40625 
z
" id="STKaiti-36816"/>
      <path d="M 66.203125 67.296875 
Q 69.40625 67.296875 73.796875 68.5 
Q 78.203125 69.703125 80.34375 69.703125 
Q 82.5 69.703125 84 69 
Q 85.5 68.296875 85.5 67.546875 
Q 85.5 66.796875 84.140625 66.25 
Q 82.796875 65.703125 78.046875 65.140625 
Q 73.296875 64.59375 70.5 64.59375 
Q 67.703125 64.59375 65 65.203125 
Q 62.703125 62.09375 58.140625 58.25 
Q 53.59375 54.40625 52.203125 54.40625 
Q 51.703125 54.40625 51.703125 54.84375 
Q 51.703125 55.296875 52.40625 56.09375 
Q 56.90625 61 59.296875 65 
Q 61.703125 69 61.703125 71.296875 
Q 61.703125 72 61.453125 72.5 
Q 61.203125 73 61.203125 73.40625 
Q 61.203125 74.5 62.34375 74.5 
Q 63.5 74.5 66.296875 73.5 
Q 69.09375 72.5 69.09375 71.40625 
Q 69.09375 71 68.25 70.140625 
Q 67.40625 69.296875 66.203125 67.296875 
z
M 38.203125 64.40625 
Q 40.40625 64.40625 46.796875 66.203125 
Q 48.703125 66.703125 50.34375 66.703125 
Q 52 66.703125 53.546875 66.09375 
Q 55.09375 65.5 55.09375 64.796875 
Q 55.09375 63.703125 50.796875 62.796875 
Q 46.5 61.90625 43.453125 61.90625 
Q 40.40625 61.90625 37.09375 62.796875 
Q 31.796875 55.59375 28.140625 52.640625 
Q 24.5 49.703125 23.203125 49.703125 
Q 22.90625 49.703125 22.90625 50.09375 
Q 22.90625 50.5 23.796875 51.703125 
Q 34.296875 64.59375 34.296875 69.296875 
Q 34.296875 69.90625 34.09375 70.34375 
Q 33.90625 70.796875 33.90625 71.203125 
Q 33.90625 72.90625 35.796875 72.90625 
Q 36.703125 72.90625 39.296875 71.90625 
Q 41.90625 70.90625 41.90625 69.796875 
Q 41.90625 69.296875 41.203125 68.5 
Q 40.5 67.703125 38.203125 64.40625 
z
M 67 60.703125 
Q 70.09375 60.703125 72.9375 59.453125 
Q 75.796875 58.203125 75.796875 56.046875 
Q 75.796875 53.90625 73.296875 53.90625 
Q 71.59375 53.90625 68.5 56.25 
Q 65.40625 58.59375 65.40625 60 
Q 65.40625 60.703125 67 60.703125 
z
M 39.203125 58.296875 
Q 45.296875 58.296875 45.296875 54.203125 
Q 45.296875 52.296875 43.5 52.296875 
Q 41.703125 52.296875 39.25 54.296875 
Q 36.796875 56.296875 36.796875 57.5 
Q 36.796875 58.296875 39.203125 58.296875 
z
M 37.5 49.09375 
Q 43 49.59375 50.640625 50.75 
Q 58.296875 51.90625 60 52.40625 
Q 61.703125 52.90625 63.09375 52.90625 
Q 64.5 52.90625 67.953125 51.25 
Q 71.40625 49.59375 71.40625 48.40625 
Q 71.40625 47.90625 70.65625 46.796875 
Q 69.90625 45.703125 69.25 43.390625 
Q 68.59375 41.09375 68.5 38.796875 
Q 68 28.5 66.59375 26 
Q 65.203125 23.5 63.796875 23.5 
Q 63.40625 23.5 62.09375 24.34375 
Q 60.796875 25.203125 59.796875 25.203125 
Q 53.703125 25.203125 40.40625 23.09375 
Q 40 21.796875 39.453125 21.796875 
Q 38.90625 21.796875 38.25 22.59375 
Q 37.59375 23.40625 37.09375 28.09375 
Q 36.59375 39.796875 35.640625 42.796875 
Q 34.703125 45.796875 33.953125 46.6875 
Q 33.203125 47.59375 33.203125 48.4375 
Q 33.203125 49.296875 35.5 49.296875 
Q 36.296875 49.296875 37.5 49.09375 
z
M 41 25.90625 
L 52.203125 27.5 
Q 57.5 28.203125 58.640625 28 
Q 59.796875 27.796875 60.59375 27.796875 
Q 61.40625 27.796875 61.75 28.9375 
Q 62.09375 30.09375 62.390625 34.6875 
Q 62.703125 39.296875 62.703125 43.140625 
Q 62.703125 47 62.5 48.046875 
Q 62.296875 49.09375 59.59375 49.09375 
Q 53.703125 49.09375 40.203125 47 
L 40.5 41.59375 
Q 46.296875 42.40625 49.25 43.34375 
Q 52.203125 44.296875 53.75 44.296875 
Q 55.296875 44.296875 56.5 43.59375 
Q 57.703125 42.90625 57.703125 42.5 
Q 57.703125 41.59375 51 40.5 
Q 44.296875 39.40625 40.59375 39.703125 
L 40.90625 33.703125 
Q 47.59375 34.5 50.09375 35.34375 
Q 52.59375 36.203125 54.390625 36.203125 
Q 56.203125 36.203125 57.09375 35.453125 
Q 58 34.703125 58 34.203125 
Q 58 33.703125 56.5 33.25 
Q 55 32.796875 49.546875 32.140625 
Q 44.09375 31.5 41 31.59375 
z
M 64.59375 17.59375 
Q 72.203125 18.40625 76.59375 19.25 
Q 81 20.09375 85.296875 20.09375 
Q 89.59375 20.09375 92.1875 18.5 
Q 94.796875 16.90625 94.796875 15.59375 
Q 94.796875 14 90.203125 14 
Q 88.09375 14 85.84375 14.34375 
Q 83.59375 14.703125 78.796875 14.703125 
Q 74 14.703125 64.203125 14.09375 
Q 64.203125 11.5 64.75 4 
Q 65.296875 -3.5 65.296875 -6.5 
Q 65.296875 -9.5 64.5 -12.203125 
Q 63.703125 -14.90625 62.546875 -14.90625 
Q 61.40625 -14.90625 60.09375 -12.90625 
Q 58.796875 -10.90625 58.796875 -9.203125 
Q 58.796875 -7.5 59.390625 -4.203125 
Q 60 -0.90625 60 4.6875 
Q 60 10.296875 59.90625 13.90625 
Q 50.203125 13.40625 43 12.5 
Q 41.09375 7.40625 39.34375 4.453125 
Q 37.59375 1.5 34.140625 -1.84375 
Q 30.703125 -5.203125 26.296875 -7.390625 
Q 21.90625 -9.59375 20.203125 -9.59375 
Q 19.40625 -9.59375 19.40625 -9.046875 
Q 19.40625 -8.5 21 -7.5 
Q 33.59375 0.796875 37.296875 11.796875 
Q 29.296875 10.796875 23.640625 9.640625 
Q 18 8.5 16.140625 8.5 
Q 14.296875 8.5 12.796875 10.09375 
Q 11.296875 11.703125 11.296875 12.203125 
Q 11.296875 12.703125 11.84375 12.796875 
Q 12.40625 12.90625 14.09375 12.90625 
Q 19.09375 12.90625 37.90625 14.703125 
Q 38 17 37.390625 18.046875 
Q 36.796875 19.09375 36.796875 19.84375 
Q 36.796875 20.59375 37.84375 20.59375 
Q 38.90625 20.59375 41.40625 19.34375 
Q 43.90625 18.09375 43.90625 16.59375 
Q 43.90625 16.09375 43.703125 15.40625 
L 59.703125 17 
Q 59.40625 19.703125 58.75 20.75 
Q 58.09375 21.796875 58.09375 22.4375 
Q 58.09375 23.09375 59.1875 23.09375 
Q 60.296875 23.09375 62.6875 22.09375 
Q 65.09375 21.09375 65.09375 19.796875 
Q 65.09375 19.703125 64.59375 17.59375 
z
" id="STKaiti-31639"/>
      <path d="M 75.796875 44.703125 
Q 80.59375 45.59375 84.296875 46.703125 
Q 87.09375 47.40625 89.59375 47.40625 
Q 92.09375 47.40625 94.546875 45.90625 
Q 97 44.40625 97 42.90625 
Q 97 41 92.59375 41 
Q 91.40625 41 90.09375 41.140625 
Q 88.796875 41.296875 86 41.296875 
Q 83.203125 41.296875 75.796875 40.703125 
Q 75.90625 30 76.40625 18.203125 
L 77.09375 1.09375 
Q 77.09375 -4.703125 74.5 -9.453125 
Q 71.90625 -14.203125 70.703125 -14.203125 
Q 69.5 -14.203125 68.203125 -12.296875 
Q 64.203125 -7 61.09375 -3.796875 
Q 58 -0.59375 58 -0.34375 
Q 58 -0.09375 58.5 -0.09375 
Q 59 -0.09375 62.453125 -1.09375 
Q 65.90625 -2.09375 67.90625 -2.09375 
Q 69.90625 -2.09375 70.34375 -0.84375 
Q 70.796875 0.40625 71.1875 9.15625 
Q 71.59375 17.90625 71.59375 26.75 
Q 71.59375 35.59375 71.5 40.203125 
Q 60.203125 38.796875 56.953125 37.890625 
Q 53.703125 37 51.75 37 
Q 49.796875 37 47.296875 37.953125 
Q 44.796875 38.90625 44.796875 39.59375 
Q 44.796875 40.296875 49.546875 40.546875 
Q 54.296875 40.796875 71.40625 43.90625 
Q 71.296875 51.703125 70.84375 58.140625 
Q 70.40625 64.59375 69.046875 66.84375 
Q 67.703125 69.09375 67.703125 70.09375 
Q 67.703125 71.09375 68.890625 71.09375 
Q 70.09375 71.09375 74.1875 69.296875 
Q 78.296875 67.5 78.296875 65.40625 
Q 78.296875 64.40625 77.5 62.40625 
Q 75.703125 58.40625 75.796875 44.703125 
z
M 22.59375 54.796875 
Q 23.796875 54.703125 24.90625 54.703125 
Q 30.203125 54.703125 35.5 57.90625 
Q 36.796875 58.59375 38.09375 58.59375 
Q 39.40625 58.59375 42.65625 56.796875 
Q 45.90625 55 45.90625 53.890625 
Q 45.90625 52.796875 44.296875 51.296875 
Q 42.296875 49.40625 42.296875 31.40625 
L 42.59375 13.203125 
Q 42.59375 6.40625 41.25 3 
Q 39.90625 -0.40625 38.953125 -0.40625 
Q 38 -0.40625 36.890625 2.390625 
Q 35.796875 5.203125 35.796875 6.5 
Q 35.203125 7.90625 34.34375 8.40625 
Q 33.5 8.90625 31.5 8.90625 
Q 29.5 8.90625 23.09375 8.09375 
Q 22.09375 1.796875 20.296875 1.796875 
Q 19.296875 1.796875 18.59375 4.390625 
Q 17.90625 7 17.90625 8.5 
Q 17.90625 10 18.59375 12.09375 
Q 19.59375 15 19.59375 29.59375 
Q 19.59375 44.203125 18.890625 48.25 
Q 18.203125 52.296875 17.5 53.34375 
Q 16.796875 54.40625 16.796875 55.25 
Q 16.796875 56.09375 18.140625 56.09375 
Q 19.5 56.09375 22.59375 54.796875 
z
M 36.703125 10.09375 
Q 38 16 38 35.59375 
Q 38 44.09375 37.796875 48.140625 
Q 37.59375 52.203125 37.046875 53.09375 
Q 36.5 54 35.09375 54 
Q 33.703125 54 30.25 53.203125 
Q 26.796875 52.40625 23.296875 52.40625 
Q 23.5 44.59375 23.5 33.296875 
Q 29.5 35.40625 31.09375 35.40625 
Q 32.703125 35.40625 33.953125 34.84375 
Q 35.203125 34.296875 35.203125 33.296875 
Q 35.203125 32.296875 31.84375 31.546875 
Q 28.5 30.796875 26.703125 30.796875 
Q 24.90625 30.796875 23.5 31.203125 
Q 23.59375 20.09375 23.40625 11.5 
Q 29.203125 12.203125 31.75 12.203125 
Q 34.296875 12.203125 36.703125 10.09375 
z
M 50 31.296875 
Q 51.59375 31.296875 55.84375 29.09375 
Q 60.09375 26.90625 60.09375 22.203125 
Q 60.09375 20.296875 59.390625 19.1875 
Q 58.703125 18.09375 57.546875 18.09375 
Q 56.40625 18.09375 55.25 19.546875 
Q 54.09375 21 51.6875 25.546875 
Q 49.296875 30.09375 49.296875 30.6875 
Q 49.296875 31.296875 50 31.296875 
z
" id="STKaiti-26102"/>
      <path d="M 27 69.203125 
Q 29.296875 69.203125 33.890625 67.046875 
Q 38.5 64.90625 38.5 60.796875 
Q 38.5 57.703125 36 57.703125 
Q 33.796875 57.703125 29.75 62.390625 
Q 25.703125 67.09375 25.703125 68.140625 
Q 25.703125 69.203125 27 69.203125 
z
M 85.90625 59.703125 
Q 85.90625 58.796875 84.5 56.84375 
Q 83.09375 54.90625 82.796875 52.453125 
Q 82.5 50 82.5 44.25 
Q 82.5 38.5 83.34375 25.390625 
Q 84.203125 12.296875 84.203125 8.40625 
Q 84.203125 -1.5 82 -6.796875 
Q 79.796875 -12.09375 78.203125 -12.09375 
Q 77.203125 -12.09375 75.640625 -9.890625 
Q 74.09375 -7.703125 71.296875 -4.640625 
Q 68.5 -1.59375 66.796875 -0.296875 
Q 65.09375 1 65.09375 1.546875 
Q 65.09375 2.09375 66.09375 2.09375 
Q 66.703125 2.09375 69.546875 1.296875 
Q 72.40625 0.5 74.046875 0.5 
Q 75.703125 0.5 76.390625 1.390625 
Q 77.09375 2.296875 77.5 5.390625 
Q 77.90625 8.5 77.90625 17.546875 
Q 77.90625 26.59375 77.5 39.890625 
Q 77.09375 53.203125 76.546875 56 
Q 76 58.796875 74.703125 60 
Q 73.40625 61.203125 71.296875 61.203125 
Q 69.203125 61.203125 66.640625 60.59375 
Q 64.09375 60 57.84375 58.84375 
Q 51.59375 57.703125 49.6875 57.703125 
Q 47.796875 57.703125 46.046875 58.953125 
Q 44.296875 60.203125 44.296875 60.953125 
Q 44.296875 61.703125 47.203125 61.703125 
Q 52.703125 61.703125 60.546875 62.953125 
Q 68.40625 64.203125 71.25 65.140625 
Q 74.09375 66.09375 75.4375 66.09375 
Q 76.796875 66.09375 81.34375 63.640625 
Q 85.90625 61.203125 85.90625 59.703125 
z
M 27.40625 51 
Q 27.40625 50.296875 27 47.84375 
Q 26.59375 45.40625 26.640625 41.296875 
Q 26.703125 37.203125 26.703125 33 
Q 26.703125 16.40625 24.953125 5.953125 
Q 23.203125 -4.5 21.203125 -4.5 
Q 20.09375 -4.5 19 -1.546875 
Q 17.90625 1.40625 17.90625 3.5 
Q 17.90625 5.59375 18.59375 7.59375 
Q 20.40625 12.5 21.09375 19.09375 
Q 21.796875 25.703125 21.796875 38.59375 
Q 21.796875 51.5 20.203125 54.296875 
Q 19.5 55.5 19.5 56.296875 
Q 19.5 57.09375 20.390625 57.09375 
Q 21.296875 57.09375 24.34375 55.140625 
Q 27.40625 53.203125 27.40625 51 
z
M 42.296875 44.203125 
Q 51 45.203125 55.203125 47.703125 
Q 56.796875 48.59375 58.4375 48.59375 
Q 60.09375 48.59375 63.140625 47.046875 
Q 66.203125 45.5 66.203125 44.203125 
Q 66.203125 43.703125 65.59375 42.90625 
Q 63.796875 40.5 63.796875 31.5 
L 64.203125 20.703125 
Q 64.203125 15.703125 62.84375 12.75 
Q 61.5 9.796875 60.25 9.796875 
Q 59 9.796875 57.40625 13.90625 
Q 56.703125 15.796875 53.046875 15.796875 
Q 49.40625 15.796875 43.203125 15.09375 
Q 42.703125 11.40625 41.40625 11.40625 
Q 39.09375 11.40625 39.09375 19.40625 
Q 39.09375 31.90625 38.6875 36.203125 
Q 38.296875 40.5 37.34375 42.25 
Q 36.40625 44 36.40625 44.796875 
Q 36.40625 45.59375 37.796875 45.59375 
Q 39.203125 45.59375 42.296875 44.203125 
z
M 43.5 18 
Q 49.59375 19.296875 51.796875 19.296875 
Q 54 19.296875 55.203125 18.890625 
Q 56.40625 18.5 57.046875 18.5 
Q 57.703125 18.5 58.046875 19.203125 
Q 58.40625 19.90625 58.703125 21.796875 
Q 59 23.703125 59 27.34375 
Q 59 31 58.640625 36.640625 
Q 58.296875 42.296875 57.25 42.75 
Q 56.203125 43.203125 54.453125 43.203125 
Q 52.703125 43.203125 43.296875 41.90625 
Q 43.5 35.296875 43.5 31.59375 
Q 50.5 33.59375 51.84375 33.59375 
Q 53.203125 33.59375 54.5 33.046875 
Q 55.796875 32.5 55.796875 31.5 
Q 55.796875 30.5 53 29.796875 
Q 50.203125 29.09375 47.59375 29.09375 
Q 45 29.09375 43.5 29.203125 
Q 43.703125 22.203125 43.5 18 
z
" id="STKaiti-38388"/>
      <path d="M 55.90625 1.296875 
L 58.796875 1.90625 
Q 61.203125 2.40625 62.203125 3.15625 
Q 63.203125 3.90625 63.203125 6.09375 
L 63.203125 24 
Q 63.203125 29.90625 60.84375 32.59375 
Q 58.5 35.296875 53.5 35.296875 
Q 46.90625 35.296875 42 29.5 
L 42 6.90625 
Q 42 4.796875 42.390625 3.75 
Q 42.796875 2.703125 44.59375 2.296875 
L 49.703125 1.203125 
L 49.703125 -0.40625 
Q 44.703125 0 39.09375 0 
Q 33.203125 0 27.703125 -0.40625 
L 27.703125 1.203125 
L 30.59375 1.90625 
Q 33.40625 2.59375 34.65625 3.4375 
Q 35.90625 4.296875 35.90625 6.40625 
L 35.90625 24.203125 
Q 35.90625 29.203125 33.5 32.203125 
Q 31.09375 35.203125 27.296875 35.203125 
Q 22.796875 35.203125 18.640625 32.546875 
Q 14.5 29.90625 14.5 27.203125 
L 14.5 6.796875 
Q 14.5 4.40625 15.140625 3.5 
Q 15.796875 2.59375 17.203125 2.296875 
L 22.296875 1.203125 
L 22.296875 -0.40625 
Q 17.296875 0 12.296875 0 
Q 7.09375 0 1.796875 -0.40625 
L 1.796875 1.203125 
L 4.703125 1.796875 
Q 6.90625 2.296875 7.65625 3.1875 
Q 8.40625 4.09375 8.40625 6.203125 
L 8.40625 27.796875 
Q 8.40625 30.296875 7.453125 31.25 
Q 6.5 32.203125 3 32.703125 
L 3 34.296875 
Q 8.09375 35.59375 12.59375 41.703125 
L 14.5 41.703125 
L 14.5 32.09375 
Q 18.90625 36.09375 22.34375 38 
Q 25.796875 39.90625 29.5 39.90625 
Q 34.203125 39.90625 36.703125 38.5 
Q 39.203125 37.09375 41.703125 32.59375 
Q 45.09375 36.09375 48.640625 38 
Q 52.203125 39.90625 56.796875 39.90625 
Q 62.703125 39.90625 66 36.34375 
Q 69.296875 32.796875 69.296875 26.203125 
L 69.296875 6 
Q 69.296875 2.296875 70.90625 2 
L 75.40625 1.203125 
L 75.40625 -0.40625 
Q 70.40625 0 65.90625 0 
Q 59.90625 0 55.90625 -0.296875 
z
" id="STKaiti-109"/>
      <path d="M 28 28.796875 
Q 27.09375 32.203125 24 34.890625 
Q 20.90625 37.59375 18.5 37.59375 
Q 11.203125 37.59375 11.203125 30.90625 
Q 11.203125 28.203125 13.59375 26.34375 
Q 16 24.5 20.90625 22.703125 
Q 32.203125 18.40625 32.203125 10.5 
Q 32.203125 5.296875 28.203125 1.84375 
Q 24.203125 -1.59375 18.296875 -1.59375 
Q 11.09375 -1.59375 6.5 1 
L 5.5 12.296875 
L 7.203125 12.296875 
Q 8.59375 7 12.09375 3.75 
Q 15.59375 0.5 19.59375 0.5 
Q 22.796875 0.5 25 2.546875 
Q 27.203125 4.59375 27.203125 7.703125 
Q 27.203125 13.40625 17.796875 16.90625 
Q 11.203125 19.40625 8.34375 22.15625 
Q 5.5 24.90625 5.5 28.90625 
Q 5.5 34 9.296875 36.953125 
Q 13.09375 39.90625 19.5 39.90625 
Q 25.203125 39.90625 29.296875 37.5 
L 29.90625 28.796875 
z
" id="STKaiti-115"/>
     </defs>
     <g transform="translate(29.659375 311.72)rotate(-90)scale(0.2 -0.2)">
      <use xlink:href="#STKaiti-36816"/>
      <use x="99.999985" xlink:href="#STKaiti-31639"/>
      <use x="199.999969" xlink:href="#STKaiti-26102"/>
      <use x="299.999954" xlink:href="#STKaiti-38388"/>
      <use x="399.999939" xlink:href="#STKaiti-40"/>
      <use x="429.199936" xlink:href="#STKaiti-109"/>
      <use x="506.299927" xlink:href="#STKaiti-115"/>
      <use x="542.799911" xlink:href="#STKaiti-41"/>
     </g>
    </g>
   </g>
   <g id="line2d_39">
    <path clip-path="url(#p2069944180)" d="M 103.827273 419.434635 
L 169.048052 434.754121 
L 234.268831 435.150756 
L 299.48961 434.2628 
L 364.71039 422.785874 
L 429.931169 379.817138 
L 495.151948 278.543238 
L 560.372727 166.965882 
" style="fill:none;stroke:#ff7f0e;stroke-linecap:square;stroke-width:1.5;"/>
   </g>
   <g id="line2d_40">
    <path clip-path="url(#p2069944180)" d="M 103.827273 419.434635 
L 169.048052 434.754121 
L 234.268831 435.150756 
L 299.48961 434.2628 
L 364.71039 422.785874 
L 429.931169 379.817138 
L 495.151948 278.543238 
L 560.372727 166.965882 
" style="fill:none;stroke:#ff7f0e;stroke-linecap:square;stroke-width:1.5;"/>
    <defs>
     <path d="M -3 3 
L 3 3 
L 3 -3 
L -3 -3 
z
" id="mcb39c69cc8" style="stroke:#ff7f0e;stroke-linejoin:miter;"/>
    </defs>
    <g clip-path="url(#p2069944180)">
     <use style="fill:#ff7f0e;stroke:#ff7f0e;stroke-linejoin:miter;" x="103.827273" xlink:href="#mcb39c69cc8" y="419.434635"/>
     <use style="fill:#ff7f0e;stroke:#ff7f0e;stroke-linejoin:miter;" x="169.048052" xlink:href="#mcb39c69cc8" y="434.754121"/>
     <use style="fill:#ff7f0e;stroke:#ff7f0e;stroke-linejoin:miter;" x="234.268831" xlink:href="#mcb39c69cc8" y="435.150756"/>
     <use style="fill:#ff7f0e;stroke:#ff7f0e;stroke-linejoin:miter;" x="299.48961" xlink:href="#mcb39c69cc8" y="434.2628"/>
     <use style="fill:#ff7f0e;stroke:#ff7f0e;stroke-linejoin:miter;" x="364.71039" xlink:href="#mcb39c69cc8" y="422.785874"/>
     <use style="fill:#ff7f0e;stroke:#ff7f0e;stroke-linejoin:miter;" x="429.931169" xlink:href="#mcb39c69cc8" y="379.817138"/>
     <use style="fill:#ff7f0e;stroke:#ff7f0e;stroke-linejoin:miter;" x="495.151948" xlink:href="#mcb39c69cc8" y="278.543238"/>
     <use style="fill:#ff7f0e;stroke:#ff7f0e;stroke-linejoin:miter;" x="560.372727" xlink:href="#mcb39c69cc8" y="166.965882"/>
    </g>
   </g>
   <g id="line2d_41">
    <path clip-path="url(#p2069944180)" d="M 103.827273 392.309717 
L 169.048052 393.494808 
L 234.268831 387.152059 
L 299.48961 400.236552 
L 364.71039 396.94006 
L 429.931169 391.49511 
L 495.151948 376.952718 
L 560.372727 382.642675 
" style="fill:none;stroke:#1f77b4;stroke-linecap:square;stroke-width:1.5;"/>
   </g>
   <g id="line2d_42">
    <path clip-path="url(#p2069944180)" d="M 103.827273 392.309717 
L 169.048052 393.494808 
L 234.268831 387.152059 
L 299.48961 400.236552 
L 364.71039 396.94006 
L 429.931169 391.49511 
L 495.151948 376.952718 
L 560.372727 382.642675 
" style="fill:none;stroke:#1f77b4;stroke-linecap:square;stroke-width:1.5;"/>
    <defs>
     <path d="M 0 -3 
L -3 3 
L 3 3 
z
" id="mef7ac88914" style="stroke:#1f77b4;stroke-linejoin:miter;"/>
    </defs>
    <g clip-path="url(#p2069944180)">
     <use style="fill:#1f77b4;stroke:#1f77b4;stroke-linejoin:miter;" x="103.827273" xlink:href="#mef7ac88914" y="392.309717"/>
     <use style="fill:#1f77b4;stroke:#1f77b4;stroke-linejoin:miter;" x="169.048052" xlink:href="#mef7ac88914" y="393.494808"/>
     <use style="fill:#1f77b4;stroke:#1f77b4;stroke-linejoin:miter;" x="234.268831" xlink:href="#mef7ac88914" y="387.152059"/>
     <use style="fill:#1f77b4;stroke:#1f77b4;stroke-linejoin:miter;" x="299.48961" xlink:href="#mef7ac88914" y="400.236552"/>
     <use style="fill:#1f77b4;stroke:#1f77b4;stroke-linejoin:miter;" x="364.71039" xlink:href="#mef7ac88914" y="396.94006"/>
     <use style="fill:#1f77b4;stroke:#1f77b4;stroke-linejoin:miter;" x="429.931169" xlink:href="#mef7ac88914" y="391.49511"/>
     <use style="fill:#1f77b4;stroke:#1f77b4;stroke-linejoin:miter;" x="495.151948" xlink:href="#mef7ac88914" y="376.952718"/>
     <use style="fill:#1f77b4;stroke:#1f77b4;stroke-linejoin:miter;" x="560.372727" xlink:href="#mef7ac88914" y="382.642675"/>
    </g>
   </g>
   <g id="patch_3">
    <path d="M 81 448.56 
L 81 60.48 
" style="fill:none;stroke:#000000;stroke-linecap:square;stroke-linejoin:miter;stroke-width:0.8;"/>
   </g>
   <g id="patch_4">
    <path d="M 583.2 448.56 
L 583.2 60.48 
" style="fill:none;stroke:#000000;stroke-linecap:square;stroke-linejoin:miter;stroke-width:0.8;"/>
   </g>
   <g id="patch_5">
    <path d="M 81 448.56 
L 583.2 448.56 
" style="fill:none;stroke:#000000;stroke-linecap:square;stroke-linejoin:miter;stroke-width:0.8;"/>
   </g>
   <g id="patch_6">
    <path d="M 81 60.48 
L 583.2 60.48 
" style="fill:none;stroke:#000000;stroke-linecap:square;stroke-linejoin:miter;stroke-width:0.8;"/>
   </g>
   <g id="legend_1">
    <g id="patch_7">
     <path d="M 464.3625 134.76125 
L 569.2 134.76125 
Q 573.2 134.76125 573.2 130.76125 
L 573.2 74.48 
Q 573.2 70.48 569.2 70.48 
L 464.3625 70.48 
Q 460.3625 70.48 460.3625 74.48 
L 460.3625 130.76125 
Q 460.3625 134.76125 464.3625 134.76125 
z
" style="fill:#ffffff;opacity:0.8;stroke:#cccccc;stroke-linejoin:miter;"/>
    </g>
    <g id="line2d_43">
     <path d="M 468.3625 85.48 
L 508.3625 85.48 
" style="fill:none;stroke:#ff7f0e;stroke-linecap:square;stroke-width:1.5;"/>
    </g>
    <g id="line2d_44">
     <g>
      <use style="fill:#ff7f0e;stroke:#ff7f0e;stroke-linejoin:miter;" x="488.3625" xlink:href="#mcb39c69cc8" y="85.48"/>
     </g>
    </g>
    <g id="text_11">
     <!-- CPU -->
     <defs>
      <path d="M 60.09375 13.796875 
Q 59 7.703125 57 0.90625 
Q 50.59375 -1.59375 38.40625 -1.59375 
Q 22.703125 -1.59375 13.5 7.046875 
Q 4.296875 15.703125 4.296875 29.90625 
Q 4.296875 38.59375 8.640625 46.5 
Q 13 54.40625 20.453125 58.953125 
Q 27.90625 63.5 36.5 63.5 
Q 45.296875 63.5 49.59375 62.703125 
Q 53.90625 61.90625 57.90625 59.40625 
Q 58.5 54.59375 58.40625 49.5 
L 56.5 49.5 
Q 54.5 55.296875 49.75 58.34375 
Q 45 61.40625 38.296875 61.40625 
Q 27.796875 61.40625 20.890625 52.75 
Q 14 44.09375 14 30.40625 
Q 14 15.59375 20.140625 8.09375 
Q 26.296875 0.59375 38.40625 0.59375 
Q 52.296875 0.59375 58.796875 13.796875 
z
" id="STKaiti-67"/>
      <path d="M 2.09375 62.5 
Q 11.796875 62.5 15.296875 62.703125 
L 29.5 63.5 
Q 31.09375 63.59375 32.59375 63.59375 
Q 43.796875 63.59375 48.6875 57.890625 
Q 53.59375 52.203125 53.59375 45.203125 
Q 53.59375 37.40625 47.9375 31.953125 
Q 42.296875 26.5 34.09375 26.5 
Q 27.796875 26.5 24.5 30.40625 
L 25.09375 31 
Q 27.703125 30.09375 30.5 30.09375 
Q 36.59375 30.09375 40.75 34.046875 
Q 44.90625 38 44.90625 44.796875 
Q 44.90625 51.40625 40.25 56.046875 
Q 35.59375 60.703125 25.59375 60.703125 
Q 22.09375 60.703125 20.296875 59.90625 
L 20.296875 6.09375 
Q 20.296875 4.59375 20.9375 3.9375 
Q 21.59375 3.296875 23.796875 2.796875 
L 31.09375 1.203125 
L 31.09375 -0.40625 
Q 22.703125 0 17.59375 0 
Q 14.09375 0 4.09375 -0.296875 
L 4.09375 1.296875 
L 9.703125 2.09375 
Q 11.203125 2.40625 11.703125 3.203125 
Q 12.203125 4 12.203125 5.90625 
L 12.203125 53.59375 
Q 12.203125 57.40625 9.84375 58.703125 
Q 7.5 60 2.09375 60.59375 
z
" id="STKaiti-80"/>
      <path d="M 28.796875 62.796875 
L 28.796875 61.203125 
L 22.5 60.40625 
Q 20.703125 60.203125 19.953125 59.046875 
Q 19.203125 57.90625 19.203125 55.40625 
L 19.203125 19.703125 
Q 19.203125 10.09375 23.203125 5.84375 
Q 27.203125 1.59375 36.296875 1.59375 
Q 48.5 1.59375 52.75 7.25 
Q 57 12.90625 57 27.59375 
L 57 55.296875 
Q 57 59.296875 52.90625 60.09375 
L 47 61.203125 
L 47 62.796875 
Q 49.40625 62.5 57.203125 62.5 
Q 65 62.5 67.5 62.796875 
L 67.5 61.203125 
L 61.703125 59.90625 
Q 59.5 59.5 59.5 55.296875 
L 59.5 25 
Q 59.5 11 54.296875 4.703125 
Q 49.09375 -1.59375 36.59375 -1.59375 
Q 24.40625 -1.59375 17.84375 3.5 
Q 11.296875 8.59375 11.296875 18.203125 
L 11.296875 55.703125 
Q 11.296875 58.09375 10.796875 59.140625 
Q 10.296875 60.203125 8.90625 60.40625 
L 1.796875 61.203125 
L 1.796875 62.796875 
Q 8.40625 62.5 15.296875 62.5 
Q 25.203125 62.5 28.796875 62.796875 
z
" id="STKaiti-85"/>
     </defs>
     <g transform="translate(524.3625 92.48)scale(0.2 -0.2)">
      <use xlink:href="#STKaiti-67"/>
      <use x="63.499985" xlink:href="#STKaiti-80"/>
      <use x="119.799973" xlink:href="#STKaiti-85"/>
     </g>
    </g>
    <g id="line2d_45">
     <path d="M 468.3625 114.620625 
L 508.3625 114.620625 
" style="fill:none;stroke:#1f77b4;stroke-linecap:square;stroke-width:1.5;"/>
    </g>
    <g id="line2d_46">
     <g>
      <use style="fill:#1f77b4;stroke:#1f77b4;stroke-linejoin:miter;" x="488.3625" xlink:href="#mef7ac88914" y="114.620625"/>
     </g>
    </g>
    <g id="text_12">
     <!-- GPU -->
     <defs>
      <path d="M 75.703125 26.09375 
L 69.203125 25.40625 
Q 67.5 25.203125 66.84375 24.59375 
Q 66.203125 24 66.203125 22.59375 
L 66.203125 11.5 
Q 66.203125 8 66 6.703125 
Q 65.796875 5.40625 65.046875 4.34375 
Q 64.296875 3.296875 60.34375 1.75 
Q 56.40625 0.203125 51.203125 -0.6875 
Q 46 -1.59375 40.40625 -1.59375 
Q 24 -1.59375 14.296875 7.09375 
Q 4.59375 15.796875 4.59375 29.796875 
Q 4.59375 44.703125 15.34375 54.09375 
Q 26.09375 63.5 43 63.5 
Q 56.296875 63.5 65.203125 58.703125 
L 66 46.703125 
L 64.59375 46.40625 
Q 58.40625 61.296875 44.59375 61.296875 
Q 30.5 61.296875 22.5 53.09375 
Q 14.5 44.90625 14.5 31 
Q 14.5 18.90625 22.75 9.84375 
Q 31 0.796875 43 0.796875 
Q 58 0.796875 58 11.5 
L 58 22.59375 
Q 58 24.09375 57.25 24.6875 
Q 56.5 25.296875 54.90625 25.40625 
L 45.296875 26.09375 
L 45.296875 27.90625 
Q 53 27.5 58 27.5 
Q 67.90625 27.5 75.703125 27.90625 
z
" id="STKaiti-71"/>
     </defs>
     <g transform="translate(524.3625 121.620625)scale(0.2 -0.2)">
      <use xlink:href="#STKaiti-71"/>
      <use x="77.099991" xlink:href="#STKaiti-80"/>
      <use x="133.399979" xlink:href="#STKaiti-85"/>
     </g>
    </g>
   </g>
  </g>
 </g>
 <defs>
  <clipPath id="p2069944180">
   <rect height="388.08" width="502.2" x="81" y="60.48"/>
  </clipPath>
 </defs>
</svg>
