<?xml version="1.0" encoding="utf-8" standalone="no"?>
<!DOCTYPE svg PUBLIC "-//W3C//DTD SVG 1.1//EN"
  "http://www.w3.org/Graphics/SVG/1.1/DTD/svg11.dtd">
<!-- Created with matplotlib (https://matplotlib.org/) -->
<svg height="504pt" version="1.1" viewBox="0 0 648 504" width="648pt" xmlns="http://www.w3.org/2000/svg" xmlns:xlink="http://www.w3.org/1999/xlink">
 <defs>
  <style type="text/css">
*{stroke-linecap:butt;stroke-linejoin:round;}
  </style>
 </defs>
 <g id="figure_1">
  <g id="patch_1">
   <path d="M 0 504 
L 648 504 
L 648 0 
L 0 0 
z
" style="fill:#ffffff;"/>
  </g>
  <g id="axes_1">
   <g id="patch_2">
    <path d="M 81 448.56 
L 583.2 448.56 
L 583.2 60.48 
L 81 60.48 
z
" style="fill:#ffffff;"/>
   </g>
   <g id="matplotlib.axis_1">
    <g id="xtick_1">
     <g id="line2d_1">
      <defs>
       <path d="M 0 0 
L 0 3.5 
" id="m0367c8524e" style="stroke:#000000;stroke-width:0.8;"/>
      </defs>
      <g>
       <use style="stroke:#000000;stroke-width:0.8;" x="103.827273" xlink:href="#m0367c8524e" y="448.56"/>
      </g>
     </g>
     <g id="text_1">
      <!-- 0 -->
      <defs>
       <path d="M 3.125 29.296875 
Q 3.90625 50 6.4375 56.046875 
Q 8.984375 62.109375 13.671875 66.015625 
Q 18.359375 69.921875 25.1875 69.921875 
Q 32.03125 69.921875 37.109375 64.25 
Q 42.1875 58.59375 43.75 50 
Q 45.3125 41.40625 44.71875 30.265625 
Q 44.140625 19.140625 40.8125 12.109375 
Q 37.5 5.078125 30.859375 2.34375 
Q 24.21875 -0.390625 17.578125 2.921875 
Q 10.9375 6.25 8.203125 11.71875 
Q 5.46875 17.1875 4.296875 23.234375 
Q 3.125 29.296875 3.90625 50 
z
M 12.890625 52.734375 
Q 10.546875 31.25 12.5 22.84375 
Q 14.453125 14.453125 18.9375 10.9375 
Q 23.4375 7.421875 28.125 9.5625 
Q 32.8125 11.71875 34.953125 18.15625 
Q 37.109375 24.609375 37.109375 32.21875 
Q 37.109375 39.84375 36.515625 46.09375 
Q 35.9375 52.34375 33 57.421875 
Q 30.078125 62.5 25.1875 62.6875 
Q 20.3125 62.890625 16.59375 57.8125 
Q 12.890625 52.734375 10.546875 31.25 
z
" id="KaiTi-48"/>
      </defs>
      <g transform="translate(99.327273 467.935)scale(0.18 -0.18)">
       <use xlink:href="#KaiTi-48"/>
      </g>
     </g>
    </g>
    <g id="xtick_2">
     <g id="line2d_2">
      <g>
       <use style="stroke:#000000;stroke-width:0.8;" x="160.895455" xlink:href="#m0367c8524e" y="448.56"/>
      </g>
     </g>
     <g id="text_2">
      <!-- 50 -->
      <defs>
       <path d="M 8.59375 20.703125 
Q 11.328125 10.15625 17.96875 8.984375 
Q 24.609375 7.8125 28.703125 10.34375 
Q 32.8125 12.890625 34.5625 16.984375 
Q 36.328125 21.09375 36.125 26.171875 
Q 35.9375 31.25 33.390625 34.765625 
Q 30.859375 38.28125 26.953125 39.453125 
Q 23.046875 40.625 18.15625 39.453125 
Q 13.28125 38.28125 10.15625 33.984375 
L 3.515625 34.765625 
Q 4.296875 37.109375 10.9375 68.359375 
L 41.796875 68.359375 
L 41.796875 61.328125 
L 16.796875 61.328125 
Q 14.84375 50.78125 12.890625 44.53125 
Q 18.75 47.265625 23.828125 47.0625 
Q 28.90625 46.875 33.59375 44.71875 
Q 38.28125 42.578125 40.421875 38.859375 
Q 42.578125 35.15625 43.546875 31.4375 
Q 44.53125 27.734375 44.328125 23.4375 
Q 44.140625 19.140625 42.578125 14.640625 
Q 41.015625 10.15625 37.890625 7.21875 
Q 34.765625 4.296875 30.265625 2.53125 
Q 25.78125 0.78125 19.921875 1.171875 
Q 14.0625 1.5625 8.78125 5.46875 
Q 3.515625 9.375 1.5625 18.75 
z
" id="KaiTi-53"/>
      </defs>
      <g transform="translate(151.895455 467.935)scale(0.18 -0.18)">
       <use xlink:href="#KaiTi-53"/>
       <use x="50" xlink:href="#KaiTi-48"/>
      </g>
     </g>
    </g>
    <g id="xtick_3">
     <g id="line2d_3">
      <g>
       <use style="stroke:#000000;stroke-width:0.8;" x="217.963636" xlink:href="#m0367c8524e" y="448.56"/>
      </g>
     </g>
     <g id="text_3">
      <!-- 100 -->
      <defs>
       <path d="M 21.875 56.25 
Q 16.796875 51.171875 8.984375 46.484375 
L 8.984375 53.90625 
Q 18.75 60.546875 25 69.53125 
L 29.6875 69.53125 
L 29.6875 2.34375 
L 21.875 2.34375 
z
" id="KaiTi-49"/>
      </defs>
      <g transform="translate(204.463636 467.935)scale(0.18 -0.18)">
       <use xlink:href="#KaiTi-49"/>
       <use x="50" xlink:href="#KaiTi-48"/>
       <use x="100" xlink:href="#KaiTi-48"/>
      </g>
     </g>
    </g>
    <g id="xtick_4">
     <g id="line2d_4">
      <g>
       <use style="stroke:#000000;stroke-width:0.8;" x="275.031818" xlink:href="#m0367c8524e" y="448.56"/>
      </g>
     </g>
     <g id="text_4">
      <!-- 150 -->
      <g transform="translate(261.531818 467.935)scale(0.18 -0.18)">
       <use xlink:href="#KaiTi-49"/>
       <use x="50" xlink:href="#KaiTi-53"/>
       <use x="100" xlink:href="#KaiTi-48"/>
      </g>
     </g>
    </g>
    <g id="xtick_5">
     <g id="line2d_5">
      <g>
       <use style="stroke:#000000;stroke-width:0.8;" x="332.1" xlink:href="#m0367c8524e" y="448.56"/>
      </g>
     </g>
     <g id="text_5">
      <!-- 200 -->
      <defs>
       <path d="M 4.6875 3.90625 
Q 5.078125 9.765625 10.15625 14.453125 
Q 15.234375 19.140625 23.046875 29.09375 
Q 30.859375 39.0625 33.203125 44.53125 
Q 35.546875 50 34.953125 53.90625 
Q 34.375 57.8125 31.25 60.34375 
Q 28.125 62.890625 24.015625 62.5 
Q 19.921875 62.109375 16.203125 59.375 
Q 12.5 56.640625 10.546875 51.171875 
L 3.125 52.34375 
Q 6.25 61.328125 11.125 65.421875 
Q 16.015625 69.53125 22.65625 69.921875 
Q 26.5625 70.3125 29.6875 69.71875 
Q 32.8125 69.140625 36.125 66.984375 
Q 39.453125 64.84375 41.59375 60.546875 
Q 43.75 56.25 43.15625 50.1875 
Q 42.578125 44.140625 37.109375 35.734375 
Q 31.640625 27.34375 16.015625 9.375 
L 44.140625 9.375 
L 44.140625 2.34375 
L 4.6875 2.34375 
z
" id="KaiTi-50"/>
      </defs>
      <g transform="translate(318.6 467.935)scale(0.18 -0.18)">
       <use xlink:href="#KaiTi-50"/>
       <use x="50" xlink:href="#KaiTi-48"/>
       <use x="100" xlink:href="#KaiTi-48"/>
      </g>
     </g>
    </g>
    <g id="xtick_6">
     <g id="line2d_6">
      <g>
       <use style="stroke:#000000;stroke-width:0.8;" x="389.168182" xlink:href="#m0367c8524e" y="448.56"/>
      </g>
     </g>
     <g id="text_6">
      <!-- 250 -->
      <g transform="translate(375.668182 467.935)scale(0.18 -0.18)">
       <use xlink:href="#KaiTi-50"/>
       <use x="50" xlink:href="#KaiTi-53"/>
       <use x="100" xlink:href="#KaiTi-48"/>
      </g>
     </g>
    </g>
    <g id="xtick_7">
     <g id="line2d_7">
      <g>
       <use style="stroke:#000000;stroke-width:0.8;" x="446.236364" xlink:href="#m0367c8524e" y="448.56"/>
      </g>
     </g>
     <g id="text_7">
      <!-- 300 -->
      <defs>
       <path d="M 3.90625 19.140625 
L 10.9375 20.3125 
Q 12.5 15.234375 16.015625 11.90625 
Q 19.53125 8.59375 24.796875 8.78125 
Q 30.078125 8.984375 33.203125 13.078125 
Q 36.328125 17.1875 35.9375 22.453125 
Q 35.546875 27.734375 31.828125 30.65625 
Q 28.125 33.59375 19.921875 34.765625 
L 19.921875 39.84375 
Q 28.125 40.625 31.828125 44.140625 
Q 35.546875 47.65625 35.15625 53.3125 
Q 34.765625 58.984375 30.078125 61.515625 
Q 25.390625 64.0625 20.109375 62.109375 
Q 14.84375 60.15625 11.71875 51.171875 
L 4.6875 52.34375 
Q 7.03125 59.375 11.125 64.0625 
Q 15.234375 68.75 22.265625 69.53125 
Q 29.296875 70.3125 34.5625 67.765625 
Q 39.84375 65.234375 41.984375 59.953125 
Q 44.140625 54.6875 42.578125 48.4375 
Q 41.015625 42.1875 33.59375 37.5 
Q 39.0625 35.15625 41.984375 30.46875 
Q 44.921875 25.78125 43.9375 18.15625 
Q 42.96875 10.546875 37.109375 5.859375 
Q 31.25 1.171875 23.828125 1.359375 
Q 16.40625 1.5625 10.9375 6.046875 
Q 5.46875 10.546875 3.90625 19.140625 
z
" id="KaiTi-51"/>
      </defs>
      <g transform="translate(432.736364 467.935)scale(0.18 -0.18)">
       <use xlink:href="#KaiTi-51"/>
       <use x="50" xlink:href="#KaiTi-48"/>
       <use x="100" xlink:href="#KaiTi-48"/>
      </g>
     </g>
    </g>
    <g id="xtick_8">
     <g id="line2d_8">
      <g>
       <use style="stroke:#000000;stroke-width:0.8;" x="503.304545" xlink:href="#m0367c8524e" y="448.56"/>
      </g>
     </g>
     <g id="text_8">
      <!-- 350 -->
      <g transform="translate(489.804545 467.935)scale(0.18 -0.18)">
       <use xlink:href="#KaiTi-51"/>
       <use x="50" xlink:href="#KaiTi-53"/>
       <use x="100" xlink:href="#KaiTi-48"/>
      </g>
     </g>
    </g>
    <g id="xtick_9">
     <g id="line2d_9">
      <g>
       <use style="stroke:#000000;stroke-width:0.8;" x="560.372727" xlink:href="#m0367c8524e" y="448.56"/>
      </g>
     </g>
     <g id="text_9">
      <!-- 400 -->
      <defs>
       <path d="M 31.25 17.1875 
L 1.171875 17.1875 
L 1.171875 23.828125 
L 32.8125 69.53125 
L 38.671875 69.53125 
L 38.671875 23.828125 
L 48.046875 23.828125 
L 48.046875 17.1875 
L 38.671875 17.1875 
L 38.671875 2.34375 
L 31.25 2.34375 
z
M 31.25 23.828125 
L 31.25 54.6875 
L 9.375 23.828125 
z
" id="KaiTi-52"/>
      </defs>
      <g transform="translate(546.872727 467.935)scale(0.18 -0.18)">
       <use xlink:href="#KaiTi-52"/>
       <use x="50" xlink:href="#KaiTi-48"/>
       <use x="100" xlink:href="#KaiTi-48"/>
      </g>
     </g>
    </g>
    <g id="text_10">
     <!-- 回合数 -->
     <defs>
      <path d="M 25.78125 13.671875 
Q 25.390625 9.765625 24.21875 8.984375 
Q 23.046875 8.203125 21.875 12.109375 
Q 20.703125 16.015625 20.109375 23.234375 
Q 19.53125 30.46875 17.765625 42.765625 
Q 16.015625 55.078125 13.671875 59.171875 
Q 11.328125 63.28125 14.453125 62.6875 
Q 17.578125 62.109375 20.109375 61.515625 
Q 22.65625 60.9375 45.3125 63.671875 
Q 67.96875 66.40625 71.671875 67.765625 
Q 75.390625 69.140625 78.90625 67.765625 
Q 82.421875 66.40625 86.125 63.46875 
Q 89.84375 60.546875 86.90625 57.609375 
Q 83.984375 54.6875 82.609375 39.0625 
Q 81.25 23.4375 80.078125 17.375 
Q 78.90625 11.328125 75.78125 6.640625 
Q 72.65625 1.953125 70.890625 6.046875 
Q 69.140625 10.15625 68.546875 12.6875 
Q 67.96875 15.234375 61.90625 15.625 
Q 55.859375 16.015625 47.65625 15.234375 
Q 39.453125 14.453125 25.78125 13.671875 
z
M 22.265625 57.8125 
Q 23.828125 39.84375 25.390625 17.1875 
Q 50 19.140625 57.609375 20.3125 
Q 65.234375 21.484375 68.359375 18.9375 
Q 71.484375 16.40625 72.84375 19.53125 
Q 74.21875 22.65625 75.390625 30.859375 
Q 76.5625 39.0625 77.140625 49.796875 
Q 77.734375 60.546875 74.609375 62.296875 
Q 71.484375 64.0625 48.828125 60.9375 
z
M 60.15625 35.9375 
Q 63.671875 31.640625 59.953125 31.4375 
Q 56.25 31.25 41.40625 29.6875 
Q 40.234375 24.21875 38.859375 27.734375 
Q 37.5 31.25 36.125 37.109375 
Q 34.765625 42.96875 33 45.5 
Q 31.25 48.046875 32.8125 48.046875 
Q 34.765625 48.046875 37.109375 47.453125 
Q 39.453125 46.875 46.28125 48.4375 
Q 53.125 50 55.078125 51.359375 
Q 57.03125 52.734375 59.765625 51.75 
Q 62.5 50.78125 64.84375 48.828125 
Q 67.1875 46.875 65.03125 44.921875 
Q 62.890625 42.96875 60.15625 35.9375 
z
M 41.015625 33.203125 
Q 50 34.375 56.640625 35.546875 
Q 57.421875 42.578125 57.03125 44.71875 
Q 56.640625 46.875 52.921875 46.28125 
Q 49.21875 45.703125 39.84375 43.75 
Q 40.234375 38.671875 41.015625 33.203125 
z
" id="KaiTi-22238"/>
      <path d="M 61.71875 3.90625 
Q 67.578125 -1.953125 61.125 -2.140625 
Q 54.6875 -2.34375 34.765625 -3.515625 
Q 32.421875 -8.984375 31.25 -6.4375 
Q 30.078125 -3.90625 29.09375 1.5625 
Q 28.125 7.03125 27.140625 11.125 
Q 26.171875 15.234375 24.015625 18.359375 
Q 21.875 21.484375 25.1875 21.09375 
Q 28.515625 20.703125 30.46875 20.109375 
Q 32.421875 19.53125 37.890625 20.109375 
Q 43.359375 20.703125 48.234375 21.671875 
Q 53.125 22.65625 55.46875 24.21875 
Q 57.8125 25.78125 62.296875 23.828125 
Q 66.796875 21.875 69.53125 19.140625 
Q 72.265625 16.40625 68.546875 14.25 
Q 64.84375 12.109375 61.71875 3.90625 
z
M 48.828125 67.96875 
Q 53.125 63.671875 58.59375 58.78125 
Q 64.0625 53.90625 69.328125 49.015625 
Q 74.609375 44.140625 80.65625 40.625 
Q 86.71875 37.109375 93.546875 34.953125 
Q 100.390625 32.8125 92.375 32.21875 
Q 84.375 31.640625 78.703125 32.03125 
Q 73.046875 32.421875 70.5 36.515625 
Q 67.96875 40.625 61.515625 48.4375 
Q 55.078125 56.25 47.65625 65.625 
Q 42.96875 57.421875 38.078125 50 
Q 33.203125 42.578125 25.390625 35.34375 
Q 17.578125 28.125 9.765625 25.1875 
Q 1.953125 22.265625 9.171875 27.140625 
Q 16.40625 32.03125 24.796875 41.59375 
Q 33.203125 51.171875 38.078125 61.328125 
Q 42.96875 71.484375 42.1875 75.1875 
Q 41.40625 78.90625 44.71875 77.734375 
Q 48.046875 76.5625 50.1875 74.609375 
Q 52.34375 72.65625 51.171875 71.28125 
Q 50 69.921875 48.828125 67.96875 
z
M 32.8125 16.40625 
Q 33.59375 5.859375 33.984375 0 
Q 45.703125 1.5625 56.25 3.125 
Q 57.421875 9.375 57.609375 13.859375 
Q 57.8125 18.359375 55.265625 18.546875 
Q 52.734375 18.75 47.84375 18.15625 
Q 42.96875 17.578125 32.8125 16.40625 
z
M 38.28125 37.890625 
Q 48.828125 39.84375 52.53125 41.40625 
Q 56.25 42.96875 59.375 40.421875 
Q 62.5 37.890625 59.5625 36.71875 
Q 56.640625 35.546875 52.34375 34.953125 
Q 48.046875 34.375 41.796875 33.59375 
Q 35.546875 32.8125 31.828125 34.953125 
Q 28.125 37.109375 38.28125 37.890625 
z
" id="KaiTi-21512"/>
      <path d="M 64.0625 20.3125 
Q 66.796875 25.390625 67.375 31.046875 
Q 67.96875 36.71875 67.578125 42.578125 
Q 64.453125 42.1875 60.546875 42.578125 
Q 55.859375 37.109375 51.953125 34.765625 
Q 48.046875 32.421875 52.921875 38.46875 
Q 57.8125 44.53125 61.125 54.484375 
Q 64.453125 64.453125 64.0625 66.796875 
Q 63.671875 69.140625 63.46875 70.890625 
Q 63.28125 72.65625 68.15625 70.109375 
Q 73.046875 67.578125 71.28125 65.234375 
Q 69.53125 62.890625 67.765625 58 
Q 66.015625 53.125 61.328125 44.53125 
Q 70.703125 46.484375 76.75 49.40625 
Q 82.8125 52.34375 86.125 50.1875 
Q 89.453125 48.046875 85.15625 46.484375 
Q 80.859375 44.921875 69.140625 42.578125 
Q 75 40.625 73.625 36.71875 
Q 72.265625 32.8125 71.28125 27.734375 
Q 70.3125 22.65625 67.578125 16.015625 
Q 71.09375 11.71875 75.578125 8 
Q 80.078125 4.296875 84.953125 2.34375 
Q 89.84375 0.390625 93.359375 -0.96875 
Q 96.875 -2.34375 89.640625 -2.921875 
Q 82.421875 -3.515625 78.703125 -2.921875 
Q 75 -2.34375 73.234375 0.390625 
Q 71.484375 3.125 64.453125 12.5 
Q 60.9375 8.59375 57.421875 6.25 
Q 53.90625 3.90625 49.609375 2.734375 
Q 45.3125 1.5625 49.40625 4.09375 
Q 53.515625 6.640625 56.640625 9.765625 
Q 59.765625 12.890625 62.109375 16.40625 
Q 59.375 21.09375 56.828125 24.40625 
Q 54.296875 27.734375 52.53125 29.6875 
Q 50.78125 31.640625 52.921875 31.828125 
Q 55.078125 32.03125 56.4375 30.46875 
Q 57.8125 28.90625 64.0625 20.3125 
z
M 40.234375 25 
Q 41.015625 27.34375 40.8125 29.09375 
Q 40.625 30.859375 42.96875 29.296875 
Q 45.3125 27.734375 46.28125 26.5625 
Q 47.265625 25.390625 46.28125 23.4375 
Q 45.3125 21.484375 43.75 17.375 
Q 42.1875 13.28125 39.453125 8.59375 
Q 42.1875 6.640625 44.328125 4.6875 
Q 46.484375 2.734375 45.703125 -0.96875 
Q 44.921875 -4.6875 42.375 -1.5625 
Q 39.84375 1.5625 36.328125 4.296875 
Q 30.078125 -0.390625 24.796875 -2.34375 
Q 19.53125 -4.296875 14.25 -4.6875 
Q 8.984375 -5.078125 13.28125 -3.3125 
Q 17.578125 -1.5625 22.65625 0.78125 
Q 27.734375 3.125 32.03125 7.421875 
Q 27.34375 10.9375 25.578125 11.71875 
Q 23.828125 12.5 24.796875 14.0625 
Q 25.78125 15.625 26.5625 19.53125 
Q 16.40625 18.359375 13.46875 16.59375 
Q 10.546875 14.84375 6.640625 17.96875 
Q 2.734375 21.09375 7.8125 20.890625 
Q 12.890625 20.703125 27.734375 23.046875 
Q 28.90625 28.125 28.125 31.046875 
Q 27.34375 33.984375 31.640625 31.828125 
Q 35.9375 29.6875 35.15625 28.515625 
Q 34.375 27.34375 32.421875 23.828125 
z
M 44.921875 53.515625 
Q 48.828125 54.296875 50.390625 52.921875 
Q 51.953125 51.5625 48.4375 50.390625 
Q 44.921875 49.21875 36.71875 48.046875 
L 36.71875 44.921875 
Q 43.359375 44.140625 46.484375 41.984375 
Q 49.609375 39.84375 48.625 36.71875 
Q 47.65625 33.59375 43.9375 37.6875 
Q 40.234375 41.796875 36.71875 43.75 
Q 36.71875 39.0625 35.9375 35.734375 
Q 35.15625 32.421875 33.390625 35.34375 
Q 31.640625 38.28125 32.21875 40.625 
Q 32.8125 42.96875 32.421875 46.09375 
Q 23.046875 33.984375 15.234375 30.265625 
Q 7.421875 26.5625 11.90625 30.078125 
Q 16.40625 33.59375 21.28125 38.671875 
Q 26.171875 43.75 28.125 47.65625 
Q 22.65625 45.703125 20.5 45.3125 
Q 18.359375 44.921875 15.234375 47.0625 
Q 12.109375 49.21875 16.40625 49.015625 
Q 20.703125 48.828125 32.8125 51.171875 
L 32.8125 65.234375 
Q 32.8125 73.4375 31.4375 75.578125 
Q 30.078125 77.734375 31.046875 77.921875 
Q 32.03125 78.125 35.9375 76.359375 
Q 39.84375 74.609375 38.46875 72.265625 
Q 37.109375 69.921875 37.109375 51.953125 
z
M 35.15625 10.546875 
Q 38.28125 14.453125 40.234375 22.265625 
L 31.25 20.703125 
Q 28.515625 14.453125 28.703125 13.671875 
Q 28.90625 12.890625 30.265625 12.5 
Q 31.640625 12.109375 35.15625 10.546875 
z
M 50.78125 66.796875 
Q 53.90625 64.84375 51.5625 63.859375 
Q 49.21875 62.890625 43.15625 58.390625 
Q 37.109375 53.90625 40.625 58.390625 
Q 44.140625 62.890625 45.3125 66.203125 
Q 46.484375 69.53125 47.265625 69.140625 
Q 48.046875 68.75 50.78125 66.796875 
z
M 24.21875 56.25 
Q 21.09375 60.546875 20.109375 62.5 
Q 19.140625 64.453125 24.015625 63.28125 
Q 28.90625 62.109375 28.3125 57.21875 
Q 27.734375 52.34375 24.21875 56.25 
z
" id="KaiTi-25968"/>
     </defs>
     <g transform="translate(305.1 487.755313)scale(0.18 -0.18)">
      <use xlink:href="#KaiTi-22238"/>
      <use x="100" xlink:href="#KaiTi-21512"/>
      <use x="200" xlink:href="#KaiTi-25968"/>
     </g>
    </g>
   </g>
   <g id="matplotlib.axis_2">
    <g id="ytick_1">
     <g id="line2d_10">
      <defs>
       <path d="M 0 0 
L -3.5 0 
" id="m47fad524cf" style="stroke:#000000;stroke-width:0.8;"/>
      </defs>
      <g>
       <use style="stroke:#000000;stroke-width:0.8;" x="81" xlink:href="#m47fad524cf" y="430.92"/>
      </g>
     </g>
     <g id="text_11">
      <!-- 0 -->
      <g transform="translate(65 437.1075)scale(0.18 -0.18)">
       <use xlink:href="#KaiTi-48"/>
      </g>
     </g>
    </g>
    <g id="ytick_2">
     <g id="line2d_11">
      <g>
       <use style="stroke:#000000;stroke-width:0.8;" x="81" xlink:href="#m47fad524cf" y="360.36"/>
      </g>
     </g>
     <g id="text_12">
      <!-- 5 -->
      <g transform="translate(65 366.5475)scale(0.18 -0.18)">
       <use xlink:href="#KaiTi-53"/>
      </g>
     </g>
    </g>
    <g id="ytick_3">
     <g id="line2d_12">
      <g>
       <use style="stroke:#000000;stroke-width:0.8;" x="81" xlink:href="#m47fad524cf" y="289.8"/>
      </g>
     </g>
     <g id="text_13">
      <!-- 10 -->
      <g transform="translate(56 295.9875)scale(0.18 -0.18)">
       <use xlink:href="#KaiTi-49"/>
       <use x="50" xlink:href="#KaiTi-48"/>
      </g>
     </g>
    </g>
    <g id="ytick_4">
     <g id="line2d_13">
      <g>
       <use style="stroke:#000000;stroke-width:0.8;" x="81" xlink:href="#m47fad524cf" y="219.24"/>
      </g>
     </g>
     <g id="text_14">
      <!-- 15 -->
      <g transform="translate(56 225.4275)scale(0.18 -0.18)">
       <use xlink:href="#KaiTi-49"/>
       <use x="50" xlink:href="#KaiTi-53"/>
      </g>
     </g>
    </g>
    <g id="ytick_5">
     <g id="line2d_14">
      <g>
       <use style="stroke:#000000;stroke-width:0.8;" x="81" xlink:href="#m47fad524cf" y="148.68"/>
      </g>
     </g>
     <g id="text_15">
      <!-- 20 -->
      <g transform="translate(56 154.8675)scale(0.18 -0.18)">
       <use xlink:href="#KaiTi-50"/>
       <use x="50" xlink:href="#KaiTi-48"/>
      </g>
     </g>
    </g>
    <g id="ytick_6">
     <g id="line2d_15">
      <g>
       <use style="stroke:#000000;stroke-width:0.8;" x="81" xlink:href="#m47fad524cf" y="78.12"/>
      </g>
     </g>
     <g id="text_16">
      <!-- 25 -->
      <g transform="translate(56 84.3075)scale(0.18 -0.18)">
       <use xlink:href="#KaiTi-50"/>
       <use x="50" xlink:href="#KaiTi-53"/>
      </g>
     </g>
    </g>
    <g id="text_17">
     <!-- 每20次的平均得分 -->
     <defs>
      <path d="M 68.75 37.109375 
Q 78.515625 37.890625 84.953125 38.671875 
Q 91.40625 39.453125 94.53125 35.734375 
Q 97.65625 32.03125 93.75 32.21875 
Q 89.84375 32.421875 84.171875 32.609375 
Q 78.515625 32.8125 68.359375 32.8125 
Q 67.96875 22.65625 67.1875 16.796875 
Q 70.703125 16.796875 76.359375 15.8125 
Q 82.03125 14.84375 83 11.125 
Q 83.984375 7.421875 79.296875 8.984375 
Q 74.609375 10.546875 66.796875 12.109375 
Q 64.453125 -0.78125 59.5625 -6.25 
Q 54.6875 -11.71875 52.734375 -7.8125 
Q 50.78125 -3.90625 46.28125 -0.96875 
Q 41.796875 1.953125 47.84375 0.78125 
Q 53.90625 -0.390625 56.25 1.359375 
Q 58.59375 3.125 60.15625 12.890625 
Q 38.28125 14.0625 31.828125 12.890625 
Q 25.390625 11.71875 22.453125 9.953125 
Q 19.53125 8.203125 18.359375 11.90625 
Q 17.1875 15.625 21.09375 17.1875 
Q 25 18.75 30.859375 30.078125 
Q 16.796875 28.90625 13.078125 28.125 
Q 9.375 27.34375 5.859375 30.265625 
Q 2.34375 33.203125 7.8125 33 
Q 13.28125 32.8125 32.8125 34.375 
Q 37.890625 47.65625 36.328125 51.5625 
Q 34.765625 55.46875 36.515625 55.265625 
Q 38.28125 55.078125 40.234375 54.09375 
Q 42.1875 53.125 48.828125 53.90625 
Q 55.46875 54.6875 58.59375 56.640625 
Q 61.71875 58.59375 64.640625 57.21875 
Q 67.578125 55.859375 69.921875 53.90625 
Q 72.265625 51.953125 70.5 49.609375 
Q 68.75 47.265625 68.75 37.109375 
z
M 36.328125 30.46875 
Q 30.859375 19.53125 29.296875 17.1875 
Q 46.484375 17.578125 60.9375 17.1875 
Q 61.71875 21.875 62.5 32.421875 
L 36.328125 30.46875 
z
M 62.5 36.71875 
Q 62.890625 50.390625 61.515625 51.359375 
Q 60.15625 52.34375 55.65625 51.5625 
Q 51.171875 50.78125 42.578125 50 
Q 40.625 43.359375 37.890625 34.765625 
Q 50 35.546875 62.5 36.71875 
z
M 44.140625 68.359375 
Q 57.8125 69.140625 64.84375 71.671875 
Q 71.875 74.21875 75.390625 72.265625 
Q 78.90625 70.3125 75 68.75 
Q 71.09375 67.1875 63.46875 66.015625 
Q 55.859375 64.84375 51.359375 64.640625 
Q 46.875 64.453125 42.96875 66.40625 
Q 32.03125 55.46875 26.5625 53.3125 
Q 21.09375 51.171875 25.78125 55.265625 
Q 30.46875 59.375 36.71875 67.375 
Q 42.96875 75.390625 42.578125 78.515625 
Q 42.1875 81.640625 45.109375 80.46875 
Q 48.046875 79.296875 49.796875 77.734375 
Q 51.5625 76.171875 49.796875 75 
Q 48.046875 73.828125 44.140625 68.359375 
z
M 45.3125 27.734375 
Q 44.140625 30.46875 48.046875 28.90625 
Q 51.953125 27.34375 52.34375 25 
Q 52.734375 22.65625 51.5625 20.703125 
Q 50.390625 18.75 48.625 21.875 
Q 46.875 25 45.3125 27.734375 
z
M 46.484375 45.3125 
Q 45.3125 48.046875 48.4375 47.0625 
Q 51.5625 46.09375 52.921875 44.328125 
Q 54.296875 42.578125 53.3125 39.84375 
Q 52.34375 37.109375 50 40.03125 
Q 47.65625 42.96875 46.484375 45.3125 
z
" id="KaiTi-27599"/>
      <path d="M 50.78125 30.078125 
Q 58.203125 20.703125 65.234375 14.25 
Q 72.265625 7.8125 77.921875 5.859375 
Q 83.59375 3.90625 89.640625 2.34375 
Q 95.703125 0.78125 93.359375 -0.390625 
Q 91.015625 -1.5625 80.46875 -2.34375 
Q 69.921875 -3.125 65.8125 2.53125 
Q 61.71875 8.203125 49.609375 26.953125 
Q 46.484375 14.0625 40.8125 8 
Q 35.15625 1.953125 25.578125 -0.578125 
Q 16.015625 -3.125 23.4375 0.390625 
Q 30.859375 3.90625 35.734375 9.765625 
Q 40.625 15.625 42.375 21.09375 
Q 44.140625 26.5625 44.71875 30.46875 
Q 45.3125 34.375 43.9375 36.515625 
Q 42.578125 38.671875 45.3125 38.28125 
Q 48.046875 37.890625 50.390625 36.71875 
Q 52.734375 35.546875 51.75 34.375 
Q 50.78125 33.203125 50.78125 30.078125 
z
M 47.65625 48.4375 
Q 53.125 48.828125 58.984375 50.78125 
Q 64.84375 52.734375 67.765625 54.484375 
Q 70.703125 56.25 74.015625 55.078125 
Q 77.34375 53.90625 80.65625 51.171875 
Q 83.984375 48.4375 78.515625 46.875 
Q 73.046875 45.3125 67.578125 40.234375 
Q 62.109375 35.15625 64.25 39.453125 
Q 66.40625 43.75 67.1875 46.09375 
Q 67.96875 48.4375 65.421875 48.234375 
Q 62.890625 48.046875 56.640625 46.28125 
Q 50.390625 44.53125 46.875 46.484375 
Q 42.1875 39.453125 37.890625 36.71875 
Q 33.59375 33.984375 37.890625 40.03125 
Q 42.1875 46.09375 46.09375 57.421875 
Q 50 68.75 48.625 72.84375 
Q 47.265625 76.953125 50.390625 75.96875 
Q 53.515625 75 56.046875 73.046875 
Q 58.59375 71.09375 57.21875 69.53125 
Q 55.859375 67.96875 53.703125 62.5 
Q 51.5625 57.03125 47.65625 48.4375 
z
M 26.953125 34.765625 
Q 32.03125 40.625 29.296875 34.953125 
Q 26.5625 29.296875 22.453125 23.046875 
Q 18.359375 16.796875 15.421875 10.15625 
Q 12.5 3.515625 9.171875 9.375 
Q 5.859375 15.234375 8 15.8125 
Q 10.15625 16.40625 16.015625 22.65625 
Q 21.875 28.90625 26.953125 34.765625 
z
M 17.1875 53.515625 
Q 14.84375 56.640625 13.46875 58.984375 
Q 12.109375 61.328125 18.15625 59.5625 
Q 24.21875 57.8125 25.96875 54.09375 
Q 27.734375 50.390625 26.5625 47.65625 
Q 25.390625 44.921875 22.453125 47.65625 
Q 19.53125 50.390625 17.1875 53.515625 
z
" id="KaiTi-27425"/>
      <path d="M 20.3125 47.65625 
Q 29.6875 49.21875 32.421875 51.5625 
Q 35.15625 53.90625 38.078125 52.53125 
Q 41.015625 51.171875 43.359375 49.609375 
Q 45.703125 48.046875 44.328125 45.890625 
Q 42.96875 43.75 42.1875 40.234375 
Q 41.40625 36.71875 41.796875 27.34375 
Q 42.1875 17.96875 41.203125 13.28125 
Q 40.234375 8.59375 39.0625 6.046875 
Q 37.890625 3.515625 36.515625 6.046875 
Q 35.15625 8.59375 33.984375 10.734375 
Q 32.8125 12.890625 31.4375 13.078125 
Q 30.078125 13.28125 20.3125 11.71875 
Q 18.75 3.125 16.984375 6.640625 
Q 15.234375 10.15625 15.234375 16.40625 
Q 15.234375 22.65625 14.84375 32.03125 
Q 14.453125 41.40625 12.109375 44.921875 
Q 9.765625 48.4375 11.71875 48.4375 
Q 13.671875 48.4375 17.1875 47.65625 
Q 20.703125 52.34375 24.40625 60.34375 
Q 28.125 68.359375 26.75 72.265625 
Q 25.390625 76.171875 31.25 73.4375 
Q 38.28125 70.3125 35.734375 68.15625 
Q 33.203125 66.015625 30.078125 61.328125 
Q 26.953125 56.640625 20.3125 47.65625 
z
M 59.375 51.171875 
Q 73.4375 51.953125 76.171875 53.90625 
Q 78.90625 55.859375 82.21875 54.484375 
Q 85.546875 53.125 87.6875 50.96875 
Q 89.84375 48.828125 87.890625 46.875 
Q 85.9375 44.921875 85.15625 36.71875 
Q 84.375 28.515625 83.78125 20.3125 
Q 83.203125 12.109375 80.46875 6.4375 
Q 77.734375 0.78125 72.65625 -2.140625 
Q 67.578125 -5.078125 67.1875 -0.78125 
Q 66.796875 3.515625 62.296875 8.59375 
Q 57.8125 13.671875 62.6875 11.125 
Q 67.578125 8.59375 70.5 8 
Q 73.4375 7.421875 75.578125 12.5 
Q 77.734375 17.578125 78.515625 26.75 
Q 79.296875 35.9375 79.296875 42.1875 
Q 79.296875 48.4375 77.734375 49.40625 
Q 76.171875 50.390625 71.09375 49.21875 
L 63.28125 47.265625 
Q 60.9375 46.875 58.203125 49.21875 
Q 51.5625 42.1875 46.09375 38.671875 
Q 40.625 35.15625 46.875 42.1875 
Q 53.125 49.21875 58.390625 59.375 
Q 63.671875 69.53125 62.296875 73.625 
Q 60.9375 77.734375 64.84375 76.5625 
Q 68.75 75.390625 70.890625 73.828125 
Q 73.046875 72.265625 71.28125 70.3125 
Q 69.53125 68.359375 66.984375 63.28125 
Q 64.453125 58.203125 59.375 51.171875 
z
M 19.53125 30.859375 
Q 24.609375 31.640625 26.5625 32.609375 
Q 28.515625 33.59375 30.65625 31.828125 
Q 32.8125 30.078125 29.09375 28.703125 
Q 25.390625 27.34375 19.53125 27.34375 
L 19.921875 14.84375 
Q 23.4375 15.234375 26.953125 16.59375 
Q 30.46875 17.96875 32.21875 16.203125 
Q 33.984375 14.453125 34.953125 16.984375 
Q 35.9375 19.53125 36.125 31.25 
Q 36.328125 42.96875 35.15625 44.71875 
Q 33.984375 46.484375 31.4375 46.28125 
Q 28.90625 46.09375 19.140625 44.140625 
L 19.53125 30.859375 
z
M 58.203125 26.171875 
Q 53.125 33.203125 52.140625 35.15625 
Q 51.171875 37.109375 55.859375 35.734375 
Q 60.546875 34.375 62.890625 31.25 
Q 65.234375 28.125 64.25 23.828125 
Q 63.28125 19.53125 58.203125 26.171875 
z
" id="KaiTi-30340"/>
      <path d="M 50.390625 66.796875 
Q 56.25 63.28125 54.875 61.71875 
Q 53.515625 60.15625 53.515625 38.671875 
Q 76.171875 41.015625 82.21875 41.40625 
Q 88.28125 41.796875 91.40625 39.0625 
Q 94.53125 36.328125 92.375 35.34375 
Q 90.234375 34.375 83.984375 34.765625 
Q 77.734375 35.15625 69.140625 35.34375 
Q 60.546875 35.546875 53.515625 34.765625 
Q 53.90625 11.328125 52.53125 0.96875 
Q 51.171875 -9.375 49.609375 -10.734375 
Q 48.046875 -12.109375 48.046875 -2.734375 
L 48.046875 34.375 
Q 31.25 32.8125 24.796875 31.4375 
Q 18.359375 30.078125 15.234375 29.875 
Q 12.109375 29.6875 8.78125 32.609375 
Q 5.46875 35.546875 10.15625 35.34375 
Q 14.84375 35.15625 48.046875 38.28125 
Q 48.046875 61.71875 46.875 66.015625 
Q 44.921875 66.40625 41.40625 66.40625 
Q 38.28125 66.40625 35.34375 67.96875 
Q 32.421875 69.53125 35.9375 70.109375 
Q 39.453125 70.703125 43.546875 71.28125 
Q 47.65625 71.875 51.953125 72.84375 
Q 56.25 73.828125 62.109375 74.609375 
Q 67.96875 75.390625 69.71875 73.234375 
Q 71.484375 71.09375 65.03125 69.328125 
Q 58.59375 67.578125 50.390625 66.796875 
z
M 66.40625 59.765625 
Q 65.625 62.890625 72.265625 59.171875 
Q 78.90625 55.46875 74.796875 53.703125 
Q 70.703125 51.953125 67.375 49.015625 
Q 64.0625 46.09375 59.5625 43.15625 
Q 55.078125 40.234375 59.171875 45.3125 
Q 63.28125 50.390625 65.234375 53.703125 
Q 67.1875 57.03125 66.40625 59.765625 
z
M 27.734375 53.90625 
Q 26.5625 57.421875 31.640625 54.484375 
Q 36.71875 51.5625 37.109375 47.65625 
Q 37.5 43.75 35.34375 42.765625 
Q 33.203125 41.796875 31.25 46.09375 
Q 29.296875 50.390625 27.734375 53.90625 
z
" id="KaiTi-24179"/>
      <path d="M 56.640625 53.90625 
Q 60.9375 53.515625 67.1875 54.875 
Q 73.4375 56.25 75 57.21875 
Q 76.5625 58.203125 79.296875 57.421875 
Q 82.03125 56.640625 85.34375 54.6875 
Q 88.671875 52.734375 86.71875 50.96875 
Q 84.765625 49.21875 85.15625 39.0625 
Q 85.546875 28.90625 84.765625 18.75 
Q 83.984375 8.59375 81.828125 3.703125 
Q 79.6875 -1.171875 75.390625 -4.6875 
Q 71.09375 -8.203125 69.71875 -4.296875 
Q 68.359375 -0.390625 63.671875 3.90625 
Q 58.984375 8.203125 63.859375 6.4375 
Q 68.75 4.6875 71.28125 4.484375 
Q 73.828125 4.296875 76.359375 10.34375 
Q 78.90625 16.40625 79.296875 29.875 
Q 79.6875 43.359375 78.3125 48.4375 
Q 76.953125 53.515625 70.3125 52.34375 
Q 63.671875 51.171875 61.328125 50.390625 
Q 58.984375 49.609375 55.078125 51.953125 
Q 50.78125 45.703125 45.5 42.1875 
Q 40.234375 38.671875 45.3125 45.5 
Q 50.390625 52.34375 54.484375 61.71875 
Q 58.59375 71.09375 57.8125 75.1875 
Q 57.03125 79.296875 60.546875 78.125 
Q 64.0625 76.953125 66.59375 74.796875 
Q 69.140625 72.65625 67.1875 71.484375 
Q 65.234375 70.3125 62.6875 65.625 
Q 60.15625 60.9375 56.640625 53.90625 
z
M 30.859375 48.4375 
Q 34.765625 49.609375 37.5 50.1875 
Q 40.234375 50.78125 40.8125 49.21875 
Q 41.40625 47.65625 38.859375 46.09375 
Q 36.328125 44.53125 30.859375 42.578125 
Q 30.46875 33.984375 30.46875 26.953125 
Q 36.71875 30.46875 39.84375 32.421875 
Q 42.96875 34.375 41.796875 32.421875 
Q 40.625 30.46875 36.71875 27.34375 
Q 32.8125 24.21875 26.171875 18.9375 
Q 19.53125 13.671875 17.578125 10.546875 
Q 15.625 7.421875 10.9375 11.515625 
Q 6.25 15.625 9.171875 16.015625 
Q 12.109375 16.40625 15.421875 18.15625 
Q 18.75 19.921875 26.171875 25 
L 26.171875 41.40625 
Q 22.65625 40.625 20.3125 40.625 
Q 17.96875 40.625 15.234375 41.984375 
Q 12.5 43.359375 16.796875 44.328125 
Q 21.09375 45.3125 26.171875 46.875 
Q 26.171875 51.953125 25.78125 59.171875 
Q 25.390625 66.40625 23.046875 70.109375 
Q 20.703125 73.828125 24.21875 73.234375 
Q 27.734375 72.65625 30.859375 70.890625 
Q 33.984375 69.140625 32.421875 66.796875 
Q 30.859375 64.453125 30.859375 48.4375 
z
M 65.234375 25.78125 
Q 73.4375 29.296875 70.109375 26.359375 
Q 66.796875 23.4375 60.15625 18.75 
Q 53.515625 14.0625 51.5625 12.109375 
Q 49.609375 10.15625 45.3125 14.0625 
Q 41.015625 17.96875 45.109375 18.359375 
Q 49.21875 18.75 53.3125 20.5 
Q 57.421875 22.265625 65.234375 25.78125 
z
M 53.125 38.28125 
Q 48.828125 42.578125 54.875 41.984375 
Q 60.9375 41.40625 63.28125 39.0625 
Q 65.625 36.71875 64.84375 34.5625 
Q 64.0625 32.421875 60.9375 33.203125 
Q 57.8125 33.984375 53.125 38.28125 
z
" id="KaiTi-22343"/>
      <path d="M 50.78125 70.703125 
Q 63.671875 72.65625 67.375 73.4375 
Q 71.09375 74.21875 73.046875 75.1875 
Q 75 76.171875 78.125 75 
Q 81.25 73.828125 83.984375 72.0625 
Q 86.71875 70.3125 84.5625 67.96875 
Q 82.421875 65.625 80.46875 60.734375 
Q 78.515625 55.859375 76.75 52.34375 
Q 75 48.828125 73.046875 51.5625 
Q 69.140625 51.171875 55.078125 48.828125 
Q 53.515625 44.921875 51.75 49.21875 
Q 50 53.515625 47.453125 60.15625 
Q 44.921875 66.796875 42.96875 69.140625 
Q 41.015625 71.484375 42.96875 71.484375 
Q 44.921875 71.484375 50.78125 70.703125 
z
M 68.359375 39.0625 
Q 72.265625 36.328125 71.875 34.765625 
Q 71.484375 33.203125 71.484375 30.46875 
Q 78.515625 31.640625 84.5625 32.8125 
Q 90.625 33.984375 93.9375 30.46875 
Q 97.265625 26.953125 91.015625 27.53125 
Q 84.765625 28.125 71.875 26.5625 
Q 72.65625 14.0625 73.046875 7.21875 
Q 73.4375 0.390625 72.265625 -2.921875 
Q 71.09375 -6.25 68.359375 -8.984375 
Q 65.625 -11.71875 63.671875 -8 
Q 61.71875 -4.296875 56.25 -1.75 
Q 50.78125 0.78125 56.828125 0 
Q 62.890625 -0.78125 65.03125 -0.390625 
Q 67.1875 0 67.375 7.03125 
Q 67.578125 14.0625 66.796875 25.78125 
Q 44.921875 23.4375 41.796875 22.453125 
Q 38.671875 21.484375 34.5625 24.015625 
Q 30.46875 26.5625 35.34375 26.75 
Q 40.234375 26.953125 47.453125 27.734375 
Q 54.6875 28.515625 66.015625 29.6875 
Q 65.625 34.765625 64.0625 38.28125 
Q 58.203125 37.5 54.6875 37.109375 
Q 51.171875 36.71875 48.046875 38.859375 
Q 44.921875 41.015625 48.4375 41.015625 
Q 52.34375 41.015625 60.546875 42.578125 
Q 68.75 44.53125 71.484375 45.109375 
Q 74.21875 45.703125 76.953125 44.328125 
Q 79.6875 42.96875 77.34375 41.59375 
Q 75 40.234375 68.359375 39.0625 
z
M 26.171875 37.5 
Q 27.34375 33.984375 27.140625 28.90625 
Q 26.953125 23.828125 27.140625 14.25 
Q 27.34375 4.6875 25.390625 -0.390625 
Q 23.4375 -5.46875 21.484375 -0.78125 
Q 19.53125 3.90625 21.28125 9.5625 
Q 23.046875 15.234375 22.65625 33.59375 
Q 19.53125 29.296875 15.8125 25.96875 
Q 12.109375 22.65625 7.8125 20.3125 
Q 3.515625 17.96875 6.640625 21.28125 
Q 9.765625 24.609375 12.6875 27.921875 
Q 15.625 31.25 20.703125 38.859375 
Q 25.78125 46.484375 27.34375 49.609375 
Q 28.90625 52.734375 28.90625 55.078125 
Q 28.90625 57.8125 33.203125 54.6875 
Q 37.890625 51.171875 35.546875 49.609375 
Q 33.203125 48.046875 26.171875 37.5 
z
M 50.78125 67.578125 
Q 51.5625 64.453125 52.34375 61.71875 
Q 59.375 63.28125 62.6875 64.0625 
Q 66.015625 64.84375 67.765625 63.46875 
Q 69.53125 62.109375 63.46875 60.34375 
Q 57.421875 58.59375 52.734375 58.984375 
Q 53.90625 54.296875 54.6875 51.5625 
Q 65.625 53.515625 73.4375 54.6875 
Q 74.609375 62.109375 75.1875 66.59375 
Q 75.78125 71.09375 74.015625 71.28125 
Q 72.265625 71.484375 66.203125 70.5 
Q 60.15625 69.53125 50.78125 67.578125 
z
M 33.984375 73.4375 
Q 38.28125 69.140625 35.734375 67.96875 
Q 33.203125 66.796875 29.875 63.671875 
Q 26.5625 60.546875 22.453125 57.21875 
Q 18.359375 53.90625 14.640625 52.34375 
Q 10.9375 50.78125 15.03125 54.296875 
Q 19.140625 57.8125 24.21875 64.453125 
Q 29.296875 71.09375 29.484375 74.21875 
Q 29.6875 77.34375 33.984375 73.4375 
z
M 47.65625 18.75 
Q 45.703125 23.046875 49.21875 21.671875 
Q 52.734375 20.3125 55.078125 17.375 
Q 57.421875 14.453125 55.65625 10.9375 
Q 53.90625 7.421875 51.75 10.9375 
Q 49.609375 14.453125 47.65625 18.75 
z
" id="KaiTi-24471"/>
      <path d="M 66.40625 37.890625 
Q 72.265625 33.984375 69.71875 31.640625 
Q 67.1875 29.296875 65.625 25 
Q 64.453125 9.765625 60.9375 3.125 
Q 57.421875 -3.515625 51.953125 -6.046875 
Q 46.484375 -8.59375 46.28125 -4.6875 
Q 46.09375 -0.78125 43.15625 3.3125 
Q 40.234375 7.421875 42.765625 6.25 
Q 45.3125 5.078125 50 3.125 
Q 54.296875 3.125 56.828125 10.34375 
Q 59.375 17.578125 59.765625 23.625 
Q 60.15625 29.6875 59.765625 32.421875 
Q 59.375 35.15625 56.4375 34.953125 
Q 53.515625 34.765625 40.625 32.421875 
Q 45.703125 30.078125 43.75 27.734375 
Q 41.796875 25.390625 40.8125 22.65625 
Q 39.84375 19.921875 35.34375 13.46875 
Q 30.859375 7.03125 25 2.53125 
Q 19.140625 -1.953125 14.84375 -2.53125 
Q 10.546875 -3.125 13.859375 -1.171875 
Q 17.1875 0.78125 22.265625 5.46875 
Q 27.34375 10.15625 32.03125 18.15625 
Q 36.71875 26.171875 35.9375 31.25 
Q 32.421875 30.46875 29.296875 29.484375 
Q 26.171875 28.515625 22.65625 31.25 
Q 19.53125 33.59375 25 33.78125 
Q 30.46875 33.984375 42.96875 35.9375 
Q 54.296875 37.890625 57.21875 39.84375 
Q 60.15625 41.796875 66.40625 37.890625 
z
M 43.359375 79.296875 
Q 49.21875 79.296875 51.953125 74.796875 
Q 54.6875 70.3125 61.71875 62.890625 
Q 68.75 55.46875 75.390625 49.796875 
Q 82.03125 44.140625 90.03125 41.015625 
Q 98.046875 37.890625 94.71875 37.109375 
Q 91.40625 36.328125 82.8125 36.71875 
Q 74.21875 37.109375 72.265625 39.84375 
Q 70.3125 42.578125 65.421875 49.609375 
Q 60.546875 56.640625 57.21875 61.125 
Q 53.90625 65.625 50.78125 69.921875 
Q 47.65625 74.21875 45.5 75.390625 
Q 43.359375 76.5625 41.984375 76.953125 
Q 40.625 77.34375 40.234375 78.3125 
Q 39.84375 79.296875 43.359375 79.296875 
z
M 36.71875 55.859375 
Q 31.25 47.65625 25.578125 42.1875 
Q 19.921875 36.71875 14.84375 33.390625 
Q 9.765625 30.078125 7.421875 29.484375 
Q 5.078125 28.90625 7.421875 31.046875 
Q 9.765625 33.203125 14.84375 37.6875 
Q 19.921875 42.1875 25 49.40625 
Q 30.078125 56.640625 30.65625 59.765625 
Q 31.25 62.890625 30.65625 64.84375 
Q 30.078125 66.796875 32.03125 66.796875 
Q 33.984375 66.796875 38.46875 65.03125 
Q 42.96875 63.28125 40.625 61.125 
Q 38.28125 58.984375 36.71875 55.859375 
z
" id="KaiTi-20998"/>
     </defs>
     <g transform="translate(49.75 326.52)rotate(-90)scale(0.18 -0.18)">
      <use xlink:href="#KaiTi-27599"/>
      <use x="100" xlink:href="#KaiTi-50"/>
      <use x="150" xlink:href="#KaiTi-48"/>
      <use x="200" xlink:href="#KaiTi-27425"/>
      <use x="300" xlink:href="#KaiTi-30340"/>
      <use x="400" xlink:href="#KaiTi-24179"/>
      <use x="500" xlink:href="#KaiTi-22343"/>
      <use x="600" xlink:href="#KaiTi-24471"/>
      <use x="700" xlink:href="#KaiTi-20998"/>
     </g>
    </g>
   </g>
   <g id="line2d_16">
    <path clip-path="url(#p202fe859a3)" d="M 103.827273 430.92 
L 126.654545 329.3136 
L 149.481818 387.1728 
L 172.309091 336.3696 
L 195.136364 119.0448 
L 217.963636 315.9072 
L 240.790909 244.6416 
L 263.618182 310.2624 
L 286.445455 179.7264 
L 309.272727 246.7584 
L 332.1 79.5312 
L 354.927273 356.832 
L 377.754545 78.12 
L 400.581818 233.352 
L 423.409091 78.12 
L 446.236364 167.7312 
L 469.063636 78.12 
L 491.890909 232.6464 
L 514.718182 78.12 
L 537.545455 78.12 
L 560.372727 78.12 
" style="fill:none;stroke:#1f77b4;stroke-linecap:square;stroke-width:1.5;"/>
   </g>
   <g id="line2d_17">
    <defs>
     <path d="M -3 3 
L 3 3 
L 3 -3 
L -3 -3 
z
" id="m3751030603" style="stroke:#ff7f0e;stroke-linejoin:miter;"/>
    </defs>
    <g clip-path="url(#p202fe859a3)">
     <use style="fill:#ff7f0e;stroke:#ff7f0e;stroke-linejoin:miter;" x="103.827273" xlink:href="#m3751030603" y="430.92"/>
     <use style="fill:#ff7f0e;stroke:#ff7f0e;stroke-linejoin:miter;" x="126.654545" xlink:href="#m3751030603" y="329.3136"/>
     <use style="fill:#ff7f0e;stroke:#ff7f0e;stroke-linejoin:miter;" x="149.481818" xlink:href="#m3751030603" y="387.1728"/>
     <use style="fill:#ff7f0e;stroke:#ff7f0e;stroke-linejoin:miter;" x="172.309091" xlink:href="#m3751030603" y="336.3696"/>
     <use style="fill:#ff7f0e;stroke:#ff7f0e;stroke-linejoin:miter;" x="195.136364" xlink:href="#m3751030603" y="119.0448"/>
     <use style="fill:#ff7f0e;stroke:#ff7f0e;stroke-linejoin:miter;" x="217.963636" xlink:href="#m3751030603" y="315.9072"/>
     <use style="fill:#ff7f0e;stroke:#ff7f0e;stroke-linejoin:miter;" x="240.790909" xlink:href="#m3751030603" y="244.6416"/>
     <use style="fill:#ff7f0e;stroke:#ff7f0e;stroke-linejoin:miter;" x="263.618182" xlink:href="#m3751030603" y="310.2624"/>
     <use style="fill:#ff7f0e;stroke:#ff7f0e;stroke-linejoin:miter;" x="286.445455" xlink:href="#m3751030603" y="179.7264"/>
     <use style="fill:#ff7f0e;stroke:#ff7f0e;stroke-linejoin:miter;" x="309.272727" xlink:href="#m3751030603" y="246.7584"/>
     <use style="fill:#ff7f0e;stroke:#ff7f0e;stroke-linejoin:miter;" x="332.1" xlink:href="#m3751030603" y="79.5312"/>
     <use style="fill:#ff7f0e;stroke:#ff7f0e;stroke-linejoin:miter;" x="354.927273" xlink:href="#m3751030603" y="356.832"/>
     <use style="fill:#ff7f0e;stroke:#ff7f0e;stroke-linejoin:miter;" x="377.754545" xlink:href="#m3751030603" y="78.12"/>
     <use style="fill:#ff7f0e;stroke:#ff7f0e;stroke-linejoin:miter;" x="400.581818" xlink:href="#m3751030603" y="233.352"/>
     <use style="fill:#ff7f0e;stroke:#ff7f0e;stroke-linejoin:miter;" x="423.409091" xlink:href="#m3751030603" y="78.12"/>
     <use style="fill:#ff7f0e;stroke:#ff7f0e;stroke-linejoin:miter;" x="446.236364" xlink:href="#m3751030603" y="167.7312"/>
     <use style="fill:#ff7f0e;stroke:#ff7f0e;stroke-linejoin:miter;" x="469.063636" xlink:href="#m3751030603" y="78.12"/>
     <use style="fill:#ff7f0e;stroke:#ff7f0e;stroke-linejoin:miter;" x="491.890909" xlink:href="#m3751030603" y="232.6464"/>
     <use style="fill:#ff7f0e;stroke:#ff7f0e;stroke-linejoin:miter;" x="514.718182" xlink:href="#m3751030603" y="78.12"/>
     <use style="fill:#ff7f0e;stroke:#ff7f0e;stroke-linejoin:miter;" x="537.545455" xlink:href="#m3751030603" y="78.12"/>
     <use style="fill:#ff7f0e;stroke:#ff7f0e;stroke-linejoin:miter;" x="560.372727" xlink:href="#m3751030603" y="78.12"/>
    </g>
   </g>
   <g id="patch_3">
    <path d="M 81 448.56 
L 81 60.48 
" style="fill:none;stroke:#000000;stroke-linecap:square;stroke-linejoin:miter;stroke-width:0.8;"/>
   </g>
   <g id="patch_4">
    <path d="M 583.2 448.56 
L 583.2 60.48 
" style="fill:none;stroke:#000000;stroke-linecap:square;stroke-linejoin:miter;stroke-width:0.8;"/>
   </g>
   <g id="patch_5">
    <path d="M 81 448.56 
L 583.2 448.56 
" style="fill:none;stroke:#000000;stroke-linecap:square;stroke-linejoin:miter;stroke-width:0.8;"/>
   </g>
   <g id="patch_6">
    <path d="M 81 60.48 
L 583.2 60.48 
" style="fill:none;stroke:#000000;stroke-linecap:square;stroke-linejoin:miter;stroke-width:0.8;"/>
   </g>
  </g>
 </g>
 <defs>
  <clipPath id="p202fe859a3">
   <rect height="388.08" width="502.2" x="81" y="60.48"/>
  </clipPath>
 </defs>
</svg>
