<?xml version="1.0" encoding="utf-8" standalone="no"?>
<!DOCTYPE svg PUBLIC "-//W3C//DTD SVG 1.1//EN"
  "http://www.w3.org/Graphics/SVG/1.1/DTD/svg11.dtd">
<!-- Created with matplotlib (https://matplotlib.org/) -->
<svg height="345.6pt" version="1.1" viewBox="0 0 460.8 345.6" width="460.8pt" xmlns="http://www.w3.org/2000/svg" xmlns:xlink="http://www.w3.org/1999/xlink">
 <defs>
  <style type="text/css">
*{stroke-linecap:butt;stroke-linejoin:round;}
  </style>
 </defs>
 <g id="figure_1">
  <g id="patch_1">
   <path d="M 0 345.6 
L 460.8 345.6 
L 460.8 0 
L 0 0 
z
" style="fill:#ffffff;"/>
  </g>
  <g id="axes_1">
   <g id="patch_2">
    <path d="M 57.6 307.584 
L 414.72 307.584 
L 414.72 41.472 
L 57.6 41.472 
z
" style="fill:#ffffff;"/>
   </g>
   <g id="matplotlib.axis_1">
    <g id="xtick_1">
     <g id="line2d_1">
      <defs>
       <path d="M 0 0 
L 0 3.5 
" id="ma8ea763a74" style="stroke:#000000;stroke-width:0.8;"/>
      </defs>
      <g>
       <use style="stroke:#000000;stroke-width:0.8;" x="73.832727" xlink:href="#ma8ea763a74" y="307.584"/>
      </g>
     </g>
     <g id="text_1">
      <!-- 0 -->
      <defs>
       <path d="M 23.703125 63.5 
Q 32 63.5 38.046875 54.140625 
Q 44.09375 44.796875 44.09375 30.90625 
Q 44.09375 17.09375 38.046875 7.75 
Q 32 -1.59375 23.703125 -1.59375 
Q 15.703125 -1.59375 9.5 7.65625 
Q 3.296875 16.90625 3.296875 30.90625 
Q 3.296875 44.796875 9.34375 54.140625 
Q 15.40625 63.5 23.703125 63.5 
z
M 23.703125 0.703125 
Q 31.09375 0.703125 33.9375 8.046875 
Q 36.796875 15.40625 36.796875 30.90625 
Q 36.796875 46.40625 33.9375 53.796875 
Q 31.09375 61.203125 23.703125 61.203125 
Q 16.296875 61.203125 13.4375 53.796875 
Q 10.59375 46.40625 10.59375 30.90625 
Q 10.59375 0.703125 23.703125 0.703125 
z
" id="STKaiti-48"/>
      </defs>
      <g transform="translate(70.080227 325.144)scale(0.16 -0.16)">
       <use xlink:href="#STKaiti-48"/>
      </g>
     </g>
    </g>
    <g id="xtick_2">
     <g id="line2d_2">
      <g>
       <use style="stroke:#000000;stroke-width:0.8;" x="143.801379" xlink:href="#ma8ea763a74" y="307.584"/>
      </g>
     </g>
     <g id="text_2">
      <!-- 500 -->
      <defs>
       <path d="M 38 56.59375 
L 24 56.59375 
Q 16.203125 56.59375 15.40625 56.296875 
L 14.09375 38 
Q 18.5 40.09375 23.09375 40.09375 
Q 31.296875 40.09375 37 34.5 
Q 42.703125 28.90625 42.703125 19.90625 
Q 42.703125 9.90625 35.640625 4.15625 
Q 28.59375 -1.59375 19.59375 -1.59375 
Q 14.59375 -1.59375 10.390625 0.15625 
Q 6.203125 1.90625 6.203125 4 
Q 6.203125 5 7.09375 6.046875 
Q 8 7.09375 9.59375 7.09375 
Q 10.703125 7.09375 11.40625 6.59375 
Q 18.40625 1.296875 22.703125 1.296875 
Q 28.296875 1.296875 32.59375 6.140625 
Q 36.90625 11 36.90625 17.59375 
Q 36.90625 24.59375 32.546875 29.25 
Q 28.203125 33.90625 21.796875 33.90625 
Q 19 33.90625 16.546875 33 
Q 14.09375 32.09375 13 30.5 
L 11.296875 30.5 
L 13.203125 62.5 
L 24.09375 62.5 
Q 31.59375 62.5 34 62.703125 
Q 36.40625 62.90625 37.40625 64.203125 
L 38.90625 64.203125 
z
" id="STKaiti-53"/>
      </defs>
      <g transform="translate(132.543879 325.144)scale(0.16 -0.16)">
       <use xlink:href="#STKaiti-53"/>
       <use x="46.899994" xlink:href="#STKaiti-48"/>
       <use x="93.799988" xlink:href="#STKaiti-48"/>
      </g>
     </g>
    </g>
    <g id="xtick_3">
     <g id="line2d_3">
      <g>
       <use style="stroke:#000000;stroke-width:0.8;" x="213.770031" xlink:href="#ma8ea763a74" y="307.584"/>
      </g>
     </g>
     <g id="text_3">
      <!-- 1000 -->
      <defs>
       <path d="M 35.5 -0.296875 
Q 30.296875 0 23.796875 0 
Q 17.296875 0 12.09375 -0.296875 
L 12.09375 1.296875 
L 17.296875 2.203125 
Q 20.796875 2.90625 20.796875 6.09375 
L 20.796875 55.5 
L 8.90625 47.796875 
L 7.5 49.703125 
Q 14.40625 54.203125 24.09375 63.5 
L 27.40625 63.5 
L 27.40625 6.09375 
Q 27.40625 2.703125 30.90625 2.09375 
L 35.5 1.296875 
z
" id="STKaiti-49"/>
      </defs>
      <g transform="translate(198.760031 325.144)scale(0.16 -0.16)">
       <use xlink:href="#STKaiti-49"/>
       <use x="46.899994" xlink:href="#STKaiti-48"/>
       <use x="93.799988" xlink:href="#STKaiti-48"/>
       <use x="140.699982" xlink:href="#STKaiti-48"/>
      </g>
     </g>
    </g>
    <g id="xtick_4">
     <g id="line2d_4">
      <g>
       <use style="stroke:#000000;stroke-width:0.8;" x="283.738683" xlink:href="#ma8ea763a74" y="307.584"/>
      </g>
     </g>
     <g id="text_4">
      <!-- 1500 -->
      <g transform="translate(268.728683 325.144)scale(0.16 -0.16)">
       <use xlink:href="#STKaiti-49"/>
       <use x="46.899994" xlink:href="#STKaiti-53"/>
       <use x="93.799988" xlink:href="#STKaiti-48"/>
       <use x="140.699982" xlink:href="#STKaiti-48"/>
      </g>
     </g>
    </g>
    <g id="xtick_5">
     <g id="line2d_5">
      <g>
       <use style="stroke:#000000;stroke-width:0.8;" x="353.707335" xlink:href="#ma8ea763a74" y="307.584"/>
      </g>
     </g>
     <g id="text_5">
      <!-- 2000 -->
      <defs>
       <path d="M 42.59375 -0.296875 
Q 35.40625 0 22.203125 0 
Q 9.296875 0 2.203125 -0.296875 
Q 4.09375 3.59375 7 7.09375 
Q 9.90625 10.59375 16.296875 17 
Q 25.59375 26.296875 29.890625 32.84375 
Q 34.203125 39.40625 34.203125 46.09375 
Q 34.203125 51.59375 30.75 55 
Q 27.296875 58.40625 22.203125 58.40625 
Q 17.203125 58.40625 13.09375 54.953125 
Q 9 51.5 7.40625 45.203125 
L 5.09375 45.59375 
Q 6.703125 54.09375 11.796875 58.796875 
Q 16.90625 63.5 24.203125 63.5 
Q 31.5 63.5 36.59375 58.640625 
Q 41.703125 53.796875 41.703125 47 
Q 41.703125 40.203125 36.953125 34.25 
Q 32.203125 28.296875 22.59375 19.40625 
Q 17.5 14.703125 9.90625 5.296875 
L 33.40625 5.296875 
Q 37.203125 5.296875 38.75 6.640625 
Q 40.296875 8 42 12.5 
L 44.09375 12.5 
z
" id="STKaiti-50"/>
      </defs>
      <g transform="translate(338.697335 325.144)scale(0.16 -0.16)">
       <use xlink:href="#STKaiti-50"/>
       <use x="46.899994" xlink:href="#STKaiti-48"/>
       <use x="93.799988" xlink:href="#STKaiti-48"/>
       <use x="140.699982" xlink:href="#STKaiti-48"/>
      </g>
     </g>
    </g>
    <g id="text_6">
     <!-- Step -->
     <defs>
      <path d="M 37.59375 47.703125 
Q 34.703125 60.796875 23.203125 60.796875 
Q 17.796875 60.796875 14.140625 57.6875 
Q 10.5 54.59375 10.5 50.40625 
Q 10.5 47.09375 13.453125 44.296875 
Q 16.40625 41.5 25.703125 36.703125 
Q 35.203125 31.796875 39.453125 28.09375 
Q 43.703125 24.40625 43.703125 17.09375 
Q 43.703125 8.703125 37.84375 3.546875 
Q 32 -1.59375 21.5 -1.59375 
Q 11.796875 -1.59375 3.796875 3.09375 
L 4.90625 18 
L 6.296875 18 
Q 7.203125 10.59375 12.296875 5.84375 
Q 17.40625 1.09375 23.59375 1.09375 
Q 29.5 1.09375 33.546875 4.59375 
Q 37.59375 8.09375 37.59375 13 
Q 37.59375 17.40625 34.34375 20.40625 
Q 31.09375 23.40625 23.59375 27.296875 
Q 13.203125 32.703125 9.09375 37.09375 
Q 5 41.5 5 47.203125 
Q 5 54.296875 10.5 58.890625 
Q 16 63.5 24.796875 63.5 
Q 33.59375 63.5 39.296875 59.09375 
L 38.90625 47.703125 
z
" id="STKaiti-83"/>
      <path d="M 15.296875 48.203125 
L 16.5 48.203125 
L 16.59375 37.5 
L 30.203125 37.796875 
L 30.203125 34.203125 
L 16.59375 33.796875 
L 16.59375 10 
Q 16.59375 5.5 17.84375 3.5 
Q 19.09375 1.5 21.90625 1.5 
Q 25.296875 1.5 30.09375 4.296875 
L 31 2.90625 
Q 28.90625 0.5 26.15625 -0.546875 
Q 23.40625 -1.59375 18.703125 -1.59375 
Q 13.5 -1.59375 11.890625 0.953125 
Q 10.296875 3.5 10.296875 11 
L 10.296875 33.59375 
L 4.90625 33.5 
Q 3.5 33.5 3.5 34.296875 
Q 3.5 35 4.796875 35.59375 
Q 9.09375 37.40625 11.046875 39.75 
Q 13 42.09375 15.296875 48.203125 
z
" id="STKaiti-116"/>
      <path d="M 38.703125 25.09375 
L 10.796875 25.09375 
Q 10.5 23.09375 10.5 21.09375 
Q 10.5 13.296875 14.75 8.390625 
Q 19 3.5 26.296875 3.5 
Q 29.796875 3.5 32.6875 4.890625 
Q 35.59375 6.296875 39 9.5 
L 39.40625 7.09375 
Q 32.40625 -1.59375 21.296875 -1.59375 
Q 14 -1.59375 9.09375 4.296875 
Q 4.203125 10.203125 4.203125 18.59375 
Q 4.203125 27.796875 9.640625 33.84375 
Q 15.09375 39.90625 23.5 39.90625 
Q 29.90625 39.90625 34.15625 35.84375 
Q 38.40625 31.796875 38.703125 25.09375 
z
M 11.296875 27.203125 
L 29.5 27.203125 
Q 32.203125 27.203125 32.203125 29.296875 
Q 32.203125 31.40625 30.203125 34.5 
Q 28.203125 37.59375 23.09375 37.59375 
Q 18.703125 37.59375 15.5 34.75 
Q 12.296875 31.90625 11.296875 27.203125 
z
" id="STKaiti-101"/>
      <path d="M 13.90625 33.703125 
Q 22.59375 39.90625 30.703125 39.90625 
Q 38.203125 39.90625 42.796875 34.546875 
Q 47.40625 29.203125 47.40625 20.203125 
Q 47.40625 11.09375 41.296875 4.75 
Q 35.203125 -1.59375 25.703125 -1.59375 
Q 20 -1.59375 13.90625 1.296875 
L 13.90625 -19.90625 
Q 13.90625 -21.203125 14.75 -21.953125 
Q 15.59375 -22.703125 18.09375 -23.09375 
L 24.09375 -24.09375 
L 24.09375 -25.703125 
Q 20.203125 -25.296875 12.59375 -25.296875 
Q 6.296875 -25.296875 1.203125 -25.703125 
L 1.203125 -24.09375 
L 5.40625 -23.296875 
Q 6.90625 -23 7.34375 -22.34375 
Q 7.796875 -21.703125 7.796875 -19.796875 
L 7.796875 30.296875 
Q 7.796875 33.90625 6.5 34.09375 
L 1.59375 34.90625 
L 1.90625 36.296875 
Q 6.90625 38.40625 8.953125 39.796875 
Q 11 41.203125 12.40625 43.5 
L 13.90625 43.5 
z
M 13.90625 30.703125 
L 13.90625 8.796875 
Q 13.90625 5.203125 17.203125 2.84375 
Q 20.5 0.5 25.703125 0.5 
Q 32.09375 0.5 36.296875 5.25 
Q 40.5 10 40.5 16.796875 
Q 40.5 25.5 36.796875 30.390625 
Q 33.09375 35.296875 26.90625 35.296875 
Q 20.796875 35.296875 13.90625 30.703125 
z
" id="STKaiti-112"/>
     </defs>
     <g transform="translate(222.575 343.8165)scale(0.16 -0.16)">
      <use xlink:href="#STKaiti-83"/>
      <use x="47.899994" xlink:href="#STKaiti-116"/>
      <use x="77.099991" xlink:href="#STKaiti-101"/>
      <use x="118.799988" xlink:href="#STKaiti-112"/>
     </g>
    </g>
   </g>
   <g id="matplotlib.axis_2">
    <g id="ytick_1">
     <g id="line2d_6">
      <defs>
       <path d="M 0 0 
L -3.5 0 
" id="m3d90ca7f01" style="stroke:#000000;stroke-width:0.8;"/>
      </defs>
      <g>
       <use style="stroke:#000000;stroke-width:0.8;" x="57.6" xlink:href="#m3d90ca7f01" y="298.752177"/>
      </g>
     </g>
     <g id="text_7">
      <!-- 0.1 -->
      <defs>
       <path d="M 11 -1.59375 
Q 8.796875 -1.59375 7.296875 -0.09375 
Q 5.796875 1.40625 5.796875 3.59375 
Q 5.796875 5.796875 7.296875 7.296875 
Q 8.796875 8.796875 11 8.796875 
Q 13.203125 8.796875 14.703125 7.296875 
Q 16.203125 5.796875 16.203125 3.59375 
Q 16.203125 1.40625 14.703125 -0.09375 
Q 13.203125 -1.59375 11 -1.59375 
z
" id="STKaiti-46"/>
      </defs>
      <g transform="translate(32.085 304.032177)scale(0.16 -0.16)">
       <use xlink:href="#STKaiti-48"/>
       <use x="46.899994" xlink:href="#STKaiti-46"/>
       <use x="68.799988" xlink:href="#STKaiti-49"/>
      </g>
     </g>
    </g>
    <g id="ytick_2">
     <g id="line2d_7">
      <g>
       <use style="stroke:#000000;stroke-width:0.8;" x="57.6" xlink:href="#m3d90ca7f01" y="261.65926"/>
      </g>
     </g>
     <g id="text_8">
      <!-- 0.2 -->
      <g transform="translate(32.085 266.93926)scale(0.16 -0.16)">
       <use xlink:href="#STKaiti-48"/>
       <use x="46.899994" xlink:href="#STKaiti-46"/>
       <use x="68.799988" xlink:href="#STKaiti-50"/>
      </g>
     </g>
    </g>
    <g id="ytick_3">
     <g id="line2d_8">
      <g>
       <use style="stroke:#000000;stroke-width:0.8;" x="57.6" xlink:href="#m3d90ca7f01" y="224.566344"/>
      </g>
     </g>
     <g id="text_9">
      <!-- 0.3 -->
      <defs>
       <path d="M 9.40625 48.90625 
L 7.59375 49.90625 
Q 10.5 56.796875 14.59375 60.140625 
Q 18.703125 63.5 24.90625 63.5 
Q 30.5 63.5 34.296875 60.296875 
Q 38.09375 57.09375 38.09375 53.203125 
Q 38.09375 49.296875 35.4375 45.796875 
Q 32.796875 42.296875 27.203125 38.09375 
Q 34.5 38.59375 38.890625 33.796875 
Q 43.296875 29 43.296875 21.5 
Q 43.296875 11.796875 36.390625 5.09375 
Q 29.5 -1.59375 18.796875 -1.59375 
Q 11.90625 -1.59375 8.296875 0.046875 
Q 4.703125 1.703125 4.703125 3.90625 
Q 4.703125 4.90625 5.640625 5.75 
Q 6.59375 6.59375 7.703125 6.59375 
Q 9.40625 6.59375 11.59375 4.796875 
Q 17.203125 0.59375 21.09375 0.59375 
Q 27.203125 0.59375 31.84375 5.890625 
Q 36.5 11.203125 36.5 18.796875 
Q 36.5 25.203125 33.34375 29.34375 
Q 30.203125 33.5 25.40625 33.5 
Q 21.703125 33.5 17.796875 30.09375 
L 16.703125 32 
Q 18.703125 33.796875 21.09375 35.59375 
Q 32.09375 43.703125 32.09375 49.296875 
Q 32.09375 53.40625 29.34375 55.90625 
Q 26.59375 58.40625 22.5 58.40625 
Q 18.5 58.40625 14.953125 55.953125 
Q 11.40625 53.5 9.40625 48.90625 
z
" id="STKaiti-51"/>
      </defs>
      <g transform="translate(32.085 229.846344)scale(0.16 -0.16)">
       <use xlink:href="#STKaiti-48"/>
       <use x="46.899994" xlink:href="#STKaiti-46"/>
       <use x="68.799988" xlink:href="#STKaiti-51"/>
      </g>
     </g>
    </g>
    <g id="ytick_4">
     <g id="line2d_9">
      <g>
       <use style="stroke:#000000;stroke-width:0.8;" x="57.6" xlink:href="#m3d90ca7f01" y="187.473428"/>
      </g>
     </g>
     <g id="text_10">
      <!-- 0.4 -->
      <defs>
       <path d="M 32.59375 63.5 
L 35 63.5 
L 35 22 
L 45.59375 22 
L 45.59375 17.40625 
L 35 17.40625 
L 35 -1.59375 
L 28.40625 -1.59375 
L 28.40625 17.40625 
L 2.796875 17.40625 
L 2.796875 20.703125 
L 14.703125 38.09375 
z
M 28.40625 22 
L 28.40625 52.703125 
Q 14.796875 33.796875 7.59375 22 
z
" id="STKaiti-52"/>
      </defs>
      <g transform="translate(32.085 192.753428)scale(0.16 -0.16)">
       <use xlink:href="#STKaiti-48"/>
       <use x="46.899994" xlink:href="#STKaiti-46"/>
       <use x="68.799988" xlink:href="#STKaiti-52"/>
      </g>
     </g>
    </g>
    <g id="ytick_5">
     <g id="line2d_10">
      <g>
       <use style="stroke:#000000;stroke-width:0.8;" x="57.6" xlink:href="#m3d90ca7f01" y="150.380511"/>
      </g>
     </g>
     <g id="text_11">
      <!-- 0.5 -->
      <g transform="translate(32.085 155.660511)scale(0.16 -0.16)">
       <use xlink:href="#STKaiti-48"/>
       <use x="46.899994" xlink:href="#STKaiti-46"/>
       <use x="68.799988" xlink:href="#STKaiti-53"/>
      </g>
     </g>
    </g>
    <g id="ytick_6">
     <g id="line2d_11">
      <g>
       <use style="stroke:#000000;stroke-width:0.8;" x="57.6" xlink:href="#m3d90ca7f01" y="113.287595"/>
      </g>
     </g>
     <g id="text_12">
      <!-- 0.6 -->
      <defs>
       <path d="M 38.40625 63.796875 
L 39.203125 61.90625 
Q 26.703125 57.203125 19.25 45.84375 
Q 11.796875 34.5 11.796875 21.5 
Q 11.796875 12.90625 15.390625 6.75 
Q 19 0.59375 24.203125 0.59375 
Q 35.40625 0.59375 35.40625 18.40625 
Q 35.40625 25.90625 32.5 30.09375 
Q 29.59375 34.296875 25.203125 34.296875 
Q 23.5 34.296875 21.90625 33.59375 
L 20.796875 35.203125 
Q 24 36.59375 27.296875 36.59375 
Q 33.90625 36.59375 38.25 31.59375 
Q 42.59375 26.59375 42.59375 17.90625 
Q 42.59375 9.59375 37.4375 4 
Q 32.296875 -1.59375 24.09375 -1.59375 
Q 15.59375 -1.59375 10.25 5.046875 
Q 4.90625 11.703125 4.90625 23.09375 
Q 4.90625 36.90625 13.953125 48.25 
Q 23 59.59375 38.40625 63.796875 
z
" id="STKaiti-54"/>
      </defs>
      <g transform="translate(32.085 118.567595)scale(0.16 -0.16)">
       <use xlink:href="#STKaiti-48"/>
       <use x="46.899994" xlink:href="#STKaiti-46"/>
       <use x="68.799988" xlink:href="#STKaiti-54"/>
      </g>
     </g>
    </g>
    <g id="ytick_7">
     <g id="line2d_12">
      <g>
       <use style="stroke:#000000;stroke-width:0.8;" x="57.6" xlink:href="#m3d90ca7f01" y="76.194679"/>
      </g>
     </g>
     <g id="text_13">
      <!-- 0.7 -->
      <defs>
       <path d="M 4.59375 62.5 
L 43.09375 62.5 
L 43.09375 60.796875 
Q 39.703125 54.796875 30.953125 30.140625 
Q 22.203125 5.5 21.296875 0 
L 18 0 
Q 22.796875 20.703125 37.296875 56.40625 
L 10.296875 56.40625 
Q 7.796875 56.40625 7.59375 55.09375 
L 6.796875 50.90625 
L 4.59375 50.90625 
z
" id="STKaiti-55"/>
      </defs>
      <g transform="translate(32.085 81.474679)scale(0.16 -0.16)">
       <use xlink:href="#STKaiti-48"/>
       <use x="46.899994" xlink:href="#STKaiti-46"/>
       <use x="68.799988" xlink:href="#STKaiti-55"/>
      </g>
     </g>
    </g>
    <g id="text_14">
     <!-- 准确率 -->
     <defs>
      <path d="M 69.09375 4.796875 
L 81.09375 6.703125 
Q 84.203125 7.203125 85.59375 7.203125 
Q 89.5 7.203125 91.5 5.640625 
Q 93.5 4.09375 93.5 2.90625 
Q 93.5 1 87.90625 1 
L 79.203125 1.296875 
Q 67.59375 1.296875 54.09375 -1.203125 
Q 52.796875 -1.5 50.796875 -1.5 
Q 48.796875 -1.5 46.296875 -0.59375 
Q 45.796875 -10.296875 44.5 -13.046875 
Q 43.203125 -15.796875 42.390625 -15.796875 
Q 41.59375 -15.796875 40.4375 -13.59375 
Q 39.296875 -11.40625 39.296875 -8.453125 
Q 39.296875 -5.5 40.25 -1.296875 
Q 41.203125 2.90625 42 13.5 
Q 42.796875 24.09375 42.796875 31.9375 
Q 42.796875 39.796875 42.296875 43.40625 
Q 37.59375 38.09375 33.9375 35.5 
Q 30.296875 32.90625 28.796875 32.90625 
Q 28.296875 32.90625 28.296875 33.34375 
Q 28.296875 33.796875 29.203125 34.703125 
Q 37.296875 42.296875 43.390625 53.25 
Q 49.5 64.203125 49.5 68.203125 
Q 49.5 69 49.34375 69.75 
Q 49.203125 70.5 49.203125 70.90625 
Q 49.203125 72.5 50.5 72.5 
Q 51.296875 72.5 52.59375 71.75 
Q 53.90625 71 55.34375 69.890625 
Q 56.796875 68.796875 57.4375 68.046875 
Q 58.09375 67.296875 58.09375 66.34375 
Q 58.09375 65.40625 57.046875 64.296875 
Q 56 63.203125 52.203125 56.796875 
Q 48.40625 50.40625 44.09375 45.59375 
Q 47.296875 42 47.296875 38.203125 
Q 47.296875 26.703125 46.40625 2 
Q 51 2.203125 64.59375 4.203125 
L 64.796875 15.796875 
Q 58.40625 14.90625 56.40625 14.90625 
Q 54.40625 14.90625 53.40625 15.703125 
Q 52.40625 16.5 52.40625 16.890625 
Q 52.40625 17.296875 52.90625 17.5 
Q 53.40625 17.703125 57.703125 18.390625 
Q 62 19.09375 64.796875 19.59375 
L 64.796875 29 
Q 58.59375 28 56.75 28 
Q 54.90625 28 53.84375 28.640625 
Q 52.796875 29.296875 52.796875 30.046875 
Q 52.796875 30.796875 54.9375 31.046875 
Q 57.09375 31.296875 64.796875 32.796875 
Q 64.703125 40.5 63.796875 42.203125 
Q 58.796875 41.40625 56.390625 41.40625 
Q 54 41.40625 52.75 41.796875 
Q 51.5 42.203125 51.5 42.84375 
Q 51.5 43.5 53.59375 43.90625 
Q 61.296875 45.5 73.59375 49.203125 
Q 76.203125 50 78.84375 50 
Q 81.5 50 82.390625 49.203125 
Q 83.296875 48.40625 83.296875 47.75 
Q 83.296875 47.09375 82.296875 46.5 
Q 81.296875 45.90625 76.59375 44.703125 
Q 71.90625 43.5 67.703125 42.796875 
Q 70 41.296875 70 39.59375 
Q 70 39.203125 69.796875 38.390625 
Q 69.59375 37.59375 69.59375 33.90625 
Q 74.40625 35.40625 76.25 35.40625 
Q 78.09375 35.40625 79.640625 34.75 
Q 81.203125 34.09375 81.203125 33.296875 
Q 81.203125 31.203125 69.59375 29.703125 
Q 69.59375 23.796875 69.5 20.59375 
Q 75.703125 22.09375 77.5 22.09375 
Q 79.296875 22.09375 80.546875 21.5 
Q 81.796875 20.90625 81.796875 19.75 
Q 81.796875 18.59375 78.796875 17.84375 
Q 75.796875 17.09375 69.40625 16.296875 
z
M 73.296875 55.5 
Q 73.296875 52.09375 70.90625 52.09375 
Q 70.203125 52.09375 69.25 52.59375 
Q 68.296875 53.09375 66.890625 54.640625 
Q 65.5 56.203125 63.796875 58.296875 
Q 62.09375 60.40625 62.09375 60.90625 
Q 62.09375 61.796875 64.703125 61.796875 
Q 73.296875 61.796875 73.296875 55.5 
z
M 27.90625 47.90625 
Q 27.90625 46 27.25 44.453125 
Q 26.59375 42.90625 25.390625 42.90625 
Q 24.203125 42.90625 22 45.046875 
Q 19.796875 47.203125 16.84375 51 
Q 13.90625 54.796875 13.90625 55.4375 
Q 13.90625 56.09375 15.09375 56.09375 
Q 18.90625 56.09375 23.40625 53.75 
Q 27.90625 51.40625 27.90625 47.90625 
z
M 33.09375 29 
Q 33.703125 29 33.703125 28.203125 
Q 33.703125 27.40625 31.09375 23.59375 
Q 19.796875 8 17.90625 2 
Q 17.09375 -0.40625 16 -0.40625 
Q 14.296875 -0.40625 12.796875 4.140625 
Q 11.296875 8.703125 11.296875 10.703125 
Q 11.296875 12.59375 13.5 12.59375 
Q 16.703125 12.59375 30.09375 26.59375 
Q 32.296875 29 33.09375 29 
z
" id="STKaiti-20934"/>
      <path d="M 68.296875 43.59375 
Q 75.09375 45 76.59375 45.546875 
Q 78.09375 46.09375 79.546875 46.09375 
Q 81 46.09375 84.890625 44.09375 
Q 88.796875 42.09375 88.796875 40.09375 
Q 88.796875 39.40625 88.40625 38.796875 
Q 87 36.90625 87 28.90625 
Q 87 24.203125 87.296875 16.703125 
Q 87.59375 9.203125 87.84375 6.59375 
Q 88.09375 4 88.09375 2.40625 
Q 88.09375 -3.09375 85.640625 -7.640625 
Q 83.203125 -12.203125 81.703125 -12.203125 
Q 80.703125 -12.203125 79.296875 -9.546875 
Q 77.90625 -6.90625 74.40625 -2.59375 
Q 73.40625 -1.296875 73.40625 -0.890625 
Q 73.40625 -0.5 74 -0.5 
Q 74.59375 -0.5 76.09375 -0.703125 
Q 77.59375 -0.90625 79.25 -0.90625 
Q 80.90625 -0.90625 81.546875 0.25 
Q 82.203125 1.40625 82.203125 10.953125 
Q 82.203125 20.5 81.75 28.84375 
Q 81.296875 37.203125 80.75 39 
Q 80.203125 40.796875 79 41.34375 
Q 77.796875 41.90625 74.6875 41.90625 
Q 71.59375 41.90625 67.203125 41 
Q 69.796875 39.203125 69.796875 37.75 
Q 69.796875 36.296875 69.5 34.9375 
Q 69.203125 33.59375 69 30.40625 
Q 73.796875 31.59375 74.703125 31.59375 
Q 77.5 31.59375 77.5 30.09375 
Q 77.5 29.09375 76.25 28.59375 
Q 75 28.09375 68.796875 27 
L 68.5 18.796875 
L 73.90625 19.90625 
Q 75.40625 20.296875 76.453125 20.296875 
Q 77.5 20.296875 78.25 19.796875 
Q 79 19.296875 79 18.703125 
Q 79 17.703125 77.703125 17.25 
Q 76.40625 16.796875 68.40625 14.90625 
Q 68.296875 12.5 68.296875 7.5 
Q 68.296875 2.5 67.140625 -0.59375 
Q 66 -3.703125 65 -3.703125 
Q 64 -3.703125 64 0.34375 
Q 64 4.40625 64.40625 14.203125 
Q 60.703125 13.59375 58.703125 13.59375 
Q 56.703125 13.59375 55.75 14.140625 
Q 54.796875 14.703125 54.796875 15.34375 
Q 54.796875 16 56.890625 16.25 
Q 59 16.5 64.5 17.796875 
Q 64.796875 22.203125 64.90625 26.40625 
Q 61.703125 25.90625 59.90625 25.90625 
Q 56.5 25.90625 56.5 27.09375 
Q 56.5 27.90625 58.5 28.203125 
L 64.90625 29.5 
Q 64.90625 38.59375 63.703125 40.296875 
Q 57.203125 38.703125 54.203125 38.703125 
Q 53.296875 21.203125 51.34375 13.34375 
Q 49.40625 5.5 45.296875 0.5 
Q 41.203125 -4.5 37.546875 -6.953125 
Q 33.90625 -9.40625 33.203125 -9.40625 
Q 32.5 -9.40625 32.5 -9.203125 
Q 32.5 -8.5 34.40625 -6.703125 
Q 42.5 0.90625 45.703125 9.953125 
Q 48.90625 19 48.90625 30.296875 
Q 48.90625 36.59375 48 38.296875 
Q 47.09375 40 47.09375 40.84375 
Q 47.09375 41.703125 48.4375 41.703125 
Q 49.796875 41.703125 52.5 40.796875 
L 65 42.90625 
Q 69.296875 48.796875 73.203125 57.296875 
Q 66.5 55.5 64.640625 55.5 
Q 62.796875 55.5 60.796875 56.703125 
Q 55.796875 49.703125 52 46.453125 
Q 48.203125 43.203125 47 43.203125 
Q 46.59375 43.203125 46.59375 43.703125 
Q 46.59375 44.203125 47.59375 45.296875 
Q 54.203125 53.203125 57.140625 59.890625 
Q 60.09375 66.59375 60.09375 69 
Q 60.09375 69.703125 59.9375 70.34375 
Q 59.796875 71 59.796875 71.40625 
Q 59.796875 72.59375 61.140625 72.59375 
Q 62.5 72.59375 65.703125 71.1875 
Q 68.90625 69.796875 68.90625 68.59375 
Q 68.90625 68 68.09375 67.09375 
Q 67.296875 66.203125 64.9375 62.75 
Q 62.59375 59.296875 61.703125 58 
Q 64.296875 57.703125 67.59375 58.796875 
Q 70.90625 59.90625 73.796875 61.90625 
Q 75.09375 62.796875 76.5 62.796875 
Q 77.90625 62.796875 80.75 61 
Q 83.59375 59.203125 83.59375 58.25 
Q 83.59375 57.296875 81.25 56.296875 
Q 78.90625 55.296875 76.5 53.046875 
Q 74.09375 50.796875 68.296875 43.59375 
z
M 28 51.703125 
Q 23.90625 51.203125 20.703125 51.203125 
Q 17.5 51.203125 16.25 51.84375 
Q 15 52.5 15 53.046875 
Q 15 53.59375 16.703125 53.90625 
Q 22.703125 55 36.59375 58.796875 
Q 40.40625 59.796875 43 59.796875 
Q 45.59375 59.796875 46.796875 58.84375 
Q 48 57.90625 48 57.15625 
Q 48 56.40625 46.84375 55.796875 
Q 45.703125 55.203125 40.953125 54.09375 
Q 36.203125 53 33 52.5 
Q 34.40625 50.90625 34.40625 50.15625 
Q 34.40625 49.40625 33.703125 48.203125 
L 25.90625 34.40625 
Q 30.40625 34.703125 34.90625 37.09375 
Q 36.203125 37.796875 37.453125 37.796875 
Q 38.703125 37.796875 41.453125 36.296875 
Q 44.203125 34.796875 44.203125 33.203125 
Q 44.203125 32.59375 43.703125 32.09375 
Q 42.203125 30.796875 40.890625 28.1875 
Q 39.59375 25.59375 39.59375 24 
Q 39.59375 22.40625 40.09375 21.703125 
Q 40.59375 21 40.59375 20.453125 
Q 40.59375 19.90625 39.890625 19.59375 
Q 39.203125 19.296875 35.046875 18.59375 
Q 30.90625 17.90625 25.09375 17.5 
Q 25.203125 14.5 24.640625 12.25 
Q 24.09375 10 23.296875 10 
Q 22.5 10 21.890625 11.453125 
Q 21.296875 12.90625 21.1875 16.65625 
Q 21.09375 20.40625 20.40625 26.203125 
Q 15.296875 19.5 10.25 15.546875 
Q 5.203125 11.59375 3.703125 11.59375 
Q 3.203125 11.59375 3.203125 12.1875 
Q 3.203125 12.796875 4.5 14 
Q 13.5 22.59375 19.59375 31.796875 
Q 19 34.203125 19 35.09375 
Q 19 36 19.640625 36 
Q 20.296875 36 21.796875 35.5 
Q 28 46.90625 28 51.703125 
z
M 25.09375 20.40625 
Q 29.40625 20.59375 31.84375 21.546875 
Q 34.296875 22.5 35 25.546875 
Q 35.703125 28.59375 35.703125 30.796875 
Q 35.703125 33 33.703125 33 
Q 30.296875 33 25.09375 31.90625 
Q 25.296875 28.90625 25.296875 26.25 
Q 25.296875 23.59375 25.09375 20.40625 
z
" id="STKaiti-30830"/>
      <path d="M 56.90625 19.203125 
Q 72.40625 20.796875 76.84375 21.5 
Q 81.296875 22.203125 85.25 22.203125 
Q 89.203125 22.203125 91.796875 20.25 
Q 94.40625 18.296875 94.40625 17 
Q 94.40625 15.703125 91.296875 15.703125 
Q 89.90625 15.703125 87.40625 16.09375 
Q 84.90625 16.5 76.703125 16.5 
Q 68.5 16.5 56.59375 15.796875 
L 56.796875 1.90625 
Q 56.796875 -5.5 55.6875 -11.09375 
Q 54.59375 -16.703125 53.4375 -16.703125 
Q 52.296875 -16.703125 51.75 -12.140625 
Q 51.203125 -7.59375 51.203125 15.40625 
Q 44.90625 15 37.296875 13.703125 
Q 29.703125 12.40625 24.90625 11.203125 
Q 20.90625 10.40625 19.046875 10.40625 
Q 17.203125 10.40625 14.890625 11.65625 
Q 12.59375 12.90625 12.59375 13.703125 
Q 12.59375 13.90625 12.84375 14.046875 
Q 13.09375 14.203125 14 14.296875 
L 19.5 14.90625 
Q 24 15.296875 29.296875 15.90625 
L 51.203125 18.40625 
Q 51 24.59375 49.40625 27.09375 
Q 43.40625 25.09375 41.75 23.890625 
Q 40.09375 22.703125 39.390625 22.703125 
Q 38.703125 22.703125 38.25 23.890625 
Q 37.796875 25.09375 37.796875 26.09375 
Q 37.796875 28.203125 39.296875 29 
Q 41.40625 29.796875 44.046875 32.546875 
Q 46.703125 35.296875 52.203125 42.59375 
Q 48.796875 42.203125 41.296875 39.296875 
Q 40.5 38.90625 39.703125 38.90625 
Q 38.90625 38.90625 38.34375 40.09375 
Q 37.796875 41.296875 37.796875 42.34375 
Q 37.796875 43.40625 38.90625 44.203125 
Q 44 48.09375 45.390625 51.390625 
Q 46.796875 54.703125 46.90625 57.296875 
Q 41.703125 56.59375 38.84375 56.59375 
Q 36 56.59375 34.640625 57.296875 
Q 33.296875 58 33.296875 58.5 
Q 33.296875 59 35.5 59.296875 
Q 45.90625 60.703125 54.296875 62.40625 
Q 52.296875 64.5 50.296875 67.703125 
Q 48.296875 70.90625 48.296875 71.296875 
Q 48.296875 72 49.640625 72 
Q 51 72 54.09375 70.953125 
Q 57.203125 69.90625 57.203125 66.796875 
Q 57.203125 65.296875 56.5 62.90625 
Q 59.90625 63.59375 61.5 64 
Q 65 65.09375 67.140625 65.09375 
Q 69.296875 65.09375 70.890625 64.4375 
Q 72.5 63.796875 72.5 62.84375 
Q 72.5 61.90625 69.453125 60.953125 
Q 66.40625 60 50.796875 57.796875 
Q 52.40625 56 52.40625 54.546875 
Q 52.40625 53.09375 50.953125 51.890625 
Q 49.5 50.703125 43.796875 44.296875 
Q 47 44.296875 53.796875 44.5 
Q 56.09375 48.09375 56.5 49.046875 
Q 56.90625 50 56.90625 51.40625 
Q 56.90625 53.203125 58.59375 53.203125 
Q 59.90625 53.203125 61.703125 51.703125 
Q 63.5 50.203125 63.5 49.453125 
Q 63.5 48.703125 62.25 47.703125 
Q 61 46.703125 58.84375 44.640625 
Q 56.703125 42.59375 45.296875 29.59375 
Q 51.703125 30 60.203125 31.90625 
Q 59.59375 32.796875 58.84375 34.09375 
Q 58.09375 35.40625 57.640625 35.953125 
Q 57.203125 36.5 57.203125 37.09375 
Q 57.203125 37.703125 58.203125 37.703125 
Q 59.203125 37.703125 61.75 36.546875 
Q 64.296875 35.40625 65.890625 33.40625 
Q 67.5 31.40625 67.5 29.703125 
Q 67.5 28 66.953125 27.203125 
Q 66.40625 26.40625 65.5 26.40625 
Q 64.59375 26.40625 63.296875 28.046875 
Q 62 29.703125 61.40625 30.40625 
Q 56.703125 29.40625 51.203125 27.59375 
Q 54.09375 26.59375 55.640625 25.5 
Q 57.203125 24.40625 57.203125 22.75 
Q 57.203125 21.09375 56.90625 19.203125 
z
M 81.59375 52.09375 
Q 81.59375 51.203125 80.34375 50.703125 
Q 79.09375 50.203125 77.640625 49.296875 
Q 76.203125 48.40625 72.59375 46.40625 
Q 69 44.40625 67.40625 44.40625 
Q 66.703125 44.40625 66.703125 44.796875 
Q 66.703125 45.203125 67.5 45.90625 
Q 70.90625 49 72.203125 50.75 
Q 73.5 52.5 73.640625 54.34375 
Q 73.796875 56.203125 75 56.203125 
Q 76.203125 56.203125 78.890625 54.75 
Q 81.59375 53.296875 81.59375 52.09375 
z
M 32.90625 43.90625 
Q 32.90625 40.90625 31.203125 40.90625 
Q 29.59375 40.90625 27 44.5 
Q 24.40625 48.09375 24.40625 49.203125 
Q 24.40625 50.203125 25.953125 50.203125 
Q 27.5 50.203125 30.203125 48.546875 
Q 32.90625 46.90625 32.90625 43.90625 
z
M 82.203125 33.296875 
Q 82.203125 32 81.640625 31.046875 
Q 81.09375 30.09375 80.140625 30.09375 
Q 79.203125 30.09375 77.640625 31.296875 
Q 76.09375 32.5 73.796875 34.75 
Q 71.5 37 69.703125 38.84375 
Q 67.90625 40.703125 67.90625 41.203125 
Q 67.90625 41.703125 68.796875 41.703125 
Q 69.703125 41.703125 73.84375 40.5 
Q 78 39.296875 80.09375 37.5 
Q 82.203125 35.703125 82.203125 33.296875 
z
M 36.40625 36.703125 
Q 36.40625 36 33.5 32.546875 
Q 30.59375 29.09375 29.046875 26.5 
Q 27.5 23.90625 26.203125 23.90625 
Q 25.09375 23.90625 23.640625 25.90625 
Q 22.203125 27.90625 22.203125 28.84375 
Q 22.203125 29.796875 23.59375 29.890625 
Q 25 30 27.140625 31.296875 
Q 29.296875 32.59375 34.703125 36.796875 
Q 35.203125 37.203125 35.796875 37.203125 
Q 36.40625 37.203125 36.40625 36.703125 
z
" id="STKaiti-29575"/>
     </defs>
     <g transform="translate(23.9725 198.528)rotate(-90)scale(0.16 -0.16)">
      <use xlink:href="#STKaiti-20934"/>
      <use x="99.999985" xlink:href="#STKaiti-30830"/>
      <use x="199.999969" xlink:href="#STKaiti-29575"/>
     </g>
    </g>
   </g>
   <g id="line2d_13">
    <path clip-path="url(#p2c90cc344c)" d="M 73.832727 295.488 
L 85.027712 257.504854 
L 96.222696 219.187871 
L 107.41768 189.995746 
L 118.612665 169.001155 
L 129.807649 153.718874 
L 141.002633 140.921818 
L 152.197618 130.758359 
L 163.392602 122.189895 
L 174.587586 115.661542 
L 185.782571 109.392839 
L 196.977555 103.569251 
L 208.172539 98.042407 
L 219.367524 93.25742 
L 230.562508 88.694992 
L 241.757492 84.763143 
L 252.952476 81.944081 
L 264.147461 78.568626 
L 275.342445 76.0834 
L 286.537429 73.486896 
L 297.732414 70.48237 
L 308.927398 67.885866 
L 320.122382 65.957034 
L 331.317367 63.694366 
L 342.512351 62.210649 
L 353.707335 59.762517 
L 364.90232 58.315893 
L 376.097304 57.277292 
L 387.292288 55.237181 
L 398.487273 53.568 
" style="fill:none;stroke:#ff7f0e;stroke-linecap:square;stroke-width:1.5;"/>
    <defs>
     <path d="M -3 3 
L 3 3 
L 3 -3 
L -3 -3 
z
" id="m0e02992b46" style="stroke:#ff7f0e;stroke-linejoin:miter;"/>
    </defs>
    <g clip-path="url(#p2c90cc344c)">
     <use style="fill:#ff7f0e;stroke:#ff7f0e;stroke-linejoin:miter;" x="73.832727" xlink:href="#m0e02992b46" y="295.488"/>
     <use style="fill:#ff7f0e;stroke:#ff7f0e;stroke-linejoin:miter;" x="85.027712" xlink:href="#m0e02992b46" y="257.504854"/>
     <use style="fill:#ff7f0e;stroke:#ff7f0e;stroke-linejoin:miter;" x="96.222696" xlink:href="#m0e02992b46" y="219.187871"/>
     <use style="fill:#ff7f0e;stroke:#ff7f0e;stroke-linejoin:miter;" x="107.41768" xlink:href="#m0e02992b46" y="189.995746"/>
     <use style="fill:#ff7f0e;stroke:#ff7f0e;stroke-linejoin:miter;" x="118.612665" xlink:href="#m0e02992b46" y="169.001155"/>
     <use style="fill:#ff7f0e;stroke:#ff7f0e;stroke-linejoin:miter;" x="129.807649" xlink:href="#m0e02992b46" y="153.718874"/>
     <use style="fill:#ff7f0e;stroke:#ff7f0e;stroke-linejoin:miter;" x="141.002633" xlink:href="#m0e02992b46" y="140.921818"/>
     <use style="fill:#ff7f0e;stroke:#ff7f0e;stroke-linejoin:miter;" x="152.197618" xlink:href="#m0e02992b46" y="130.758359"/>
     <use style="fill:#ff7f0e;stroke:#ff7f0e;stroke-linejoin:miter;" x="163.392602" xlink:href="#m0e02992b46" y="122.189895"/>
     <use style="fill:#ff7f0e;stroke:#ff7f0e;stroke-linejoin:miter;" x="174.587586" xlink:href="#m0e02992b46" y="115.661542"/>
     <use style="fill:#ff7f0e;stroke:#ff7f0e;stroke-linejoin:miter;" x="185.782571" xlink:href="#m0e02992b46" y="109.392839"/>
     <use style="fill:#ff7f0e;stroke:#ff7f0e;stroke-linejoin:miter;" x="196.977555" xlink:href="#m0e02992b46" y="103.569251"/>
     <use style="fill:#ff7f0e;stroke:#ff7f0e;stroke-linejoin:miter;" x="208.172539" xlink:href="#m0e02992b46" y="98.042407"/>
     <use style="fill:#ff7f0e;stroke:#ff7f0e;stroke-linejoin:miter;" x="219.367524" xlink:href="#m0e02992b46" y="93.25742"/>
     <use style="fill:#ff7f0e;stroke:#ff7f0e;stroke-linejoin:miter;" x="230.562508" xlink:href="#m0e02992b46" y="88.694992"/>
     <use style="fill:#ff7f0e;stroke:#ff7f0e;stroke-linejoin:miter;" x="241.757492" xlink:href="#m0e02992b46" y="84.763143"/>
     <use style="fill:#ff7f0e;stroke:#ff7f0e;stroke-linejoin:miter;" x="252.952476" xlink:href="#m0e02992b46" y="81.944081"/>
     <use style="fill:#ff7f0e;stroke:#ff7f0e;stroke-linejoin:miter;" x="264.147461" xlink:href="#m0e02992b46" y="78.568626"/>
     <use style="fill:#ff7f0e;stroke:#ff7f0e;stroke-linejoin:miter;" x="275.342445" xlink:href="#m0e02992b46" y="76.0834"/>
     <use style="fill:#ff7f0e;stroke:#ff7f0e;stroke-linejoin:miter;" x="286.537429" xlink:href="#m0e02992b46" y="73.486896"/>
     <use style="fill:#ff7f0e;stroke:#ff7f0e;stroke-linejoin:miter;" x="297.732414" xlink:href="#m0e02992b46" y="70.48237"/>
     <use style="fill:#ff7f0e;stroke:#ff7f0e;stroke-linejoin:miter;" x="308.927398" xlink:href="#m0e02992b46" y="67.885866"/>
     <use style="fill:#ff7f0e;stroke:#ff7f0e;stroke-linejoin:miter;" x="320.122382" xlink:href="#m0e02992b46" y="65.957034"/>
     <use style="fill:#ff7f0e;stroke:#ff7f0e;stroke-linejoin:miter;" x="331.317367" xlink:href="#m0e02992b46" y="63.694366"/>
     <use style="fill:#ff7f0e;stroke:#ff7f0e;stroke-linejoin:miter;" x="342.512351" xlink:href="#m0e02992b46" y="62.210649"/>
     <use style="fill:#ff7f0e;stroke:#ff7f0e;stroke-linejoin:miter;" x="353.707335" xlink:href="#m0e02992b46" y="59.762517"/>
     <use style="fill:#ff7f0e;stroke:#ff7f0e;stroke-linejoin:miter;" x="364.90232" xlink:href="#m0e02992b46" y="58.315893"/>
     <use style="fill:#ff7f0e;stroke:#ff7f0e;stroke-linejoin:miter;" x="376.097304" xlink:href="#m0e02992b46" y="57.277292"/>
     <use style="fill:#ff7f0e;stroke:#ff7f0e;stroke-linejoin:miter;" x="387.292288" xlink:href="#m0e02992b46" y="55.237181"/>
     <use style="fill:#ff7f0e;stroke:#ff7f0e;stroke-linejoin:miter;" x="398.487273" xlink:href="#m0e02992b46" y="53.568"/>
    </g>
   </g>
   <g id="patch_3">
    <path d="M 57.6 307.584 
L 57.6 41.472 
" style="fill:none;stroke:#000000;stroke-linecap:square;stroke-linejoin:miter;stroke-width:0.8;"/>
   </g>
   <g id="patch_4">
    <path d="M 414.72 307.584 
L 414.72 41.472 
" style="fill:none;stroke:#000000;stroke-linecap:square;stroke-linejoin:miter;stroke-width:0.8;"/>
   </g>
   <g id="patch_5">
    <path d="M 57.6 307.584 
L 414.72 307.584 
" style="fill:none;stroke:#000000;stroke-linecap:square;stroke-linejoin:miter;stroke-width:0.8;"/>
   </g>
   <g id="patch_6">
    <path d="M 57.6 41.472 
L 414.72 41.472 
" style="fill:none;stroke:#000000;stroke-linecap:square;stroke-linejoin:miter;stroke-width:0.8;"/>
   </g>
   <g id="legend_1">
    <g id="patch_7">
     <path d="M 68.8 77.5845 
L 152 77.5845 
Q 155.2 77.5845 155.2 74.3845 
L 155.2 52.672 
Q 155.2 49.472 152 49.472 
L 68.8 49.472 
Q 65.6 49.472 65.6 52.672 
L 65.6 74.3845 
Q 65.6 77.5845 68.8 77.5845 
z
" style="fill:#ffffff;opacity:0.8;stroke:#cccccc;stroke-linejoin:miter;"/>
    </g>
    <g id="line2d_14">
     <path d="M 72 61.472 
L 104 61.472 
" style="fill:none;stroke:#ff7f0e;stroke-linecap:square;stroke-width:1.5;"/>
    </g>
    <g id="line2d_15">
     <g>
      <use style="fill:#ff7f0e;stroke:#ff7f0e;stroke-linejoin:miter;" x="88" xlink:href="#m0e02992b46" y="61.472"/>
     </g>
    </g>
    <g id="text_15">
     <!-- 测试 -->
     <defs>
      <path d="M 83.40625 47 
Q 83.40625 36.59375 84.25 20.9375 
Q 85.09375 5.296875 85.09375 2.796875 
Q 85.09375 -3.5 83.296875 -7.75 
Q 81.5 -12 79.890625 -12 
Q 78.296875 -12 77.59375 -10.203125 
Q 74.703125 -4.203125 69.5 1.703125 
Q 68.703125 2.703125 68.703125 3.34375 
Q 68.703125 4 69.40625 4 
Q 69.796875 4 72.546875 2.953125 
Q 75.296875 1.90625 76.546875 1.90625 
Q 77.796875 1.90625 78.046875 2.84375 
Q 78.296875 3.796875 78.640625 11.4375 
Q 79 19.09375 79 29.703125 
Q 79 47 78.296875 56.546875 
Q 77.59375 66.09375 76.59375 67.5 
Q 75.203125 69.5 75.203125 70.546875 
Q 75.203125 71.59375 76.5 71.59375 
Q 77.796875 71.59375 81.59375 69.4375 
Q 85.40625 67.296875 85.40625 66.09375 
Q 85.40625 64.90625 84.59375 63 
Q 83.40625 60.40625 83.40625 47 
z
M 28.796875 56 
Q 28.796875 54.203125 28.09375 53.09375 
Q 27.40625 52 26.09375 52 
Q 23.40625 52 20.796875 56.5 
Q 18.203125 61 18.203125 62.140625 
Q 18.203125 63.296875 19.453125 63.296875 
Q 20.703125 63.296875 23.203125 62.4375 
Q 25.703125 61.59375 27.25 59.796875 
Q 28.796875 58 28.796875 56 
z
M 35.703125 58 
Q 42.5 58.90625 48.203125 61.703125 
Q 49.203125 62.203125 50.296875 62.203125 
Q 51.40625 62.203125 54.75 60.296875 
Q 58.09375 58.40625 58.09375 57.40625 
Q 58.09375 56.40625 57.546875 54.59375 
Q 57 52.796875 56.796875 51.09375 
Q 56.59375 49.40625 56.59375 46.40625 
L 57 27 
Q 57 24.296875 56.046875 20.390625 
Q 55.09375 16.5 53.703125 16.5 
Q 52.796875 16.5 52 17.890625 
Q 51.203125 19.296875 51.203125 21.25 
Q 51.203125 23.203125 51.59375 25.34375 
Q 52 27.5 52 32.140625 
Q 52 36.796875 51.546875 46 
Q 51.09375 55.203125 50.296875 56.34375 
Q 49.5 57.5 47.890625 57.5 
Q 46.296875 57.5 43.046875 56.703125 
Q 39.796875 55.90625 37.09375 55.40625 
Q 37.203125 47.90625 37 41.953125 
Q 36.796875 36 36.296875 29.390625 
Q 35.796875 22.796875 35.5 21.390625 
Q 35.203125 20 34.390625 18.703125 
Q 33.59375 17.40625 33.296875 17.09375 
Q 33 16.796875 32.5 16.796875 
Q 32 16.796875 31.203125 18.296875 
Q 30.40625 19.796875 30.40625 21.140625 
Q 30.40625 22.5 31.203125 25.796875 
Q 32.90625 32.40625 32.90625 42.453125 
Q 32.90625 52.5 32.25 54.34375 
Q 31.59375 56.203125 31.59375 57 
Q 31.59375 58.40625 32.890625 58.40625 
Q 34.203125 58.40625 35.703125 58 
z
M 69.90625 43.90625 
L 70.5 27.90625 
Q 70.5 23.703125 69.703125 20.796875 
Q 68.90625 17.90625 67.75 17.90625 
Q 66.59375 17.90625 65.640625 19.953125 
Q 64.703125 22 64.703125 23.34375 
Q 64.703125 24.703125 64.953125 26.59375 
Q 65.203125 28.5 65.203125 31.453125 
Q 65.203125 34.40625 64.890625 40.296875 
Q 64.59375 46.203125 63.59375 47.890625 
Q 62.59375 49.59375 62.59375 50.546875 
Q 62.59375 51.5 63.890625 51.5 
Q 65.203125 51.5 67.640625 50.59375 
Q 70.09375 49.703125 70.09375 47.703125 
Q 70.09375 47.203125 70 46.453125 
Q 69.90625 45.703125 69.90625 43.90625 
z
M 46.90625 44.09375 
Q 46.90625 43.09375 46.59375 42 
Q 46 39.703125 45.5 30.09375 
Q 45.09375 17.796875 41.5 10.09375 
Q 37.90625 2.40625 31.40625 -1.59375 
Q 24.90625 -5.59375 22.40625 -5.59375 
Q 21.296875 -5.59375 21.296875 -4.796875 
Q 21.296875 -4 22.703125 -3.296875 
Q 33.203125 2.703125 37.390625 12.140625 
Q 41.59375 21.59375 41.59375 38.40625 
Q 41.59375 44 40.890625 45.390625 
Q 40.203125 46.796875 40.203125 47.59375 
Q 40.203125 48.40625 41.203125 48.40625 
Q 42.203125 48.40625 44.546875 47.34375 
Q 46.90625 46.296875 46.90625 44.09375 
z
M 20 37.203125 
Q 20 35.296875 19.296875 33.796875 
Q 18.59375 32.296875 17.34375 32.296875 
Q 16.09375 32.296875 15.09375 33.5 
Q 14.09375 34.703125 12.140625 38.796875 
Q 10.203125 42.90625 10.203125 43.75 
Q 10.203125 44.59375 11.5 44.59375 
Q 14.296875 44.59375 17.140625 42.6875 
Q 20 40.796875 20 37.203125 
z
M 28.09375 35.40625 
Q 28.09375 34.09375 26.4375 30.046875 
Q 24.796875 26 22.046875 17.25 
Q 19.296875 8.5 18.640625 4.953125 
Q 18 1.40625 16.75 1.40625 
Q 15.5 1.40625 13.203125 5.09375 
Q 10.90625 8.796875 10.90625 10.4375 
Q 10.90625 12.09375 11.59375 12.40625 
Q 13.90625 13.09375 17.09375 18.703125 
Q 18.203125 21 21.890625 27.5 
Q 25.59375 34 26.4375 35.046875 
Q 27.296875 36.09375 27.6875 36.09375 
Q 28.09375 36.09375 28.09375 35.40625 
z
M 57.90625 2.703125 
Q 57.90625 0.90625 57.25 -0.09375 
Q 56.59375 -1.09375 55.6875 -1.09375 
Q 54.796875 -1.09375 54.25 -0.5 
Q 53.703125 0.09375 50.796875 4.390625 
Q 47.90625 8.703125 46.296875 10.953125 
Q 44.703125 13.203125 44.703125 14 
Q 44.703125 14.796875 45.796875 14.796875 
Q 46.90625 14.796875 52.40625 11.046875 
Q 57.90625 7.296875 57.90625 2.703125 
z
" id="STKaiti-27979"/>
      <path d="M 67.40625 39.703125 
Q 69.796875 29.90625 74.25 20.703125 
Q 78.703125 11.5 83.59375 5.796875 
Q 88.5 0.09375 89.640625 0.09375 
Q 90.796875 0.09375 91.796875 2.34375 
Q 92.796875 4.59375 94 8.4375 
Q 95.203125 12.296875 95.890625 12.296875 
Q 96.59375 12.296875 96.59375 11.296875 
Q 96.59375 10.296875 96.390625 7.25 
Q 96.203125 4.203125 96.203125 0.40625 
L 96.5 -7.59375 
Q 96.5 -10.5 94.703125 -10.5 
Q 91.703125 -10.5 85.5 -5.046875 
Q 79.296875 0.40625 73.25 12.5 
Q 67.203125 24.59375 63.59375 38.796875 
Q 55 36.59375 52.453125 36.1875 
Q 49.90625 35.796875 48.15625 35.796875 
Q 46.40625 35.796875 45.296875 36.4375 
Q 44.203125 37.09375 44.203125 37.796875 
Q 44.203125 38.5 46.953125 38.75 
Q 49.703125 39 62.796875 42.90625 
Q 58.90625 62.59375 55.5 66.703125 
Q 54.09375 68.296875 54.09375 69.140625 
Q 54.09375 70 55.75 70 
Q 57.40625 70 61.40625 68.640625 
Q 65.40625 67.296875 65.40625 64.796875 
Q 65.40625 64 65.09375 62.75 
Q 64.796875 61.5 64.796875 59 
Q 64.796875 52.59375 66.5 43.796875 
Q 74.90625 46.40625 76.953125 46.40625 
Q 79 46.40625 80 45.84375 
Q 81 45.296875 81 44.390625 
Q 81 43.5 78.890625 42.59375 
Q 76.796875 41.703125 67.40625 39.703125 
z
M 29.203125 67.296875 
Q 31.90625 67.296875 36.703125 65.390625 
Q 41.5 63.5 41.5 59.703125 
Q 41.5 58.09375 40.640625 56.9375 
Q 39.796875 55.796875 38.640625 55.796875 
Q 37.5 55.796875 36.25 56.796875 
Q 35 57.796875 31.453125 61.546875 
Q 27.90625 65.296875 27.90625 66.296875 
Q 27.90625 67.296875 29.203125 67.296875 
z
M 78.203125 61.5 
Q 81.796875 61.5 84.046875 59.546875 
Q 86.296875 57.59375 86.296875 54.890625 
Q 86.296875 52.203125 83.703125 52.203125 
Q 82 52.203125 80.140625 53.59375 
Q 78.296875 55 75.84375 57.09375 
Q 73.40625 59.203125 73.40625 60 
Q 73.40625 60.796875 74.953125 61.140625 
Q 76.5 61.5 78.203125 61.5 
z
M 30.203125 8.09375 
Q 34.40625 10.796875 38.34375 12.796875 
Q 42.296875 14.796875 42.84375 14.796875 
Q 43.40625 14.796875 43.40625 14.5 
Q 43.40625 13.796875 40.40625 11.34375 
Q 37.40625 8.90625 32.90625 4.203125 
Q 28.40625 -0.5 27.90625 -1.40625 
Q 26.09375 -4.59375 25 -4.59375 
Q 23.90625 -4.59375 22.703125 -2.1875 
Q 21.5 0.203125 21.5 1.640625 
Q 21.5 3.09375 23 4.75 
Q 24.5 6.40625 26.34375 12.703125 
Q 28.203125 19 28.203125 30.296875 
Q 28.203125 33.296875 27.34375 33.296875 
Q 26.5 33.296875 22.296875 31.796875 
Q 18.09375 30.296875 17.703125 30 
Q 16.296875 29.296875 14.546875 29.296875 
Q 12.796875 29.296875 10.59375 30.6875 
Q 8.40625 32.09375 8.40625 33 
Q 8.40625 33.90625 11 33.90625 
L 13.296875 33.796875 
Q 15.796875 33.796875 20.1875 35.1875 
Q 24.59375 36.59375 26.75 38.640625 
Q 28.90625 40.703125 30.046875 40.703125 
Q 31.203125 40.703125 33.546875 39.546875 
Q 35.90625 38.40625 35.90625 37.453125 
Q 35.90625 36.5 34.59375 35.09375 
Q 33.296875 33.703125 32.34375 28.296875 
Q 31.40625 22.90625 30.203125 8.09375 
z
M 56.796875 9.203125 
Q 59.296875 10.09375 63.296875 11.1875 
Q 67.296875 12.296875 68.390625 12.296875 
Q 69.5 12.296875 69.5 11.546875 
Q 69.5 10.796875 68 10.203125 
Q 51.5 3.40625 45.59375 -0.09375 
Q 43.59375 -1.40625 42.59375 -1.40625 
Q 41.59375 -1.40625 40.046875 0.796875 
Q 38.5 3 38.5 3.703125 
Q 38.5 4.40625 41.203125 4.59375 
Q 46.40625 5 53.09375 7.703125 
Q 53.203125 10.90625 53.203125 13.296875 
Q 53.203125 20.59375 52 21.703125 
Q 50.296875 21.5 48.4375 21.5 
Q 46.59375 21.5 45.5 21.890625 
Q 44.40625 22.296875 44.40625 22.890625 
Q 44.40625 23.5 46.15625 23.84375 
Q 47.90625 24.203125 52.09375 25.453125 
Q 56.296875 26.703125 58.046875 27.453125 
Q 59.796875 28.203125 61.5 28.203125 
Q 64.703125 28.203125 64.703125 26.90625 
Q 64.703125 24.59375 55.40625 22.296875 
Q 57.59375 20.40625 57.59375 19.34375 
Q 57.59375 18.296875 57.34375 16.59375 
Q 57.09375 14.90625 56.796875 9.203125 
z
" id="STKaiti-35797"/>
     </defs>
     <g transform="translate(116.8 67.072)scale(0.16 -0.16)">
      <use xlink:href="#STKaiti-27979"/>
      <use x="99.999985" xlink:href="#STKaiti-35797"/>
     </g>
    </g>
   </g>
  </g>
 </g>
 <defs>
  <clipPath id="p2c90cc344c">
   <rect height="266.112" width="357.12" x="57.6" y="41.472"/>
  </clipPath>
 </defs>
</svg>
